SplineFontDB: 3.2
FontName: DejaPro-MediumItalic
FullName: DejaPro Medium Italic
FamilyName: DejaPro Medium
Weight: Medium
Copyright: Property of Defensecorps.
UComments: "2023-7-26: Created with FontForge (http://fontforge.org)"
Version: 1.00
ItalicAngle: -12
UnderlinePosition: -237
UnderlineWidth: 119
Ascent: 1638
Descent: 410
InvalidEm: 0
LayerCount: 2
Layer: 0 1 "Back" 1
Layer: 1 1 "Fore" 0
XUID: [1021 164 111113757 18505]
StyleMap: 0x0001
FSType: 0
OS2Version: 0
OS2_WeightWidthSlopeOnly: 0
OS2_UseTypoMetrics: 1
CreationTime: 1690353932
ModificationTime: 1690369554
PfmFamily: 17
TTFWeight: 500
TTFWidth: 5
LineGap: 0
VLineGap: 0
OS2TypoAscent: 1491
OS2TypoAOffset: 0
OS2TypoDescent: -431
OS2TypoDOffset: 0
OS2TypoLinegap: 269
OS2WinAscent: 2210
OS2WinAOffset: 0
OS2WinDescent: 514
OS2WinDOffset: 0
HheadAscent: 2210
HheadAOffset: 0
HheadDescent: -514
HheadDOffset: 0
OS2SubXSize: 1434
OS2SubYSize: 1331
OS2SubXOff: 0
OS2SubYOff: 283
OS2SupXSize: 1434
OS2SupYSize: 1331
OS2SupXOff: 0
OS2SupYOff: 977
OS2StrikeYSize: 102
OS2StrikeYPos: 530
OS2CapHeight: 1434
OS2XHeight: 1024
OS2Vendor: 'PfEd'
Lookup: 6 256 0 "SegoeUI-SemiboldItalic-'ccmp' Glyph Composition/Decomposition lookup 0" { "SegoeUI-SemiboldItalic-'ccmp' Glyph Composition/Decomposition lookup 0 subtable"  } ['ccmp' ('cyrl' <'MKD ' 'SRB ' 'dflt' > 'grek' <'dflt' > 'latn' <'TRK ' 'dflt' > ) ]
Lookup: 4 0 0 "SegoeUI-SemiboldItalic-'ccmp' Glyph Composition/Decomposition lookup 1" { "SegoeUI-SemiboldItalic-'ccmp' Glyph Composition/Decomposition lookup 1 subtable"  } ['ccmp' ('cyrl' <'MKD ' 'SRB ' 'dflt' > 'grek' <'dflt' > 'latn' <'TRK ' 'dflt' > ) ]
Lookup: 1 0 0 "SegoeUI-SemiboldItalic-'subs' Subscript lookup 2" { "SegoeUI-SemiboldItalic-'subs' Subscript lookup 2 subtable"  } ['subs' ('cyrl' <'MKD ' 'SRB ' 'dflt' > 'grek' <'dflt' > 'latn' <'TRK ' 'dflt' > ) ]

StartChar: SF100000
Encoding: 9472 9472 0
Width: 1024
Flags: W
LayerCount: 2
Fore
SplineSet
-10 463 m 1,0,-1
 -10 597 l 1,1,-1
 1034 597 l 1,2,-1
 1034 463 l 1,3,-1
 -10 463 l 1,0,-1
EndSplineSet
EndChar

StartChar: uni2501
Encoding: 9473 9473 1
Width: 1024
Flags: W
LayerCount: 2
Fore
SplineSet
-10 423 m 1,0,-1
 -10 637 l 1,1,-1
 1034 637 l 1,2,-1
 1034 423 l 1,3,-1
 -10 423 l 1,0,-1
EndSplineSet
EndChar

StartChar: SF110000
Encoding: 9474 9474 2
Width: 1024
Flags: W
LayerCount: 2
Fore
SplineSet
445 1501 m 1,0,-1
 579 1501 l 1,1,-1
 579 -440 l 1,2,-1
 445 -440 l 1,3,-1
 445 1501 l 1,0,-1
EndSplineSet
EndChar

StartChar: uni2503
Encoding: 9475 9475 3
Width: 1024
Flags: W
LayerCount: 2
Fore
SplineSet
405 1501 m 1,0,-1
 619 1501 l 1,1,-1
 619 -440 l 1,2,-1
 405 -440 l 1,3,-1
 405 1501 l 1,0,-1
EndSplineSet
EndChar

StartChar: uni2504
Encoding: 9476 9476 4
Width: 1024
Flags: W
LayerCount: 2
Fore
SplineSet
385 597 m 1,0,-1
 639 597 l 1,1,-1
 639 463 l 1,2,-1
 385 463 l 1,3,-1
 385 597 l 1,0,-1
-10 597 m 1,4,-1
 244 597 l 1,5,-1
 244 463 l 1,6,-1
 -10 463 l 1,7,-1
 -10 597 l 1,4,-1
780 597 m 1,8,-1
 1034 597 l 1,9,-1
 1034 463 l 1,10,-1
 780 463 l 1,11,-1
 780 597 l 1,8,-1
EndSplineSet
EndChar

StartChar: uni2505
Encoding: 9477 9477 5
Width: 1024
Flags: W
LayerCount: 2
Fore
SplineSet
385 637 m 1,0,-1
 639 637 l 1,1,-1
 639 423 l 1,2,-1
 385 423 l 1,3,-1
 385 637 l 1,0,-1
-10 637 m 1,4,-1
 244 637 l 1,5,-1
 244 423 l 1,6,-1
 -10 423 l 1,7,-1
 -10 637 l 1,4,-1
780 637 m 1,8,-1
 1034 637 l 1,9,-1
 1034 423 l 1,10,-1
 780 423 l 1,11,-1
 780 637 l 1,8,-1
EndSplineSet
EndChar

StartChar: uni2506
Encoding: 9478 9478 6
Width: 1024
Flags: W
LayerCount: 2
Fore
SplineSet
445 64 m 1,0,-1
 579 64 l 1,1,-1
 579 -440 l 1,2,-1
 445 -440 l 1,3,-1
 445 64 l 1,0,-1
579 279 m 1,4,-1
 445 279 l 1,5,-1
 445 782 l 1,6,-1
 579 782 l 1,7,-1
 579 279 l 1,4,-1
579 997 m 1,8,-1
 445 997 l 1,9,-1
 445 1501 l 1,10,-1
 579 1501 l 1,11,-1
 579 997 l 1,8,-1
EndSplineSet
EndChar

StartChar: uni2507
Encoding: 9479 9479 7
Width: 1024
Flags: W
LayerCount: 2
Fore
SplineSet
405 64 m 1,0,-1
 619 64 l 1,1,-1
 619 -440 l 1,2,-1
 405 -440 l 1,3,-1
 405 64 l 1,0,-1
619 279 m 1,4,-1
 405 279 l 1,5,-1
 405 782 l 1,6,-1
 619 782 l 1,7,-1
 619 279 l 1,4,-1
619 997 m 1,8,-1
 405 997 l 1,9,-1
 405 1501 l 1,10,-1
 619 1501 l 1,11,-1
 619 997 l 1,8,-1
EndSplineSet
EndChar

StartChar: uni2508
Encoding: 9480 9480 8
Width: 1024
Flags: W
LayerCount: 2
Fore
SplineSet
-10 597 m 1,0,-1
 139 597 l 1,1,-1
 139 463 l 1,2,-1
 -10 463 l 1,3,-1
 -10 597 l 1,0,-1
288 597 m 1,4,-1
 437 597 l 1,5,-1
 437 463 l 1,6,-1
 288 463 l 1,7,-1
 288 597 l 1,4,-1
587 597 m 1,8,-1
 736 597 l 1,9,-1
 736 463 l 1,10,-1
 587 463 l 1,11,-1
 587 597 l 1,8,-1
885 597 m 1,12,-1
 1034 597 l 1,13,-1
 1034 463 l 1,14,-1
 885 463 l 1,15,-1
 885 597 l 1,12,-1
EndSplineSet
EndChar

StartChar: uni2509
Encoding: 9481 9481 9
Width: 1024
Flags: W
LayerCount: 2
Fore
SplineSet
-10 637 m 1,0,-1
 139 637 l 1,1,-1
 139 423 l 1,2,-1
 -10 423 l 1,3,-1
 -10 637 l 1,0,-1
288 637 m 1,4,-1
 437 637 l 1,5,-1
 437 423 l 1,6,-1
 288 423 l 1,7,-1
 288 637 l 1,4,-1
587 637 m 1,8,-1
 736 637 l 1,9,-1
 736 423 l 1,10,-1
 587 423 l 1,11,-1
 587 637 l 1,8,-1
885 637 m 1,12,-1
 1034 637 l 1,13,-1
 1034 423 l 1,14,-1
 885 423 l 1,15,-1
 885 637 l 1,12,-1
EndSplineSet
EndChar

StartChar: uni250A
Encoding: 9482 9482 10
Width: 1024
Flags: W
LayerCount: 2
Fore
SplineSet
445 -106 m 1,0,-1
 579 -106 l 1,1,-1
 579 -440 l 1,2,-1
 445 -440 l 1,3,-1
 445 -106 l 1,0,-1
579 106 m 1,4,-1
 445 106 l 1,5,-1
 445 430 l 1,6,-1
 579 430 l 1,7,-1
 579 106 l 1,4,-1
579 1177 m 1,8,-1
 445 1177 l 1,9,-1
 445 1501 l 1,10,-1
 579 1501 l 1,11,-1
 579 1177 l 1,8,-1
579 641 m 1,12,-1
 445 641 l 1,13,-1
 445 965 l 1,14,-1
 579 965 l 1,15,-1
 579 641 l 1,12,-1
EndSplineSet
EndChar

StartChar: uni250B
Encoding: 9483 9483 11
Width: 1024
Flags: W
LayerCount: 2
Fore
SplineSet
405 -106 m 1,0,-1
 619 -106 l 1,1,-1
 619 -440 l 1,2,-1
 405 -440 l 1,3,-1
 405 -106 l 1,0,-1
619 106 m 1,4,-1
 405 106 l 1,5,-1
 405 430 l 1,6,-1
 619 430 l 1,7,-1
 619 106 l 1,4,-1
619 1177 m 1,8,-1
 405 1177 l 1,9,-1
 405 1501 l 1,10,-1
 619 1501 l 1,11,-1
 619 1177 l 1,8,-1
619 641 m 1,12,-1
 405 641 l 1,13,-1
 405 965 l 1,14,-1
 619 965 l 1,15,-1
 619 641 l 1,12,-1
EndSplineSet
EndChar

StartChar: SF010000
Encoding: 9484 9484 12
Width: 1024
Flags: W
LayerCount: 2
Fore
SplineSet
579 463 m 1,0,-1
 579 -440 l 1,1,-1
 445 -440 l 1,2,-1
 445 597 l 1,3,-1
 1034 597 l 1,4,-1
 1034 463 l 1,5,-1
 579 463 l 1,0,-1
EndSplineSet
EndChar

StartChar: uni250D
Encoding: 9485 9485 13
Width: 1024
Flags: W
LayerCount: 2
Fore
SplineSet
579 423 m 1,0,-1
 579 -440 l 1,1,-1
 445 -440 l 1,2,-1
 445 637 l 1,3,-1
 1034 637 l 1,4,-1
 1034 423 l 1,5,-1
 579 423 l 1,0,-1
EndSplineSet
EndChar

StartChar: uni250E
Encoding: 9486 9486 14
Width: 1024
Flags: W
LayerCount: 2
Fore
SplineSet
619 463 m 1,0,-1
 619 -440 l 1,1,-1
 405 -440 l 1,2,-1
 405 597 l 1,3,-1
 1034 597 l 1,4,-1
 1034 463 l 1,5,-1
 619 463 l 1,0,-1
EndSplineSet
EndChar

StartChar: uni250F
Encoding: 9487 9487 15
Width: 1024
Flags: W
LayerCount: 2
Fore
SplineSet
619 423 m 1,0,-1
 619 -440 l 1,1,-1
 405 -440 l 1,2,-1
 405 637 l 1,3,-1
 1034 637 l 1,4,-1
 1034 423 l 1,5,-1
 619 423 l 1,0,-1
EndSplineSet
EndChar

StartChar: SF030000
Encoding: 9488 9488 16
Width: 1024
Flags: W
LayerCount: 2
Fore
SplineSet
-10 463 m 1,0,-1
 -10 597 l 1,1,-1
 579 597 l 1,2,-1
 579 -440 l 1,3,-1
 445 -440 l 1,4,-1
 445 463 l 1,5,-1
 -10 463 l 1,0,-1
EndSplineSet
EndChar

StartChar: uni2511
Encoding: 9489 9489 17
Width: 1024
Flags: W
LayerCount: 2
Fore
SplineSet
-10 423 m 1,0,-1
 -10 637 l 1,1,-1
 579 637 l 1,2,-1
 579 -440 l 1,3,-1
 445 -440 l 1,4,-1
 445 423 l 1,5,-1
 -10 423 l 1,0,-1
EndSplineSet
EndChar

StartChar: uni2512
Encoding: 9490 9490 18
Width: 1024
Flags: W
LayerCount: 2
Fore
SplineSet
-10 463 m 1,0,-1
 -10 597 l 1,1,-1
 619 597 l 1,2,-1
 619 -440 l 1,3,-1
 405 -440 l 1,4,-1
 405 463 l 1,5,-1
 -10 463 l 1,0,-1
EndSplineSet
EndChar

StartChar: uni2513
Encoding: 9491 9491 19
Width: 1024
Flags: W
LayerCount: 2
Fore
SplineSet
-10 423 m 1,0,-1
 -10 637 l 1,1,-1
 619 637 l 1,2,-1
 619 -440 l 1,3,-1
 405 -440 l 1,4,-1
 405 423 l 1,5,-1
 -10 423 l 1,0,-1
EndSplineSet
EndChar

StartChar: SF020000
Encoding: 9492 9492 20
Width: 1024
Flags: W
LayerCount: 2
Fore
SplineSet
445 1501 m 1,0,-1
 579 1501 l 1,1,-1
 579 597 l 1,2,-1
 1034 597 l 1,3,-1
 1034 463 l 1,4,-1
 445 463 l 1,5,-1
 445 1501 l 1,0,-1
EndSplineSet
EndChar

StartChar: uni2515
Encoding: 9493 9493 21
Width: 1024
Flags: W
LayerCount: 2
Fore
SplineSet
445 1501 m 1,0,-1
 579 1501 l 1,1,-1
 579 637 l 1,2,-1
 1034 637 l 1,3,-1
 1034 423 l 1,4,-1
 445 423 l 1,5,-1
 445 1501 l 1,0,-1
EndSplineSet
EndChar

StartChar: uni2516
Encoding: 9494 9494 22
Width: 1024
Flags: W
LayerCount: 2
Fore
SplineSet
405 1501 m 1,0,-1
 619 1501 l 1,1,-1
 619 597 l 1,2,-1
 1034 597 l 1,3,-1
 1034 463 l 1,4,-1
 405 463 l 1,5,-1
 405 1501 l 1,0,-1
EndSplineSet
EndChar

StartChar: uni2517
Encoding: 9495 9495 23
Width: 1024
Flags: W
LayerCount: 2
Fore
SplineSet
405 1501 m 1,0,-1
 619 1501 l 1,1,-1
 619 637 l 1,2,-1
 1034 637 l 1,3,-1
 1034 423 l 1,4,-1
 405 423 l 1,5,-1
 405 1501 l 1,0,-1
EndSplineSet
EndChar

StartChar: SF040000
Encoding: 9496 9496 24
Width: 1024
Flags: W
LayerCount: 2
Fore
SplineSet
579 463 m 1,0,-1
 -10 463 l 1,1,-1
 -10 597 l 1,2,-1
 445 597 l 1,3,-1
 445 1501 l 1,4,-1
 579 1501 l 1,5,-1
 579 463 l 1,0,-1
EndSplineSet
EndChar

StartChar: uni2519
Encoding: 9497 9497 25
Width: 1024
Flags: W
LayerCount: 2
Fore
SplineSet
579 423 m 1,0,-1
 -10 423 l 1,1,-1
 -10 637 l 1,2,-1
 445 637 l 1,3,-1
 445 1501 l 1,4,-1
 579 1501 l 1,5,-1
 579 423 l 1,0,-1
EndSplineSet
EndChar

StartChar: uni251A
Encoding: 9498 9498 26
Width: 1024
Flags: W
LayerCount: 2
Fore
SplineSet
619 463 m 1,0,-1
 -10 463 l 1,1,-1
 -10 597 l 1,2,-1
 405 597 l 1,3,-1
 405 1501 l 1,4,-1
 619 1501 l 1,5,-1
 619 463 l 1,0,-1
EndSplineSet
EndChar

StartChar: uni251B
Encoding: 9499 9499 27
Width: 1024
Flags: W
LayerCount: 2
Fore
SplineSet
619 423 m 1,0,-1
 -10 423 l 1,1,-1
 -10 637 l 1,2,-1
 405 637 l 1,3,-1
 405 1501 l 1,4,-1
 619 1501 l 1,5,-1
 619 423 l 1,0,-1
EndSplineSet
EndChar

StartChar: SF080000
Encoding: 9500 9500 28
Width: 1024
Flags: W
LayerCount: 2
Fore
SplineSet
579 463 m 1,0,-1
 579 -440 l 1,1,-1
 445 -440 l 1,2,-1
 445 1501 l 1,3,-1
 579 1501 l 1,4,-1
 579 597 l 1,5,-1
 1034 597 l 1,6,-1
 1034 463 l 1,7,-1
 579 463 l 1,0,-1
EndSplineSet
EndChar

StartChar: uni251D
Encoding: 9501 9501 29
Width: 1024
Flags: W
LayerCount: 2
Fore
SplineSet
579 423 m 1,0,-1
 579 -440 l 1,1,-1
 445 -440 l 1,2,-1
 445 1501 l 1,3,-1
 579 1501 l 1,4,-1
 579 637 l 1,5,-1
 1034 637 l 1,6,-1
 1034 423 l 1,7,-1
 579 423 l 1,0,-1
EndSplineSet
EndChar

StartChar: uni251E
Encoding: 9502 9502 30
Width: 1024
Flags: W
LayerCount: 2
Fore
SplineSet
579 463 m 1,0,-1
 579 -440 l 1,1,-1
 445 -440 l 1,2,-1
 445 463 l 1,3,-1
 405 463 l 1,4,-1
 405 1501 l 1,5,-1
 619 1501 l 1,6,-1
 619 597 l 1,7,-1
 1034 597 l 1,8,-1
 1034 463 l 1,9,-1
 579 463 l 1,0,-1
EndSplineSet
EndChar

StartChar: uni251F
Encoding: 9503 9503 31
Width: 1024
Flags: W
LayerCount: 2
Fore
SplineSet
619 463 m 1,0,-1
 619 -440 l 1,1,-1
 405 -440 l 1,2,-1
 405 597 l 1,3,-1
 445 597 l 1,4,-1
 445 1501 l 1,5,-1
 579 1501 l 1,6,-1
 579 597 l 1,7,-1
 1034 597 l 1,8,-1
 1034 463 l 1,9,-1
 619 463 l 1,0,-1
EndSplineSet
EndChar

StartChar: uni2520
Encoding: 9504 9504 32
Width: 1024
Flags: W
LayerCount: 2
Fore
SplineSet
619 463 m 1,0,-1
 619 -440 l 1,1,-1
 405 -440 l 1,2,-1
 405 1501 l 1,3,-1
 619 1501 l 1,4,-1
 619 597 l 1,5,-1
 1034 597 l 1,6,-1
 1034 463 l 1,7,-1
 619 463 l 1,0,-1
EndSplineSet
EndChar

StartChar: uni2521
Encoding: 9505 9505 33
Width: 1024
Flags: W
LayerCount: 2
Fore
SplineSet
579 423 m 1,0,-1
 579 -438 l 1,1,-1
 445 -438 l 1,2,-1
 445 423 l 1,3,-1
 405 423 l 1,4,-1
 405 1501 l 1,5,-1
 619 1501 l 1,6,-1
 619 637 l 1,7,-1
 1034 637 l 1,8,-1
 1034 423 l 1,9,-1
 579 423 l 1,0,-1
EndSplineSet
EndChar

StartChar: uni2522
Encoding: 9506 9506 34
Width: 1024
Flags: W
LayerCount: 2
Fore
SplineSet
405 637 m 1,0,-1
 445 637 l 1,1,-1
 445 1501 l 1,2,-1
 579 1501 l 1,3,-1
 579 637 l 1,4,-1
 1034 637 l 1,5,-1
 1034 423 l 1,6,-1
 619 423 l 1,7,-1
 619 -441 l 1,8,-1
 405 -441 l 1,9,-1
 405 637 l 1,0,-1
EndSplineSet
EndChar

StartChar: uni2523
Encoding: 9507 9507 35
Width: 1024
Flags: W
LayerCount: 2
Fore
SplineSet
1034 637 m 1,0,-1
 1034 423 l 1,1,-1
 619 423 l 1,2,-1
 619 -441 l 1,3,-1
 405 -441 l 1,4,-1
 405 1501 l 1,5,-1
 619 1501 l 1,6,-1
 619 637 l 1,7,-1
 1034 637 l 1,0,-1
EndSplineSet
EndChar

StartChar: SF090000
Encoding: 9508 9508 36
Width: 1024
Flags: W
LayerCount: 2
Fore
SplineSet
445 463 m 1,0,-1
 -10 463 l 1,1,-1
 -10 597 l 1,2,-1
 445 597 l 1,3,-1
 445 1501 l 1,4,-1
 579 1501 l 1,5,-1
 579 -440 l 1,6,-1
 445 -440 l 1,7,-1
 445 463 l 1,0,-1
EndSplineSet
EndChar

StartChar: uni2525
Encoding: 9509 9509 37
Width: 1024
Flags: W
LayerCount: 2
Fore
SplineSet
445 423 m 1,0,-1
 -10 423 l 1,1,-1
 -10 637 l 1,2,-1
 445 637 l 1,3,-1
 445 1501 l 1,4,-1
 579 1501 l 1,5,-1
 579 -440 l 1,6,-1
 445 -440 l 1,7,-1
 445 423 l 1,0,-1
EndSplineSet
EndChar

StartChar: uni2526
Encoding: 9510 9510 38
Width: 1024
Flags: W
LayerCount: 2
Fore
SplineSet
579 463 m 1,0,-1
 579 -440 l 1,1,-1
 445 -440 l 1,2,-1
 445 463 l 1,3,-1
 -10 463 l 1,4,-1
 -10 597 l 1,5,-1
 405 597 l 1,6,-1
 405 1501 l 1,7,-1
 619 1501 l 1,8,-1
 619 463 l 1,9,-1
 579 463 l 1,0,-1
EndSplineSet
EndChar

StartChar: uni2527
Encoding: 9511 9511 39
Width: 1024
Flags: W
LayerCount: 2
Fore
SplineSet
619 597 m 1,0,-1
 619 -440 l 1,1,-1
 405 -440 l 1,2,-1
 405 463 l 1,3,-1
 -10 463 l 1,4,-1
 -10 597 l 1,5,-1
 445 597 l 1,6,-1
 445 1501 l 1,7,-1
 579 1501 l 1,8,-1
 579 597 l 1,9,-1
 619 597 l 1,0,-1
EndSplineSet
EndChar

StartChar: uni2528
Encoding: 9512 9512 40
Width: 1024
Flags: W
LayerCount: 2
Fore
SplineSet
405 463 m 1,0,-1
 -10 463 l 1,1,-1
 -10 597 l 1,2,-1
 405 597 l 1,3,-1
 405 1501 l 1,4,-1
 619 1501 l 1,5,-1
 619 -440 l 1,6,-1
 405 -440 l 1,7,-1
 405 463 l 1,0,-1
EndSplineSet
EndChar

StartChar: uni2529
Encoding: 9513 9513 41
Width: 1024
Flags: W
LayerCount: 2
Fore
SplineSet
405 1501 m 1,0,-1
 619 1501 l 1,1,-1
 619 423 l 1,2,-1
 579 423 l 1,3,-1
 579 -440 l 1,4,-1
 445 -440 l 1,5,-1
 445 423 l 1,6,-1
 -10 423 l 1,7,-1
 -10 637 l 1,8,-1
 405 637 l 1,9,-1
 405 1501 l 1,0,-1
EndSplineSet
EndChar

StartChar: uni252A
Encoding: 9514 9514 42
Width: 1024
Flags: W
LayerCount: 2
Fore
SplineSet
405 423 m 1,0,-1
 -10 423 l 1,1,-1
 -10 637 l 1,2,-1
 445 637 l 1,3,-1
 445 1501 l 1,4,-1
 579 1501 l 1,5,-1
 579 637 l 1,6,-1
 619 637 l 1,7,-1
 619 -440 l 1,8,-1
 405 -440 l 1,9,-1
 405 423 l 1,0,-1
EndSplineSet
EndChar

StartChar: uni252B
Encoding: 9515 9515 43
Width: 1024
Flags: W
LayerCount: 2
Fore
SplineSet
405 423 m 1,0,-1
 -10 423 l 1,1,-1
 -10 637 l 1,2,-1
 405 637 l 1,3,-1
 405 1501 l 1,4,-1
 619 1501 l 1,5,-1
 619 -440 l 1,6,-1
 405 -440 l 1,7,-1
 405 423 l 1,0,-1
EndSplineSet
EndChar

StartChar: SF060000
Encoding: 9516 9516 44
Width: 1024
Flags: W
LayerCount: 2
Fore
SplineSet
579 463 m 1,0,-1
 579 -440 l 1,1,-1
 445 -440 l 1,2,-1
 445 463 l 1,3,-1
 -10 463 l 1,4,-1
 -10 597 l 1,5,-1
 1034 597 l 1,6,-1
 1034 463 l 1,7,-1
 579 463 l 1,0,-1
EndSplineSet
EndChar

StartChar: uni252D
Encoding: 9517 9517 45
Width: 1024
Flags: W
LayerCount: 2
Fore
SplineSet
579 463 m 1,0,-1
 579 -440 l 1,1,-1
 445 -440 l 1,2,-1
 445 423 l 1,3,-1
 -10 423 l 1,4,-1
 -10 637 l 1,5,-1
 579 637 l 1,6,-1
 579 597 l 1,7,-1
 1034 597 l 1,8,-1
 1034 463 l 1,9,-1
 579 463 l 1,0,-1
EndSplineSet
EndChar

StartChar: uni252E
Encoding: 9518 9518 46
Width: 1024
Flags: W
LayerCount: 2
Fore
SplineSet
-10 463 m 1,0,-1
 -10 597 l 1,1,-1
 445 597 l 1,2,-1
 445 637 l 1,3,-1
 1034 637 l 1,4,-1
 1034 423 l 1,5,-1
 579 423 l 1,6,-1
 579 -440 l 1,7,-1
 445 -440 l 1,8,-1
 445 463 l 1,9,-1
 -10 463 l 1,0,-1
EndSplineSet
EndChar

StartChar: uni252F
Encoding: 9519 9519 47
Width: 1024
Flags: W
LayerCount: 2
Fore
SplineSet
579 423 m 1,0,-1
 579 -440 l 1,1,-1
 445 -440 l 1,2,-1
 445 423 l 1,3,-1
 -10 423 l 1,4,-1
 -10 637 l 1,5,-1
 1034 637 l 1,6,-1
 1034 423 l 1,7,-1
 579 423 l 1,0,-1
EndSplineSet
EndChar

StartChar: uni2530
Encoding: 9520 9520 48
Width: 1024
Flags: W
LayerCount: 2
Fore
SplineSet
619 463 m 1,0,-1
 619 -440 l 1,1,-1
 405 -440 l 1,2,-1
 405 463 l 1,3,-1
 -10 463 l 1,4,-1
 -10 597 l 1,5,-1
 1034 597 l 1,6,-1
 1034 463 l 1,7,-1
 619 463 l 1,0,-1
EndSplineSet
EndChar

StartChar: uni2531
Encoding: 9521 9521 49
Width: 1024
Flags: W
LayerCount: 2
Fore
SplineSet
619 463 m 1,0,-1
 619 -440 l 1,1,-1
 405 -440 l 1,2,-1
 405 423 l 1,3,-1
 -10 423 l 1,4,-1
 -10 637 l 1,5,-1
 619 637 l 1,6,-1
 619 597 l 1,7,-1
 1034 597 l 1,8,-1
 1034 463 l 1,9,-1
 619 463 l 1,0,-1
EndSplineSet
EndChar

StartChar: uni2532
Encoding: 9522 9522 50
Width: 1024
Flags: W
LayerCount: 2
Fore
SplineSet
-10 463 m 1,0,-1
 -10 597 l 1,1,-1
 405 597 l 1,2,-1
 405 637 l 1,3,-1
 1034 637 l 1,4,-1
 1034 423 l 1,5,-1
 619 423 l 1,6,-1
 619 -440 l 1,7,-1
 405 -440 l 1,8,-1
 405 463 l 1,9,-1
 -10 463 l 1,0,-1
EndSplineSet
EndChar

StartChar: uni2533
Encoding: 9523 9523 51
Width: 1024
Flags: W
LayerCount: 2
Fore
SplineSet
619 423 m 1,0,-1
 619 -440 l 1,1,-1
 405 -440 l 1,2,-1
 405 423 l 1,3,-1
 -10 423 l 1,4,-1
 -10 637 l 1,5,-1
 1034 637 l 1,6,-1
 1034 423 l 1,7,-1
 619 423 l 1,0,-1
EndSplineSet
EndChar

StartChar: SF070000
Encoding: 9524 9524 52
Width: 1024
Flags: W
LayerCount: 2
Fore
SplineSet
-10 463 m 1,0,-1
 -10 597 l 1,1,-1
 445 597 l 1,2,-1
 445 1501 l 1,3,-1
 579 1501 l 1,4,-1
 579 597 l 1,5,-1
 1034 597 l 1,6,-1
 1034 463 l 1,7,-1
 -10 463 l 1,0,-1
EndSplineSet
EndChar

StartChar: uni2535
Encoding: 9525 9525 53
Width: 1024
Flags: W
LayerCount: 2
Fore
SplineSet
-10 423 m 1,0,-1
 -10 637 l 1,1,-1
 445 637 l 1,2,-1
 445 1501 l 1,3,-1
 579 1501 l 1,4,-1
 579 597 l 1,5,-1
 1034 597 l 1,6,-1
 1034 463 l 1,7,-1
 579 463 l 1,8,-1
 579 423 l 1,9,-1
 -10 423 l 1,0,-1
EndSplineSet
EndChar

StartChar: uni2536
Encoding: 9526 9526 54
Width: 1024
Flags: W
LayerCount: 2
Fore
SplineSet
445 423 m 1,0,-1
 445 463 l 1,1,-1
 -10 463 l 1,2,-1
 -10 597 l 1,3,-1
 445 597 l 1,4,-1
 445 1501 l 1,5,-1
 579 1501 l 1,6,-1
 579 637 l 1,7,-1
 1034 637 l 1,8,-1
 1034 423 l 1,9,-1
 445 423 l 1,0,-1
EndSplineSet
EndChar

StartChar: uni2537
Encoding: 9527 9527 55
Width: 1024
Flags: W
LayerCount: 2
Fore
SplineSet
-10 423 m 1,0,-1
 -10 637 l 1,1,-1
 445 637 l 1,2,-1
 445 1501 l 1,3,-1
 579 1501 l 1,4,-1
 579 637 l 1,5,-1
 1034 637 l 1,6,-1
 1034 423 l 1,7,-1
 -10 423 l 1,0,-1
EndSplineSet
EndChar

StartChar: uni2538
Encoding: 9528 9528 56
Width: 1024
Flags: W
LayerCount: 2
Fore
SplineSet
-10 463 m 1,0,-1
 -10 597 l 1,1,-1
 405 597 l 1,2,-1
 405 1501 l 1,3,-1
 619 1501 l 1,4,-1
 619 597 l 1,5,-1
 1034 597 l 1,6,-1
 1034 463 l 1,7,-1
 -10 463 l 1,0,-1
EndSplineSet
EndChar

StartChar: uni2539
Encoding: 9529 9529 57
Width: 1024
Flags: W
LayerCount: 2
Fore
SplineSet
-10 423 m 1,0,-1
 -10 637 l 1,1,-1
 405 637 l 1,2,-1
 405 1501 l 1,3,-1
 619 1501 l 1,4,-1
 619 597 l 1,5,-1
 1034 597 l 1,6,-1
 1034 463 l 1,7,-1
 619 463 l 1,8,-1
 619 423 l 1,9,-1
 -10 423 l 1,0,-1
EndSplineSet
EndChar

StartChar: uni253A
Encoding: 9530 9530 58
Width: 1024
Flags: W
LayerCount: 2
Fore
SplineSet
405 423 m 1,0,-1
 405 463 l 1,1,-1
 -10 463 l 1,2,-1
 -10 597 l 1,3,-1
 405 597 l 1,4,-1
 405 1501 l 1,5,-1
 619 1501 l 1,6,-1
 619 637 l 1,7,-1
 1034 637 l 1,8,-1
 1034 423 l 1,9,-1
 405 423 l 1,0,-1
EndSplineSet
EndChar

StartChar: uni253B
Encoding: 9531 9531 59
Width: 1024
Flags: W
LayerCount: 2
Fore
SplineSet
-10 423 m 1,0,-1
 -10 637 l 1,1,-1
 405 637 l 1,2,-1
 405 1501 l 1,3,-1
 619 1501 l 1,4,-1
 619 637 l 1,5,-1
 1034 637 l 1,6,-1
 1034 423 l 1,7,-1
 -10 423 l 1,0,-1
EndSplineSet
EndChar

StartChar: SF050000
Encoding: 9532 9532 60
Width: 1024
Flags: W
LayerCount: 2
Fore
SplineSet
579 463 m 1,0,-1
 579 -440 l 1,1,-1
 445 -440 l 1,2,-1
 445 463 l 1,3,-1
 -10 463 l 1,4,-1
 -10 597 l 1,5,-1
 445 597 l 1,6,-1
 445 1501 l 1,7,-1
 579 1501 l 1,8,-1
 579 597 l 1,9,-1
 1034 597 l 1,10,-1
 1034 463 l 1,11,-1
 579 463 l 1,0,-1
EndSplineSet
EndChar

StartChar: uni253D
Encoding: 9533 9533 61
Width: 1024
Flags: W
LayerCount: 2
Fore
SplineSet
445 423 m 1,0,-1
 -10 423 l 1,1,-1
 -10 637 l 1,2,-1
 445 637 l 1,3,-1
 445 1501 l 1,4,-1
 579 1501 l 1,5,-1
 579 597 l 1,6,-1
 1034 597 l 1,7,-1
 1034 463 l 1,8,-1
 579 463 l 1,9,-1
 579 -440 l 1,10,-1
 445 -440 l 1,11,-1
 445 423 l 1,0,-1
EndSplineSet
EndChar

StartChar: uni253E
Encoding: 9534 9534 62
Width: 1024
Flags: W
LayerCount: 2
Fore
SplineSet
579 -440 m 1,0,-1
 445 -440 l 1,1,-1
 445 463 l 1,2,-1
 -10 463 l 1,3,-1
 -10 597 l 1,4,-1
 445 597 l 1,5,-1
 445 1501 l 1,6,-1
 579 1501 l 1,7,-1
 579 637 l 1,8,-1
 1034 637 l 1,9,-1
 1034 423 l 1,10,-1
 579 423 l 1,11,-1
 579 -440 l 1,0,-1
EndSplineSet
EndChar

StartChar: uni253F
Encoding: 9535 9535 63
Width: 1024
Flags: W
LayerCount: 2
Fore
SplineSet
579 423 m 1,0,-1
 579 -440 l 1,1,-1
 445 -440 l 1,2,-1
 445 423 l 1,3,-1
 -10 423 l 1,4,-1
 -10 637 l 1,5,-1
 445 637 l 1,6,-1
 445 1501 l 1,7,-1
 579 1501 l 1,8,-1
 579 637 l 1,9,-1
 1034 637 l 1,10,-1
 1034 423 l 1,11,-1
 579 423 l 1,0,-1
EndSplineSet
EndChar

StartChar: uni2540
Encoding: 9536 9536 64
Width: 1024
Flags: W
LayerCount: 2
Fore
SplineSet
445 463 m 1,0,-1
 -10 463 l 1,1,-1
 -10 597 l 1,2,-1
 405 597 l 1,3,-1
 405 1501 l 1,4,-1
 619 1501 l 1,5,-1
 619 597 l 1,6,-1
 1034 597 l 1,7,-1
 1034 463 l 1,8,-1
 579 463 l 1,9,-1
 579 -440 l 1,10,-1
 445 -440 l 1,11,-1
 445 463 l 1,0,-1
EndSplineSet
EndChar

StartChar: uni2541
Encoding: 9537 9537 65
Width: 1024
Flags: W
LayerCount: 2
Fore
SplineSet
405 463 m 1,0,-1
 -10 463 l 1,1,-1
 -10 597 l 1,2,-1
 445 597 l 1,3,-1
 445 1501 l 1,4,-1
 579 1501 l 1,5,-1
 579 597 l 1,6,-1
 1034 597 l 1,7,-1
 1034 463 l 1,8,-1
 619 463 l 1,9,-1
 619 -440 l 1,10,-1
 405 -440 l 1,11,-1
 405 463 l 1,0,-1
EndSplineSet
EndChar

StartChar: uni2542
Encoding: 9538 9538 66
Width: 1024
Flags: W
LayerCount: 2
Fore
SplineSet
405 463 m 1,0,-1
 -10 463 l 1,1,-1
 -10 597 l 1,2,-1
 405 597 l 1,3,-1
 405 1501 l 1,4,-1
 619 1501 l 1,5,-1
 619 597 l 1,6,-1
 1034 597 l 1,7,-1
 1034 463 l 1,8,-1
 619 463 l 1,9,-1
 619 -440 l 1,10,-1
 405 -440 l 1,11,-1
 405 463 l 1,0,-1
EndSplineSet
EndChar

StartChar: uni2543
Encoding: 9539 9539 67
Width: 1024
Flags: W
LayerCount: 2
Fore
SplineSet
445 423 m 1,0,-1
 -10 423 l 1,1,-1
 -10 637 l 1,2,-1
 405 637 l 1,3,-1
 405 1501 l 1,4,-1
 619 1501 l 1,5,-1
 619 597 l 1,6,-1
 1034 597 l 1,7,-1
 1034 463 l 1,8,-1
 619 463 l 1,9,-1
 619 423 l 1,10,-1
 579 423 l 1,11,-1
 579 -440 l 1,12,-1
 445 -440 l 1,13,-1
 445 423 l 1,0,-1
EndSplineSet
EndChar

StartChar: uni2544
Encoding: 9540 9540 68
Width: 1024
Flags: W
LayerCount: 2
Fore
SplineSet
579 -440 m 1,0,-1
 445 -440 l 1,1,-1
 445 423 l 1,2,-1
 405 423 l 1,3,-1
 405 463 l 1,4,-1
 -10 463 l 1,5,-1
 -10 597 l 1,6,-1
 405 597 l 1,7,-1
 405 1501 l 1,8,-1
 619 1501 l 1,9,-1
 619 637 l 1,10,-1
 1034 637 l 1,11,-1
 1034 423 l 1,12,-1
 579 423 l 1,13,-1
 579 -440 l 1,0,-1
EndSplineSet
EndChar

StartChar: uni2545
Encoding: 9541 9541 69
Width: 1024
Flags: W
LayerCount: 2
Fore
SplineSet
405 -440 m 1,0,-1
 405 423 l 1,1,-1
 -10 423 l 1,2,-1
 -10 637 l 1,3,-1
 445 637 l 1,4,-1
 445 1501 l 1,5,-1
 579 1501 l 1,6,-1
 579 637 l 1,7,-1
 619 637 l 1,8,-1
 619 597 l 1,9,-1
 1034 597 l 1,10,-1
 1034 463 l 1,11,-1
 619 463 l 1,12,-1
 619 -440 l 1,13,-1
 405 -440 l 1,0,-1
EndSplineSet
EndChar

StartChar: uni2546
Encoding: 9542 9542 70
Width: 1024
Flags: W
LayerCount: 2
Fore
SplineSet
405 -440 m 1,0,-1
 405 423 l 1,1,-1
 -10 423 l 1,2,-1
 -10 637 l 1,3,-1
 445 637 l 1,4,-1
 445 1501 l 1,5,-1
 579 1501 l 1,6,-1
 579 637 l 1,7,-1
 619 637 l 1,8,-1
 619 597 l 1,9,-1
 1034 597 l 1,10,-1
 1034 463 l 1,11,-1
 619 463 l 1,12,-1
 619 -440 l 1,13,-1
 405 -440 l 1,0,-1
EndSplineSet
EndChar

StartChar: uni2547
Encoding: 9543 9543 71
Width: 1024
Flags: W
LayerCount: 2
Fore
SplineSet
579 -440 m 1,0,-1
 445 -440 l 1,1,-1
 445 423 l 1,2,-1
 -10 423 l 1,3,-1
 -10 637 l 1,4,-1
 405 637 l 1,5,-1
 405 1501 l 1,6,-1
 619 1501 l 1,7,-1
 619 637 l 1,8,-1
 1034 637 l 1,9,-1
 1034 423 l 1,10,-1
 579 423 l 1,11,-1
 579 -440 l 1,0,-1
EndSplineSet
EndChar

StartChar: uni2548
Encoding: 9544 9544 72
Width: 1024
Flags: W
LayerCount: 2
Fore
SplineSet
579 637 m 1,0,-1
 1034 637 l 1,1,-1
 1034 423 l 1,2,-1
 619 423 l 1,3,-1
 619 -440 l 1,4,-1
 405 -440 l 1,5,-1
 405 423 l 1,6,-1
 -10 423 l 1,7,-1
 -10 637 l 1,8,-1
 445 637 l 1,9,-1
 445 1501 l 1,10,-1
 579 1501 l 1,11,-1
 579 637 l 1,0,-1
EndSplineSet
EndChar

StartChar: uni2549
Encoding: 9545 9545 73
Width: 1024
Flags: W
LayerCount: 2
Fore
SplineSet
405 423 m 1,0,-1
 -10 423 l 1,1,-1
 -10 637 l 1,2,-1
 405 637 l 1,3,-1
 405 1501 l 1,4,-1
 619 1501 l 1,5,-1
 619 597 l 1,6,-1
 1034 597 l 1,7,-1
 1034 463 l 1,8,-1
 619 463 l 1,9,-1
 619 -440 l 1,10,-1
 405 -440 l 1,11,-1
 405 423 l 1,0,-1
EndSplineSet
EndChar

StartChar: uni254A
Encoding: 9546 9546 74
Width: 1024
Flags: W
LayerCount: 2
Fore
SplineSet
405 -440 m 1,0,-1
 405 463 l 1,1,-1
 -10 463 l 1,2,-1
 -10 597 l 1,3,-1
 405 597 l 1,4,-1
 405 1501 l 1,5,-1
 619 1501 l 1,6,-1
 619 637 l 1,7,-1
 1034 637 l 1,8,-1
 1034 423 l 1,9,-1
 619 423 l 1,10,-1
 619 -440 l 1,11,-1
 405 -440 l 1,0,-1
EndSplineSet
EndChar

StartChar: uni254B
Encoding: 9547 9547 75
Width: 1024
Flags: W
LayerCount: 2
Fore
SplineSet
619 423 m 1,0,-1
 619 -440 l 1,1,-1
 405 -440 l 1,2,-1
 405 423 l 1,3,-1
 -10 423 l 1,4,-1
 -10 637 l 1,5,-1
 405 637 l 1,6,-1
 405 1501 l 1,7,-1
 619 1501 l 1,8,-1
 619 637 l 1,9,-1
 1034 637 l 1,10,-1
 1034 423 l 1,11,-1
 619 423 l 1,0,-1
EndSplineSet
EndChar

StartChar: uni2581
Encoding: 9601 9601 76
Width: 1921
Flags: W
LayerCount: 2
Fore
SplineSet
-10 -180 m 1,0,-1
 1931 -180 l 1,1,-1
 1931 -440 l 1,2,-1
 -10 -440 l 1,3,-1
 -10 -180 l 1,0,-1
EndSplineSet
EndChar

StartChar: uni2582
Encoding: 9602 9602 77
Width: 1921
Flags: W
LayerCount: 2
Fore
SplineSet
-10 45 m 1,0,-1
 1931 45 l 1,1,-1
 1931 -440 l 1,2,-1
 -10 -440 l 1,3,-1
 -10 45 l 1,0,-1
EndSplineSet
EndChar

StartChar: uni2583
Encoding: 9603 9603 78
Width: 1921
Flags: W
LayerCount: 2
Fore
SplineSet
-10 288 m 1,0,-1
 1931 288 l 1,1,-1
 1931 -440 l 1,2,-1
 -10 -440 l 1,3,-1
 -10 288 l 1,0,-1
EndSplineSet
EndChar

StartChar: dnblock
Encoding: 9604 9604 79
Width: 1921
Flags: W
LayerCount: 2
Fore
SplineSet
-10 530 m 1,0,-1
 1931 530 l 1,1,-1
 1931 -440 l 1,2,-1
 -10 -440 l 1,3,-1
 -10 530 l 1,0,-1
EndSplineSet
EndChar

StartChar: uni2585
Encoding: 9605 9605 80
Width: 1921
Flags: W
LayerCount: 2
Fore
SplineSet
-10 773 m 1,0,-1
 1931 773 l 1,1,-1
 1931 -440 l 1,2,-1
 -10 -440 l 1,3,-1
 -10 773 l 1,0,-1
EndSplineSet
EndChar

StartChar: uni2586
Encoding: 9606 9606 81
Width: 1921
Flags: W
LayerCount: 2
Fore
SplineSet
-10 1016 m 1,0,-1
 1931 1016 l 1,1,-1
 1931 -440 l 1,2,-1
 -10 -440 l 1,3,-1
 -10 1016 l 1,0,-1
EndSplineSet
EndChar

StartChar: uni2587
Encoding: 9607 9607 82
Width: 1921
Flags: W
LayerCount: 2
Fore
SplineSet
-10 1258 m 1,0,-1
 1931 1258 l 1,1,-1
 1931 -440 l 1,2,-1
 -10 -440 l 1,3,-1
 -10 1258 l 1,0,-1
EndSplineSet
EndChar

StartChar: block
Encoding: 9608 9608 83
Width: 1921
Flags: W
LayerCount: 2
Fore
SplineSet
-10 1501 m 1,0,-1
 1931 1501 l 1,1,-1
 1931 -440 l 1,2,-1
 -10 -440 l 1,3,-1
 -10 1501 l 1,0,-1
EndSplineSet
EndChar

StartChar: uni2589
Encoding: 9609 9609 84
Width: 1678
Flags: W
LayerCount: 2
Fore
SplineSet
-10 1501 m 1,0,-1
 1688 1501 l 1,1,-1
 1688 -440 l 1,2,-1
 -10 -440 l 1,3,-1
 -10 1501 l 1,0,-1
EndSplineSet
EndChar

StartChar: uni258A
Encoding: 9610 9610 85
Width: 1436
Flags: W
LayerCount: 2
Fore
SplineSet
-10 1501 m 1,0,-1
 1446 1501 l 1,1,-1
 1446 -440 l 1,2,-1
 -10 -440 l 1,3,-1
 -10 1501 l 1,0,-1
EndSplineSet
EndChar

StartChar: uni258B
Encoding: 9611 9611 86
Width: 1193
Flags: W
LayerCount: 2
Fore
SplineSet
-10 1501 m 1,0,-1
 1203 1501 l 1,1,-1
 1203 -440 l 1,2,-1
 -10 -440 l 1,3,-1
 -10 1501 l 1,0,-1
EndSplineSet
EndChar

StartChar: lfblock
Encoding: 9612 9612 87
Width: 950
Flags: W
LayerCount: 2
Fore
SplineSet
-10 1501 m 1,0,-1
 960 1501 l 1,1,-1
 960 -440 l 1,2,-1
 -10 -440 l 1,3,-1
 -10 1501 l 1,0,-1
EndSplineSet
EndChar

StartChar: uni258D
Encoding: 9613 9613 88
Width: 708
Flags: W
LayerCount: 2
Fore
SplineSet
-10 1501 m 1,0,-1
 718 1501 l 1,1,-1
 718 -440 l 1,2,-1
 -10 -440 l 1,3,-1
 -10 1501 l 1,0,-1
EndSplineSet
EndChar

StartChar: uni258E
Encoding: 9614 9614 89
Width: 465
Flags: W
LayerCount: 2
Fore
SplineSet
-10 1501 m 1,0,-1
 475 1501 l 1,1,-1
 475 -440 l 1,2,-1
 -10 -440 l 1,3,-1
 -10 1501 l 1,0,-1
EndSplineSet
EndChar

StartChar: uni258F
Encoding: 9615 9615 90
Width: 223
Flags: W
LayerCount: 2
Fore
SplineSet
-10 1501 m 1,0,-1
 233 1501 l 1,1,-1
 233 -440 l 1,2,-1
 -10 -440 l 1,3,-1
 -10 1501 l 1,0,-1
EndSplineSet
EndChar

StartChar: uni2669
Encoding: 9833 9833 91
Width: 803
Flags: W
LayerCount: 2
Fore
SplineSet
144 169 m 0,0,1
 144 225 144 225 167 273.5 c 128,-1,2
 190 322 190 322 229.5 357.5 c 128,-1,3
 269 393 269 393 321 413.5 c 128,-1,4
 373 434 373 434 431 434 c 0,5,6
 476 434 476 434 512 423 c 1,7,-1
 512 1434 l 1,8,-1
 615 1434 l 1,9,-1
 615 289 l 2,10,11
 615 226 615 226 595.5 169 c 128,-1,12
 576 112 576 112 541 69 c 128,-1,13
 506 26 506 26 457 0.5 c 128,-1,14
 408 -25 408 -25 349 -25 c 0,15,16
 250 -25 250 -25 197 27 c 128,-1,17
 144 79 144 79 144 169 c 0,0,1
EndSplineSet
EndChar

StartChar: musicalnote
Encoding: 9834 9834 92
Width: 1087
Flags: W
LayerCount: 2
Fore
SplineSet
144 169 m 0,0,1
 144 225 144 225 167 273.5 c 128,-1,2
 190 322 190 322 229.5 357.5 c 128,-1,3
 269 393 269 393 321 413.5 c 128,-1,4
 373 434 373 434 431 434 c 0,5,6
 476 434 476 434 512 423 c 1,7,-1
 512 1434 l 1,8,-1
 615 1434 l 1,9,-1
 615 1407 l 2,10,11
 615 1383 615 1383 623 1364 c 128,-1,12
 631 1345 631 1345 651 1324.5 c 128,-1,13
 671 1304 671 1304 704 1279 c 128,-1,14
 737 1254 737 1254 787 1220 c 0,15,16
 835 1187 835 1187 867 1154.5 c 128,-1,17
 899 1122 899 1122 918 1087.5 c 128,-1,18
 937 1053 937 1053 944.5 1015.5 c 128,-1,19
 952 978 952 978 952 933 c 0,20,21
 952 876 952 876 936.5 825 c 128,-1,22
 921 774 921 774 894 726 c 1,23,-1
 816 752 l 1,24,25
 826 789 826 789 830.5 819.5 c 128,-1,26
 835 850 835 850 835 882 c 0,27,28
 835 919 835 919 829 948.5 c 128,-1,29
 823 978 823 978 808.5 1004.5 c 128,-1,30
 794 1031 794 1031 768.5 1055.5 c 128,-1,31
 743 1080 743 1080 704 1108 c 0,32,33
 673 1130 673 1130 651.5 1143.5 c 128,-1,34
 630 1157 630 1157 615 1173 c 1,35,-1
 615 289 l 2,36,37
 615 226 615 226 595.5 169 c 128,-1,38
 576 112 576 112 541 69 c 128,-1,39
 506 26 506 26 457 0.5 c 128,-1,40
 408 -25 408 -25 349 -25 c 0,41,42
 250 -25 250 -25 197 27 c 128,-1,43
 144 79 144 79 144 169 c 0,0,1
EndSplineSet
EndChar

StartChar: musicalnotedbl
Encoding: 9835 9835 93
Width: 1718
Flags: W
LayerCount: 2
Fore
SplineSet
855 -27 m 0,0,1
 855 29 855 29 878 77.5 c 128,-1,2
 901 126 901 126 940.5 161.5 c 128,-1,3
 980 197 980 197 1032 217.5 c 128,-1,4
 1084 238 1084 238 1142 238 c 0,5,6
 1187 238 1187 238 1223 227 c 1,7,-1
 1223 1109 l 1,8,-1
 615 1255 l 1,9,-1
 615 289 l 2,10,11
 615 226 615 226 595.5 169 c 128,-1,12
 576 112 576 112 541 69 c 128,-1,13
 506 26 506 26 457 0.5 c 128,-1,14
 408 -25 408 -25 349 -25 c 0,15,16
 250 -25 250 -25 197 27 c 128,-1,17
 144 79 144 79 144 169 c 0,18,19
 144 225 144 225 167 273.5 c 128,-1,20
 190 322 190 322 229.5 357.5 c 128,-1,21
 269 393 269 393 321 413.5 c 128,-1,22
 373 434 373 434 431 434 c 0,23,24
 476 434 476 434 512 423 c 1,25,-1
 512 1434 l 1,26,-1
 1326 1238 l 1,27,-1
 1326 93 l 2,28,29
 1326 30 1326 30 1306.5 -27 c 128,-1,30
 1287 -84 1287 -84 1252 -127 c 128,-1,31
 1217 -170 1217 -170 1168 -195.5 c 128,-1,32
 1119 -221 1119 -221 1060 -221 c 0,33,34
 961 -221 961 -221 908 -169 c 128,-1,35
 855 -117 855 -117 855 -27 c 0,0,1
EndSplineSet
EndChar

StartChar: uni266C
Encoding: 9836 9836 94
Width: 1856
Flags: W
LayerCount: 2
Fore
SplineSet
993 169 m 0,0,1
 993 225 993 225 1016 273.5 c 128,-1,2
 1039 322 1039 322 1078.5 357.5 c 128,-1,3
 1118 393 1118 393 1170 413.5 c 128,-1,4
 1222 434 1222 434 1280 434 c 0,5,6
 1325 434 1325 434 1361 423 c 1,7,-1
 1361 966 l 1,8,-1
 615 966 l 1,9,-1
 615 289 l 2,10,11
 615 226 615 226 595.5 169 c 128,-1,12
 576 112 576 112 541 69 c 128,-1,13
 506 26 506 26 457 0.5 c 128,-1,14
 408 -25 408 -25 349 -25 c 0,15,16
 250 -25 250 -25 197 27 c 128,-1,17
 144 79 144 79 144 169 c 0,18,19
 144 225 144 225 167 273.5 c 128,-1,20
 190 322 190 322 229.5 357.5 c 128,-1,21
 269 393 269 393 321 413.5 c 128,-1,22
 373 434 373 434 431 434 c 0,23,24
 476 434 476 434 512 423 c 1,25,-1
 512 1434 l 1,26,-1
 1464 1434 l 1,27,-1
 1464 289 l 2,28,29
 1464 226 1464 226 1444.5 169 c 128,-1,30
 1425 112 1425 112 1390 69 c 128,-1,31
 1355 26 1355 26 1306 0.5 c 128,-1,32
 1257 -25 1257 -25 1198 -25 c 0,33,34
 1099 -25 1099 -25 1046 27 c 128,-1,35
 993 79 993 79 993 169 c 0,0,1
615 1118 m 1,36,-1
 1361 1118 l 1,37,-1
 1361 1282 l 1,38,-1
 615 1282 l 1,39,-1
 615 1118 l 1,36,-1
EndSplineSet
EndChar

StartChar: uni266D
Encoding: 9837 9837 95
Width: 924
Flags: W
LayerCount: 2
Fore
SplineSet
780 414 m 0,0,1
 780 333 780 333 754 271.5 c 128,-1,2
 728 210 728 210 684.5 164 c 128,-1,3
 641 118 641 118 584.5 86.5 c 128,-1,4
 528 55 528 55 466.5 36 c 128,-1,5
 405 17 405 17 343 8.5 c 128,-1,6
 281 0 281 0 226 0 c 2,7,-1
 188 0 l 1,8,-1
 188 1434 l 1,9,-1
 291 1434 l 1,10,-1
 291 588 l 1,11,12
 347 638 347 638 406 666.5 c 128,-1,13
 465 695 465 695 544 695 c 0,14,15
 601 695 601 695 645 674.5 c 128,-1,16
 689 654 689 654 719 617 c 128,-1,17
 749 580 749 580 764.5 528 c 128,-1,18
 780 476 780 476 780 414 c 0,0,1
291 54 m 1,19,20
 370 62 370 62 429.5 92.5 c 128,-1,21
 489 123 489 123 528.5 170.5 c 128,-1,22
 568 218 568 218 587.5 280 c 128,-1,23
 607 342 607 342 607 414 c 0,24,25
 607 452 607 452 598 485.5 c 128,-1,26
 589 519 589 519 570.5 543.5 c 128,-1,27
 552 568 552 568 524 582.5 c 128,-1,28
 496 597 496 597 458 597 c 0,29,30
 412 597 412 597 370.5 577.5 c 128,-1,31
 329 558 329 558 291 528 c 1,32,-1
 291 54 l 1,19,20
EndSplineSet
EndChar

StartChar: uni266E
Encoding: 9838 9838 96
Width: 843
Flags: W
LayerCount: 2
Fore
SplineSet
188 243 m 1,0,-1
 188 1434 l 1,1,-1
 291 1434 l 1,2,-1
 291 1021 l 1,3,-1
 592 1190 l 1,4,-1
 655 1190 l 1,5,-1
 655 -1 l 1,6,-1
 552 -1 l 1,7,-1
 552 411 l 1,8,-1
 249 243 l 1,9,-1
 188 243 l 1,0,-1
291 418 m 1,10,-1
 552 563 l 1,11,-1
 552 1016 l 1,12,-1
 291 871 l 1,13,-1
 291 418 l 1,10,-1
EndSplineSet
EndChar

StartChar: uni267A
Encoding: 9850 9850 97
Width: 1801
Flags: W
LayerCount: 2
Fore
SplineSet
912 -197 m 1,0,-1
 907 -197 l 1,1,-1
 713 69 l 1,2,-1
 907 332 l 1,3,-1
 912 332 l 1,4,-1
 912 137 l 1,5,-1
 1450 137 l 2,6,7
 1513 137 1513 137 1541.5 162.5 c 128,-1,8
 1570 188 1570 188 1570 230 c 0,9,10
 1570 262 1570 262 1558 296.5 c 128,-1,11
 1546 331 1546 331 1515 384 c 2,12,-1
 1418 547 l 1,13,-1
 1535 618 l 1,14,-1
 1644 431 l 2,15,16
 1675 378 1675 378 1691 326 c 128,-1,17
 1707 274 1707 274 1707 226 c 256,18,19
 1707 178 1707 178 1691 137 c 128,-1,20
 1675 96 1675 96 1643 65.5 c 128,-1,21
 1611 35 1611 35 1563 17.5 c 128,-1,22
 1515 0 1515 0 1450 0 c 2,23,-1
 910 0 l 1,24,-1
 912 -197 l 1,0,-1
237 947 m 1,25,-1
 240 953 l 1,26,-1
 568 983 l 1,27,-1
 696 685 l 1,28,-1
 694 682 l 1,29,-1
 529 780 l 1,30,-1
 260 316 l 2,31,32
 246 291 246 291 239.5 272.5 c 128,-1,33
 233 254 233 254 233 237 c 0,34,35
 233 183 233 183 267.5 160 c 128,-1,36
 302 137 302 137 378 137 c 2,37,-1
 632 137 l 1,38,-1
 632 0 l 1,39,-1
 378 0 l 2,40,41
 317 0 317 0 265 13.5 c 128,-1,42
 213 27 213 27 175 54.5 c 128,-1,43
 137 82 137 82 115.5 125 c 128,-1,44
 94 168 94 168 94 228 c 0,45,46
 94 263 94 263 105.5 302.5 c 128,-1,47
 117 342 117 342 143 386 c 2,48,-1
 411 851 l 1,49,-1
 237 947 l 1,25,-1
1572 950 m 1,50,-1
 1575 945 l 1,51,-1
 1443 642 l 1,52,-1
 1122 673 l 1,53,-1
 1120 678 l 1,54,-1
 1285 776 l 1,55,-1
 1023 1218 l 2,56,57
 993 1268 993 1268 970 1291.5 c 128,-1,58
 947 1315 947 1315 911 1315 c 0,59,60
 874 1315 874 1315 848 1292 c 128,-1,61
 822 1269 822 1269 793 1220 c 2,62,-1
 665 1004 l 1,63,-1
 549 1075 l 1,64,-1
 677 1289 l 2,65,66
 703 1332 703 1332 727.5 1364 c 128,-1,67
 752 1396 752 1396 779 1417 c 128,-1,68
 806 1438 806 1438 838 1448 c 128,-1,69
 870 1458 870 1458 912 1458 c 0,70,71
 950 1458 950 1458 981 1447.5 c 128,-1,72
 1012 1437 1012 1437 1039 1416 c 128,-1,73
 1066 1395 1066 1395 1090 1363 c 128,-1,74
 1114 1331 1114 1331 1140 1288 c 2,75,-1
 1401 847 l 1,76,-1
 1572 950 l 1,50,-1
EndSplineSet
EndChar

StartChar: uni26A0
Encoding: 9888 9888 98
Width: 1764
Flags: W
LayerCount: 2
Fore
SplineSet
1693 -62 m 2,0,-1
 67 -62 l 2,1,2
 50 -62 50 -62 36.5 -52 c 128,-1,3
 23 -42 23 -42 15 -28 c 256,4,5
 7 -14 7 -14 7 2 c 0,6,7
 7 17 7 17 15 33 c 2,8,-1
 827 1475 l 2,9,10
 835 1489 835 1489 849 1496 c 128,-1,11
 863 1503 863 1503 879 1503 c 256,12,13
 895 1503 895 1503 909 1496 c 128,-1,14
 923 1489 923 1489 931 1475 c 2,15,-1
 1745 33 l 2,16,17
 1753 17 1753 17 1753 2 c 0,18,19
 1753 -14 1753 -14 1745 -28 c 256,20,21
 1737 -42 1737 -42 1723.5 -52 c 128,-1,22
 1710 -62 1710 -62 1693 -62 c 2,0,-1
171 66 m 1,23,-1
 1587 66 l 1,24,-1
 879 1320 l 1,25,-1
 171 66 l 1,23,-1
972 430 m 1,26,-1
 786 430 l 1,27,-1
 786 985 l 1,28,-1
 972 985 l 1,29,-1
 972 430 l 1,26,-1
1000 248 m 0,30,31
 1000 222 1000 222 990.5 200 c 128,-1,32
 981 178 981 178 964.5 161.5 c 128,-1,33
 948 145 948 145 926 135.5 c 128,-1,34
 904 126 904 126 879 126 c 256,35,36
 854 126 854 126 832 135.5 c 128,-1,37
 810 145 810 145 794 161.5 c 128,-1,38
 778 178 778 178 769 200 c 128,-1,39
 760 222 760 222 760 248 c 0,40,41
 760 273 760 273 769 296 c 128,-1,42
 778 319 778 319 794 335.5 c 128,-1,43
 810 352 810 352 832 362 c 128,-1,44
 854 372 854 372 879 372 c 256,45,46
 904 372 904 372 926 362 c 128,-1,47
 948 352 948 352 964.5 335.5 c 128,-1,48
 981 319 981 319 990.5 296 c 128,-1,49
 1000 273 1000 273 1000 248 c 0,30,31
EndSplineSet
EndChar

StartChar: .notdef
Encoding: 1114112 -1 99
Width: 1322
GlyphClass: 2
Flags: W
LayerCount: 2
Fore
SplineSet
166 0 m 1,0,-1
 166 1398 l 1,1,-1
 1156 1398 l 1,2,-1
 1156 0 l 1,3,-1
 166 0 l 1,0,-1
314 148 m 1,4,-1
 1008 148 l 1,5,-1
 1008 1250 l 1,6,-1
 314 1250 l 1,7,-1
 314 148 l 1,4,-1
EndSplineSet
EndChar

StartChar: exclam
Encoding: 33 33 103
Width: 681
GlyphClass: 2
Flags: W
LayerCount: 2
Fore
SplineSet
415 424 m 1,0,-1
 219 424 l 1,1,-1
 405 1434 l 1,2,-1
 657 1434 l 1,3,-1
 415 424 l 1,0,-1
409 121 m 0,4,5
 409 62 409 62 366.5 20.5 c 128,-1,6
 324 -21 324 -21 259 -21 c 0,7,8
 198 -21 198 -21 156 17.5 c 128,-1,9
 114 56 114 56 114 112 c 0,10,11
 114 173 114 173 157.5 214 c 128,-1,12
 201 255 201 255 266 255 c 0,13,14
 325 255 325 255 367 216.5 c 128,-1,15
 409 178 409 178 409 121 c 0,4,5
EndSplineSet
Substitution2: "SegoeUI-SemiboldItalic-'ss19' Style Set 19 lookup 8 subtable" exclam.ss19
EndChar

StartChar: quotedbl
Encoding: 34 34 104
Width: 888
GlyphClass: 2
Flags: W
LayerCount: 2
Fore
SplineSet
807 997 m 1,0,-1
 647 997 l 1,1,-1
 627 1443 l 1,2,-1
 827 1443 l 1,3,-1
 807 997 l 1,0,-1
468 997 m 1,4,-1
 308 997 l 1,5,-1
 288 1443 l 1,6,-1
 488 1443 l 1,7,-1
 468 997 l 1,4,-1
EndSplineSet
EndChar

StartChar: numbersign
Encoding: 35 35 105
Width: 1190
GlyphClass: 2
Flags: W
LayerCount: 2
Fore
SplineSet
1182 907 m 1,0,-1
 960 907 l 1,1,-1
 901 634 l 1,2,-1
 1144 634 l 1,3,-1
 1109 490 l 1,4,-1
 872 490 l 1,5,-1
 789 119 l 1,6,-1
 625 119 l 1,7,-1
 705 490 l 1,8,-1
 466 490 l 1,9,-1
 387 119 l 1,10,-1
 224 119 l 1,11,-1
 302 490 l 1,12,-1
 77 490 l 1,13,-1
 106 634 l 1,14,-1
 333 634 l 1,15,-1
 390 906 l 1,16,-1
 150 906 l 1,17,-1
 178 1050 l 1,18,-1
 419 1050 l 1,19,-1
 498 1429 l 1,20,-1
 663 1429 l 1,21,-1
 586 1050 l 1,22,-1
 825 1050 l 1,23,-1
 906 1429 l 1,24,-1
 1069 1429 l 1,25,-1
 991 1050 l 1,26,-1
 1213 1050 l 1,27,-1
 1182 907 l 1,0,-1
555 907 m 1,28,-1
 494 634 l 1,29,-1
 737 634 l 1,30,-1
 796 907 l 1,31,-1
 555 907 l 1,28,-1
EndSplineSet
EndChar

StartChar: dollar
Encoding: 36 36 106
Width: 1142
GlyphClass: 2
Flags: W
LayerCount: 2
Fore
SplineSet
1055 1178 m 1,0,1
 930 1245 930 1245 792 1262 c 1,2,-1
 691 788 l 1,3,4
 990 620 990 620 990 406 c 0,5,6
 990 283 990 283 935.5 190 c 128,-1,7
 881 97 881 97 776.5 44 c 128,-1,8
 672 -9 672 -9 521 -14 c 1,9,-1
 478 -209 l 1,10,-1
 355 -209 l 1,11,-1
 396 -11 l 1,12,13
 312 -6 312 -6 215 20.5 c 128,-1,14
 118 47 118 47 68 72 c 1,15,-1
 109 279 l 1,16,17
 167 242 167 242 262 210 c 128,-1,18
 357 178 357 178 434 170 c 1,19,-1
 532 626 l 1,20,21
 408 700 408 700 348 758.5 c 128,-1,22
 288 817 288 817 257 885.5 c 128,-1,23
 226 954 226 954 226 1038 c 0,24,25
 226 1155 226 1155 284 1247 c 128,-1,26
 342 1339 342 1339 451.5 1392 c 128,-1,27
 561 1445 561 1445 706 1447 c 1,28,-1
 742 1618 l 1,29,-1
 867 1618 l 1,30,-1
 829 1442 l 1,31,32
 967 1431 967 1431 1095 1377 c 1,33,-1
 1055 1178 l 1,0,1
667 1262 m 1,34,35
 563 1256 563 1256 504.5 1197 c 128,-1,36
 446 1138 446 1138 446 1053 c 0,37,38
 446 997 446 997 474.5 950.5 c 128,-1,39
 503 904 503 904 579 851 c 1,40,-1
 667 1262 l 1,34,35
771 380 m 0,41,42
 771 430 771 430 742.5 472.5 c 128,-1,43
 714 515 714 515 644 564 c 1,44,-1
 560 169 l 1,45,46
 656 174 656 174 713.5 232.5 c 128,-1,47
 771 291 771 291 771 380 c 0,41,42
EndSplineSet
EndChar

StartChar: percent
Encoding: 37 37 107
Width: 1732
GlyphClass: 2
Flags: W
LayerCount: 2
Fore
SplineSet
1638 424 m 0,0,1
 1638 309 1638 309 1587.5 205 c 128,-1,2
 1537 101 1537 101 1447.5 40.5 c 128,-1,3
 1358 -20 1358 -20 1245 -20 c 0,4,5
 1146 -20 1146 -20 1078 19 c 128,-1,6
 1010 58 1010 58 974 127.5 c 128,-1,7
 938 197 938 197 938 282 c 0,8,9
 938 399 938 399 993.5 506.5 c 128,-1,10
 1049 614 1049 614 1139 669 c 128,-1,11
 1229 724 1229 724 1339 724 c 0,12,13
 1480 724 1480 724 1559 643 c 128,-1,14
 1638 562 1638 562 1638 424 c 0,0,1
383 0 m 1,15,-1
 186 0 l 1,16,-1
 1420 1434 l 1,17,-1
 1617 1434 l 1,18,-1
 383 0 l 1,15,-1
870 1155 m 0,19,20
 870 1033 870 1033 815.5 927 c 128,-1,21
 761 821 761 821 672 765.5 c 128,-1,22
 583 710 583 710 476 710 c 0,23,24
 377 710 377 710 309.5 748.5 c 128,-1,25
 242 787 242 787 206 856 c 128,-1,26
 170 925 170 925 170 1014 c 0,27,28
 170 1129 170 1129 224 1235 c 128,-1,29
 278 1341 278 1341 368 1397.5 c 128,-1,30
 458 1454 458 1454 571 1454 c 0,31,32
 710 1454 710 1454 790 1374 c 128,-1,33
 870 1294 870 1294 870 1155 c 0,19,20
1463 420 m 0,34,35
 1463 494 1463 494 1429 537.5 c 128,-1,36
 1395 581 1395 581 1333 581 c 256,37,38
 1271 581 1271 581 1221 539 c 128,-1,39
 1171 497 1171 497 1142 425 c 128,-1,40
 1113 353 1113 353 1113 281 c 256,41,42
 1113 209 1113 209 1149 165.5 c 128,-1,43
 1185 122 1185 122 1250 122 c 0,44,45
 1340 122 1340 122 1401.5 210 c 128,-1,46
 1463 298 1463 298 1463 420 c 0,34,35
695 1150 m 256,47,48
 695 1228 695 1228 659.5 1270 c 128,-1,49
 624 1312 624 1312 565 1312 c 0,50,51
 503 1312 503 1312 453.5 1270.5 c 128,-1,52
 404 1229 404 1229 374.5 1158 c 128,-1,53
 345 1087 345 1087 345 1013 c 256,54,55
 345 939 345 939 382 895.5 c 128,-1,56
 419 852 419 852 482 852 c 0,57,58
 541 852 541 852 590.5 893.5 c 128,-1,59
 640 935 640 935 667.5 1003.5 c 128,-1,60
 695 1072 695 1072 695 1150 c 256,47,48
EndSplineSet
EndChar

StartChar: ampersand
Encoding: 38 38 108
Width: 1480
GlyphClass: 2
Flags: W
LayerCount: 2
Fore
SplineSet
1409 761 m 1,0,1
 1344 483 1344 483 1134 269 c 1,2,-1
 1332 0 l 1,3,-1
 1058 0 l 1,4,-1
 963 130 l 1,5,6
 757 -26 757 -26 494 -26 c 0,7,8
 362 -26 362 -26 267 21.5 c 128,-1,9
 172 69 172 69 123 153 c 128,-1,10
 74 237 74 237 74 341 c 0,11,12
 74 493 74 493 171 602.5 c 128,-1,13
 268 712 268 712 492 800 c 1,14,15
 395 946 395 946 395 1087 c 0,16,17
 395 1190 395 1190 447 1275 c 128,-1,18
 499 1360 499 1360 596 1409 c 128,-1,19
 693 1458 693 1458 819 1458 c 0,20,21
 930 1458 930 1458 1013.5 1419 c 128,-1,22
 1097 1380 1097 1380 1141.5 1310.5 c 128,-1,23
 1186 1241 1186 1241 1186 1154 c 0,24,25
 1186 1023 1186 1023 1091 927.5 c 128,-1,26
 996 832 996 832 791 751 c 1,27,-1
 1027 425 l 1,28,29
 1149 568 1149 568 1193 761 c 1,30,-1
 1409 761 l 1,0,1
965 1140 m 0,31,32
 965 1205 965 1205 923 1244.5 c 128,-1,33
 881 1284 881 1284 809 1284 c 0,34,35
 724 1284 724 1284 670.5 1232 c 128,-1,36
 617 1180 617 1180 617 1096 c 0,37,38
 617 993 617 993 694 886 c 1,39,40
 853 953 853 953 909 1009 c 128,-1,41
 965 1065 965 1065 965 1140 c 0,31,32
862 275 m 1,42,-1
 783 383 l 1,43,-1
 585 660 l 1,44,45
 440 600 440 600 375 531 c 128,-1,46
 310 462 310 462 310 367 c 0,47,48
 310 273 310 273 371.5 214.5 c 128,-1,49
 433 156 433 156 534 156 c 0,50,51
 711 156 711 156 862 275 c 1,42,-1
EndSplineSet
Substitution2: "SegoeUI-SemiboldItalic-'smcp' Lowercase to Small Capitals lookup 27 subtable" ampersand.c2sc
Substitution2: "SegoeUI-SemiboldItalic-'c2sc' Capitals to Small Capitals lookup 26 subtable" ampersand.c2sc
Substitution2: "SegoeUI-SemiboldItalic-'ss20' Style Set 20 lookup 7 subtable" ampersand.ss20
EndChar

StartChar: quotesingle
Encoding: 39 39 109
Width: 531
GlyphClass: 2
Flags: W
LayerCount: 2
Fore
SplineSet
460 998 m 1,0,-1
 303 998 l 1,1,-1
 283 1443 l 1,2,-1
 482 1443 l 1,3,-1
 460 998 l 1,0,-1
EndSplineSet
EndChar

StartChar: parenleft
Encoding: 40 40 110
Width: 690
GlyphClass: 2
Flags: W
LayerCount: 2
Fore
SplineSet
884 1434 m 1,0,1
 606 1151 606 1151 478.5 873.5 c 128,-1,2
 351 596 351 596 351 298 c 0,3,4
 351 136 351 136 390.5 -25 c 128,-1,5
 430 -186 430 -186 502 -307 c 1,6,-1
 309 -307 l 1,7,8
 230 -182 230 -182 185.5 -16.5 c 128,-1,9
 141 149 141 149 141 310 c 0,10,11
 141 624 141 624 270 902.5 c 128,-1,12
 399 1181 399 1181 668 1434 c 1,13,-1
 884 1434 l 1,0,1
EndSplineSet
Position2: "SegoeUI-SemiboldItalic-'case' Case-Sensitive Forms lookup 15 subtable" dx=30 dy=140 dh=0 dv=0
EndChar

StartChar: parenright
Encoding: 41 41 111
Width: 690
GlyphClass: 2
Flags: W
LayerCount: 2
Fore
SplineSet
553 816 m 0,0,1
 553 501 553 501 423.5 224 c 128,-1,2
 294 -53 294 -53 25 -307 c 1,3,-1
 -192 -307 l 1,4,5
 85 -28 85 -28 214 249.5 c 128,-1,6
 343 527 343 527 343 827 c 0,7,8
 343 990 343 990 303 1150 c 128,-1,9
 263 1310 263 1310 191 1434 c 1,10,-1
 384 1434 l 1,11,12
 460 1315 460 1315 506.5 1148.5 c 128,-1,13
 553 982 553 982 553 816 c 0,0,1
EndSplineSet
Position2: "SegoeUI-SemiboldItalic-'case' Case-Sensitive Forms lookup 15 subtable" dx=30 dy=140 dh=0 dv=0
EndChar

StartChar: asterisk
Encoding: 42 42 112
Width: 894
GlyphClass: 2
Flags: W
LayerCount: 2
Fore
SplineSet
641 1032 m 1,0,-1
 836 805 l 1,1,-1
 688 704 l 1,2,-1
 541 963 l 1,3,-1
 394 704 l 1,4,-1
 248 805 l 1,5,-1
 443 1032 l 1,6,-1
 168 1078 l 1,7,-1
 225 1242 l 1,8,-1
 481 1138 l 1,9,-1
 448 1434 l 1,10,-1
 634 1434 l 1,11,-1
 601 1138 l 1,12,-1
 858 1242 l 1,13,-1
 915 1078 l 1,14,-1
 641 1032 l 1,0,-1
EndSplineSet
EndChar

StartChar: plus
Encoding: 43 43 113
Width: 1426
GlyphClass: 2
Flags: W
LayerCount: 2
Fore
SplineSet
819 507 m 1,0,-1
 819 113 l 1,1,-1
 652 113 l 1,2,-1
 652 507 l 1,3,-1
 257 507 l 1,4,-1
 257 676 l 1,5,-1
 652 676 l 1,6,-1
 652 1070 l 1,7,-1
 819 1070 l 1,8,-1
 819 676 l 1,9,-1
 1213 676 l 1,10,-1
 1213 507 l 1,11,-1
 819 507 l 1,0,-1
EndSplineSet
EndChar

StartChar: comma
Encoding: 44 44 114
Width: 500
GlyphClass: 2
Flags: W
LayerCount: 2
Fore
SplineSet
100 -259 m 1,0,-1
 -94 -259 l 1,1,-1
 123 239 l 1,2,-1
 353 239 l 1,3,-1
 100 -259 l 1,0,-1
EndSplineSet
Substitution2: "SegoeUI-SemiboldItalic-'ss19' Style Set 19 lookup 8 subtable" comma.ss19
EndChar

StartChar: hyphen
Encoding: 45 45 115
AltUni2: 002010.ffffffff.0 002010.ffffffff.0
Width: 823
GlyphClass: 2
Flags: W
LayerCount: 2
Fore
SplineSet
672 471 m 1,0,-1
 125 471 l 1,1,-1
 163 646 l 1,2,-1
 710 646 l 1,3,-1
 672 471 l 1,0,-1
EndSplineSet
Position2: "SegoeUI-SemiboldItalic-'case' Case-Sensitive Forms lookup 15 subtable" dx=23 dy=110 dh=0 dv=0
EndChar

StartChar: period
Encoding: 46 46 116
Width: 500
GlyphClass: 2
Flags: W
LayerCount: 2
Fore
SplineSet
313 116 m 0,0,1
 313 55 313 55 269.5 15.5 c 128,-1,2
 226 -24 226 -24 163 -24 c 0,3,4
 101 -24 101 -24 59.5 14 c 128,-1,5
 18 52 18 52 18 109 c 0,6,7
 18 169 18 169 61.5 210 c 128,-1,8
 105 251 105 251 170 251 c 0,9,10
 231 251 231 251 272 212 c 128,-1,11
 313 173 313 173 313 116 c 0,0,1
EndSplineSet
EndChar

StartChar: slash
Encoding: 47 47 117
Width: 860
GlyphClass: 2
Flags: W
LayerCount: 2
Fore
SplineSet
48 -238 m 1,0,-1
 -195 -238 l 1,1,-1
 852 1434 l 1,2,-1
 1094 1434 l 1,3,-1
 48 -238 l 1,0,-1
EndSplineSet
Substitution2: "SegoeUI-SemiboldItalic-'frac' Diagonal Fractions lookup 11 subtable" fraction
EndChar

StartChar: zero
Encoding: 48 48 118
Width: 1170
GlyphClass: 2
Flags: W
LayerCount: 2
Fore
SplineSet
1149 1019 m 0,0,1
 1149 731 1149 731 1060.5 480.5 c 128,-1,2
 972 230 972 230 825 102.5 c 128,-1,3
 678 -25 678 -25 492 -25 c 0,4,5
 310 -25 310 -25 203.5 103.5 c 128,-1,6
 97 232 97 232 97 458 c 0,7,8
 97 723 97 723 186 961.5 c 128,-1,9
 275 1200 275 1200 425.5 1329 c 128,-1,10
 576 1458 576 1458 766 1458 c 0,11,12
 944 1458 944 1458 1046.5 1341.5 c 128,-1,13
 1149 1225 1149 1225 1149 1019 c 0,0,1
911 1018 m 0,14,15
 911 1140 911 1140 868.5 1204 c 128,-1,16
 826 1268 826 1268 748 1268 c 0,17,18
 641 1268 641 1268 553.5 1162 c 128,-1,19
 466 1056 466 1056 401 837 c 128,-1,20
 336 618 336 618 336 439 c 0,21,22
 336 312 336 312 382 239.5 c 128,-1,23
 428 167 428 167 512 167 c 0,24,25
 625 167 625 167 708.5 285.5 c 128,-1,26
 792 404 792 404 851.5 616.5 c 128,-1,27
 911 829 911 829 911 1018 c 0,14,15
EndSplineSet
Substitution2: "SegoeUI-SemiboldItalic-Single Substitution lookup 31 subtable" glyph2828
Substitution2: "SegoeUI-SemiboldItalic-'pnum' Proportional Numbers lookup 16 subtable" zero.pnum
Substitution2: "SegoeUI-SemiboldItalic-'onum' Oldstyle Figures lookup 14 subtable" zero.oldstyle
Substitution2: "SegoeUI-SemiboldItalic-'frac' Diagonal Fractions lookup 13 subtable" zero.frac
Substitution2: "SegoeUI-SemiboldItalic-'ss20' Style Set 20 lookup 6 subtable" zero.ss20
Substitution2: "SegoeUI-SemiboldItalic-'sups' Superscript lookup 3 subtable" uni2070
Substitution2: "SegoeUI-SemiboldItalic-'subs' Subscript lookup 2 subtable" uni2080
EndChar

StartChar: one
Encoding: 49 49 119
Width: 843
GlyphClass: 2
Flags: W
LayerCount: 2
Fore
SplineSet
232 0 m 1,0,-1
 487 1196 l 1,1,-1
 151 1115 l 1,2,-1
 196 1322 l 1,3,-1
 782 1458 l 1,4,-1
 474 0 l 1,5,-1
 232 0 l 1,0,-1
EndSplineSet
Substitution2: "SegoeUI-SemiboldItalic-Single Substitution lookup 31 subtable" glyph2829
Substitution2: "SegoeUI-SemiboldItalic-'pnum' Proportional Numbers lookup 16 subtable" one.pnum
Substitution2: "SegoeUI-SemiboldItalic-'onum' Oldstyle Figures lookup 14 subtable" one.oldstyle
Substitution2: "SegoeUI-SemiboldItalic-'frac' Diagonal Fractions lookup 13 subtable" one.frac
Substitution2: "SegoeUI-SemiboldItalic-'ss20' Style Set 20 lookup 6 subtable" one.ss20
Substitution2: "SegoeUI-SemiboldItalic-'sups' Superscript lookup 3 subtable" uni00B9
Substitution2: "SegoeUI-SemiboldItalic-'subs' Subscript lookup 2 subtable" uni2081
EndChar

StartChar: two
Encoding: 50 50 120
Width: 1040
GlyphClass: 2
Flags: W
LayerCount: 2
Fore
SplineSet
798 1078 m 0,0,1
 798 1163 798 1163 744 1212.5 c 128,-1,2
 690 1262 690 1262 588 1262 c 0,3,4
 489 1262 489 1262 392 1222 c 128,-1,5
 295 1182 295 1182 214 1119 c 1,6,-1
 266 1355 l 1,7,8
 422 1458 422 1458 651 1458 c 0,9,10
 834 1458 834 1458 938 1367.5 c 128,-1,11
 1042 1277 1042 1277 1042 1121 c 0,12,13
 1042 1004 1042 1004 1003 913 c 128,-1,14
 964 822 964 822 882.5 742 c 128,-1,15
 801 662 801 662 601 537 c 0,16,17
 401 414 401 414 328 343.5 c 128,-1,18
 255 273 255 273 241 204 c 1,19,-1
 876 204 l 1,20,-1
 833 0 l 1,21,-1
 -64 0 l 1,22,-1
 -45 89 l 2,23,24
 -22 202 -22 202 33.5 292.5 c 128,-1,25
 89 383 89 383 180 466 c 128,-1,26
 271 549 271 549 460 668 c 0,27,28
 592 751 592 751 664 814 c 128,-1,29
 736 877 736 877 767 937 c 128,-1,30
 798 997 798 997 798 1078 c 0,0,1
EndSplineSet
Substitution2: "SegoeUI-SemiboldItalic-Single Substitution lookup 31 subtable" glyph2830
Substitution2: "SegoeUI-SemiboldItalic-'pnum' Proportional Numbers lookup 16 subtable" two.pnum
Substitution2: "SegoeUI-SemiboldItalic-'onum' Oldstyle Figures lookup 14 subtable" two.oldstyle
Substitution2: "SegoeUI-SemiboldItalic-'frac' Diagonal Fractions lookup 13 subtable" two.frac
Substitution2: "SegoeUI-SemiboldItalic-'ss20' Style Set 20 lookup 6 subtable" two.ss20
Substitution2: "SegoeUI-SemiboldItalic-'sups' Superscript lookup 3 subtable" uni00B2
Substitution2: "SegoeUI-SemiboldItalic-'subs' Subscript lookup 2 subtable" uni2082
EndChar

StartChar: three
Encoding: 51 51 121
Width: 988
GlyphClass: 2
Flags: W
LayerCount: 2
Fore
SplineSet
996 1127 m 0,0,1
 996 971 996 971 894.5 868 c 128,-1,2
 793 765 793 765 617 736 c 1,3,-1
 617 732 l 1,4,5
 744 710 744 710 814 626 c 128,-1,6
 884 542 884 542 884 421 c 0,7,8
 884 289 884 289 817 187.5 c 128,-1,9
 750 86 750 86 621.5 30.5 c 128,-1,10
 493 -25 493 -25 315 -25 c 0,11,12
 218 -25 218 -25 119.5 -4 c 128,-1,13
 21 17 21 17 -59 57 c 1,14,-1
 -13 263 l 1,15,16
 52 221 52 221 143.5 193.5 c 128,-1,17
 235 166 235 166 314 166 c 0,18,19
 471 166 471 166 557 232 c 128,-1,20
 643 298 643 298 643 420 c 0,21,22
 643 522 643 522 566 582 c 128,-1,23
 489 642 489 642 327 642 c 2,24,-1
 211 642 l 1,25,-1
 252 833 l 1,26,-1
 387 833 l 2,27,28
 559 833 559 833 656.5 899.5 c 128,-1,29
 754 966 754 966 754 1086 c 0,30,31
 754 1173 754 1173 695 1220.5 c 128,-1,32
 636 1268 636 1268 534 1268 c 0,33,34
 376 1268 376 1268 220 1190 c 1,35,-1
 265 1400 l 1,36,37
 426 1458 426 1458 600 1458 c 0,38,39
 782 1458 782 1458 889 1368.5 c 128,-1,40
 996 1279 996 1279 996 1127 c 0,0,1
EndSplineSet
Substitution2: "SegoeUI-SemiboldItalic-Single Substitution lookup 31 subtable" glyph2831
Substitution2: "SegoeUI-SemiboldItalic-'pnum' Proportional Numbers lookup 16 subtable" three.pnum
Substitution2: "SegoeUI-SemiboldItalic-'onum' Oldstyle Figures lookup 14 subtable" three.oldstyle
Substitution2: "SegoeUI-SemiboldItalic-'frac' Diagonal Fractions lookup 13 subtable" three.frac
Substitution2: "SegoeUI-SemiboldItalic-'ss20' Style Set 20 lookup 6 subtable" three.ss20
Substitution2: "SegoeUI-SemiboldItalic-'sups' Superscript lookup 3 subtable" uni00B3
Substitution2: "SegoeUI-SemiboldItalic-'subs' Subscript lookup 2 subtable" uni2083
EndChar

StartChar: four
Encoding: 52 52 122
Width: 1154
GlyphClass: 2
Flags: W
LayerCount: 2
Fore
SplineSet
1115 1434 m 1,0,-1
 918 508 l 1,1,-1
 1131 508 l 1,2,-1
 1090 315 l 1,3,-1
 877 315 l 1,4,-1
 810 0 l 1,5,-1
 585 0 l 1,6,-1
 652 315 l 1,7,-1
 3 315 l 1,8,-1
 44 510 l 1,9,10
 278 722 278 722 503.5 972.5 c 128,-1,11
 729 1223 729 1223 878 1434 c 1,12,-1
 1115 1434 l 1,0,-1
693 508 m 1,13,-1
 820 1102 l 1,14,15
 590 809 590 809 282 508 c 1,16,-1
 693 508 l 1,13,-1
EndSplineSet
Substitution2: "SegoeUI-SemiboldItalic-Single Substitution lookup 31 subtable" glyph2832
Substitution2: "SegoeUI-SemiboldItalic-'pnum' Proportional Numbers lookup 16 subtable" four.pnum
Substitution2: "SegoeUI-SemiboldItalic-'onum' Oldstyle Figures lookup 14 subtable" four.oldstyle
Substitution2: "SegoeUI-SemiboldItalic-'frac' Diagonal Fractions lookup 13 subtable" four.frac
Substitution2: "SegoeUI-SemiboldItalic-'ss20' Style Set 20 lookup 6 subtable" four.ss20
Substitution2: "SegoeUI-SemiboldItalic-'sups' Superscript lookup 3 subtable" uni2074
Substitution2: "SegoeUI-SemiboldItalic-'subs' Subscript lookup 2 subtable" uni2084
EndChar

StartChar: five
Encoding: 53 53 123
Width: 1020
GlyphClass: 2
Flags: W
LayerCount: 2
Fore
SplineSet
504 881 m 1,0,1
 708 881 708 881 821.5 779 c 128,-1,2
 935 677 935 677 935 495 c 0,3,4
 935 348 935 348 858.5 224.5 c 128,-1,5
 782 101 782 101 647.5 38 c 128,-1,6
 513 -25 513 -25 336 -25 c 0,7,8
 244 -25 244 -25 144.5 -8 c 128,-1,9
 45 9 45 9 -7 38 c 1,10,-1
 39 246 l 1,11,12
 90 212 90 212 177.5 189 c 128,-1,13
 265 166 265 166 340 166 c 0,14,15
 451 166 451 166 530 205.5 c 128,-1,16
 609 245 609 245 651 312 c 128,-1,17
 693 379 693 379 693 462 c 0,18,19
 693 572 693 572 626 630.5 c 128,-1,20
 559 689 559 689 406 689 c 0,21,22
 270 689 270 689 158 675 c 1,23,-1
 345 1434 l 1,24,-1
 1075 1434 l 1,25,-1
 1032 1231 l 1,26,-1
 508 1231 l 1,27,-1
 418 877 l 1,28,-1
 504 881 l 1,0,1
EndSplineSet
Substitution2: "SegoeUI-SemiboldItalic-Single Substitution lookup 31 subtable" glyph2833
Substitution2: "SegoeUI-SemiboldItalic-'pnum' Proportional Numbers lookup 16 subtable" five.pnum
Substitution2: "SegoeUI-SemiboldItalic-'onum' Oldstyle Figures lookup 14 subtable" five.oldstyle
Substitution2: "SegoeUI-SemiboldItalic-'frac' Diagonal Fractions lookup 13 subtable" five.frac
Substitution2: "SegoeUI-SemiboldItalic-'ss20' Style Set 20 lookup 6 subtable" five.ss20
Substitution2: "SegoeUI-SemiboldItalic-'sups' Superscript lookup 3 subtable" uni2075
Substitution2: "SegoeUI-SemiboldItalic-'subs' Subscript lookup 2 subtable" uni2085
EndChar

StartChar: six
Encoding: 54 54 124
Width: 1115
GlyphClass: 2
Flags: W
LayerCount: 2
Fore
SplineSet
1101 1208 m 1,0,1
 1004 1268 1004 1268 866 1268 c 0,2,3
 744 1268 744 1268 642 1201 c 128,-1,4
 540 1134 540 1134 466 1010.5 c 128,-1,5
 392 887 392 887 358 731 c 1,6,-1
 362 731 l 1,7,8
 415 811 415 811 504.5 860 c 128,-1,9
 594 909 594 909 696 909 c 0,10,11
 860 909 860 909 954.5 806 c 128,-1,12
 1049 703 1049 703 1049 517 c 0,13,14
 1049 368 1049 368 982 240 c 128,-1,15
 915 112 915 112 801.5 44 c 128,-1,16
 688 -24 688 -24 546 -24 c 0,17,18
 338 -24 338 -24 221 113 c 128,-1,19
 104 250 104 250 104 497 c 0,20,21
 104 764 104 764 206 987.5 c 128,-1,22
 308 1211 308 1211 487 1334.5 c 128,-1,23
 666 1458 666 1458 884 1458 c 0,24,25
 1036 1458 1036 1458 1145 1415 c 1,26,-1
 1101 1208 l 1,0,1
814 496 m 0,27,28
 814 605 814 605 758.5 663.5 c 128,-1,29
 703 722 703 722 605 722 c 0,30,31
 489 722 489 722 415.5 636.5 c 128,-1,32
 342 551 342 551 342 429 c 0,33,34
 342 308 342 308 400 238.5 c 128,-1,35
 458 169 458 169 557 169 c 0,36,37
 668 169 668 169 741 263 c 128,-1,38
 814 357 814 357 814 496 c 0,27,28
EndSplineSet
Substitution2: "SegoeUI-SemiboldItalic-Single Substitution lookup 31 subtable" glyph2834
Substitution2: "SegoeUI-SemiboldItalic-'pnum' Proportional Numbers lookup 16 subtable" six.pnum
Substitution2: "SegoeUI-SemiboldItalic-'onum' Oldstyle Figures lookup 14 subtable" six.oldstyle
Substitution2: "SegoeUI-SemiboldItalic-'frac' Diagonal Fractions lookup 13 subtable" six.frac
Substitution2: "SegoeUI-SemiboldItalic-'ss20' Style Set 20 lookup 6 subtable" six.ss20
Substitution2: "SegoeUI-SemiboldItalic-'sups' Superscript lookup 3 subtable" uni2076
Substitution2: "SegoeUI-SemiboldItalic-'subs' Subscript lookup 2 subtable" uni2086
EndChar

StartChar: seven
Encoding: 55 55 125
Width: 1027
GlyphClass: 2
Flags: W
LayerCount: 2
Fore
SplineSet
343 0 m 1,0,-1
 85 0 l 1,1,2
 182 270 182 270 376 590.5 c 128,-1,3
 570 911 570 911 832 1231 c 1,4,-1
 143 1231 l 1,5,-1
 187 1434 l 1,6,-1
 1143 1434 l 1,7,-1
 1114 1295 l 1,8,9
 791 879 791 879 613.5 573 c 128,-1,10
 436 267 436 267 343 0 c 1,0,-1
EndSplineSet
Substitution2: "SegoeUI-SemiboldItalic-Single Substitution lookup 31 subtable" glyph2835
Substitution2: "SegoeUI-SemiboldItalic-'pnum' Proportional Numbers lookup 16 subtable" seven.pnum
Substitution2: "SegoeUI-SemiboldItalic-'onum' Oldstyle Figures lookup 14 subtable" seven.oldstyle
Substitution2: "SegoeUI-SemiboldItalic-'frac' Diagonal Fractions lookup 13 subtable" seven.frac
Substitution2: "SegoeUI-SemiboldItalic-'ss20' Style Set 20 lookup 6 subtable" seven.ss20
Substitution2: "SegoeUI-SemiboldItalic-'sups' Superscript lookup 3 subtable" uni2077
Substitution2: "SegoeUI-SemiboldItalic-'subs' Subscript lookup 2 subtable" uni2087
EndChar

StartChar: eight
Encoding: 56 56 126
Width: 1142
GlyphClass: 2
Flags: W
LayerCount: 2
Fore
SplineSet
42 356 m 0,0,1
 42 511 42 511 139 623.5 c 128,-1,2
 236 736 236 736 407 777 c 1,3,4
 252 874 252 874 252 1051 c 0,5,6
 252 1165 252 1165 311.5 1258.5 c 128,-1,7
 371 1352 371 1352 482 1405 c 128,-1,8
 593 1458 593 1458 742 1458 c 0,9,10
 927 1458 927 1458 1035 1366.5 c 128,-1,11
 1143 1275 1143 1275 1143 1123 c 0,12,13
 1143 986 1143 986 1063 890.5 c 128,-1,14
 983 795 983 795 841 753 c 1,15,16
 934 712 934 712 988 632 c 128,-1,17
 1042 552 1042 552 1042 443 c 0,18,19
 1042 315 1042 315 972 207 c 128,-1,20
 902 99 902 99 776 38 c 128,-1,21
 650 -23 650 -23 493 -23 c 0,22,23
 279 -23 279 -23 160.5 77.5 c 128,-1,24
 42 178 42 178 42 356 c 0,0,1
290 370 m 0,25,26
 290 274 290 274 348.5 218.5 c 128,-1,27
 407 163 407 163 510 163 c 0,28,29
 631 163 631 163 712.5 245.5 c 128,-1,30
 794 328 794 328 794 453 c 0,31,32
 794 547 794 547 736.5 604 c 128,-1,33
 679 661 679 661 586 661 c 0,34,35
 458 661 458 661 374 578 c 128,-1,36
 290 495 290 495 290 370 c 0,25,26
486 1029 m 0,37,38
 486 948 486 948 534 899.5 c 128,-1,39
 582 851 582 851 663 851 c 0,40,41
 759 851 759 851 832 922 c 128,-1,42
 905 993 905 993 905 1094 c 0,43,44
 905 1175 905 1175 856.5 1223.5 c 128,-1,45
 808 1272 808 1272 723 1272 c 0,46,47
 618 1272 618 1272 552 1203 c 128,-1,48
 486 1134 486 1134 486 1029 c 0,37,38
EndSplineSet
Substitution2: "SegoeUI-SemiboldItalic-Single Substitution lookup 31 subtable" glyph2836
Substitution2: "SegoeUI-SemiboldItalic-'pnum' Proportional Numbers lookup 16 subtable" eight.pnum
Substitution2: "SegoeUI-SemiboldItalic-'onum' Oldstyle Figures lookup 14 subtable" eight.oldstyle
Substitution2: "SegoeUI-SemiboldItalic-'frac' Diagonal Fractions lookup 13 subtable" eight.frac
Substitution2: "SegoeUI-SemiboldItalic-'ss20' Style Set 20 lookup 6 subtable" eight.ss20
Substitution2: "SegoeUI-SemiboldItalic-'sups' Superscript lookup 3 subtable" uni2078
Substitution2: "SegoeUI-SemiboldItalic-'subs' Subscript lookup 2 subtable" uni2088
EndChar

StartChar: nine
Encoding: 57 57 127
Width: 1124
GlyphClass: 2
Flags: W
LayerCount: 2
Fore
SplineSet
1095 941 m 0,0,1
 1095 751 1095 751 1040.5 573.5 c 128,-1,2
 986 396 986 396 885.5 261.5 c 128,-1,3
 785 127 785 127 642 51.5 c 128,-1,4
 499 -24 499 -24 310 -24 c 0,5,6
 223 -24 223 -24 156 -11 c 128,-1,7
 89 2 89 2 54 19 c 1,8,-1
 88 225 l 1,9,10
 187 167 187 167 321 167 c 0,11,12
 518 167 518 167 655 309 c 128,-1,13
 792 451 792 451 841 697 c 1,14,-1
 837 697 l 1,15,16
 713 517 713 517 512 517 c 0,17,18
 399 517 399 517 316.5 568.5 c 128,-1,19
 234 620 234 620 189.5 712.5 c 128,-1,20
 145 805 145 805 145 917 c 0,21,22
 145 1068 145 1068 215 1198 c 128,-1,23
 285 1328 285 1328 399.5 1393.5 c 128,-1,24
 514 1459 514 1459 659 1459 c 0,25,26
 863 1459 863 1459 979 1319.5 c 128,-1,27
 1095 1180 1095 1180 1095 941 c 0,0,1
860 1001 m 0,28,29
 860 1117 860 1117 801.5 1191 c 128,-1,30
 743 1265 743 1265 649 1265 c 0,31,32
 571 1265 571 1265 510.5 1221 c 128,-1,33
 450 1177 450 1177 417 1102 c 128,-1,34
 384 1027 384 1027 384 940 c 0,35,36
 384 830 384 830 439.5 766 c 128,-1,37
 495 702 495 702 589 702 c 0,38,39
 669 702 669 702 730 740.5 c 128,-1,40
 791 779 791 779 825.5 848.5 c 128,-1,41
 860 918 860 918 860 1001 c 0,28,29
EndSplineSet
Substitution2: "SegoeUI-SemiboldItalic-Single Substitution lookup 31 subtable" glyph2837
Substitution2: "SegoeUI-SemiboldItalic-'pnum' Proportional Numbers lookup 16 subtable" nine.pnum
Substitution2: "SegoeUI-SemiboldItalic-'onum' Oldstyle Figures lookup 14 subtable" nine.oldstyle
Substitution2: "SegoeUI-SemiboldItalic-'frac' Diagonal Fractions lookup 13 subtable" nine.frac
Substitution2: "SegoeUI-SemiboldItalic-'ss20' Style Set 20 lookup 6 subtable" nine.ss20
Substitution2: "SegoeUI-SemiboldItalic-'sups' Superscript lookup 3 subtable" uni2079
Substitution2: "SegoeUI-SemiboldItalic-'subs' Subscript lookup 2 subtable" uni2089
EndChar

StartChar: colon
Encoding: 58 58 128
Width: 500
GlyphClass: 2
Flags: W
LayerCount: 2
Fore
SplineSet
479 907 m 0,0,1
 479 846 479 846 435.5 806 c 128,-1,2
 392 766 392 766 327 766 c 0,3,4
 264 766 264 766 224 805 c 128,-1,5
 184 844 184 844 184 899 c 0,6,7
 184 961 184 961 227.5 1001 c 128,-1,8
 271 1041 271 1041 335 1041 c 0,9,10
 395 1041 395 1041 437 1002.5 c 128,-1,11
 479 964 479 964 479 907 c 0,0,1
313 116 m 0,12,13
 313 55 313 55 269.5 15.5 c 128,-1,14
 226 -24 226 -24 163 -24 c 0,15,16
 101 -24 101 -24 59.5 14 c 128,-1,17
 18 52 18 52 18 109 c 0,18,19
 18 169 18 169 61.5 210 c 128,-1,20
 105 251 105 251 170 251 c 0,21,22
 231 251 231 251 272 212 c 128,-1,23
 313 173 313 173 313 116 c 0,12,13
EndSplineSet
EndChar

StartChar: semicolon
Encoding: 59 59 129
Width: 500
GlyphClass: 2
Flags: W
LayerCount: 2
Fore
SplineSet
479 907 m 0,0,1
 479 846 479 846 435.5 806 c 128,-1,2
 392 766 392 766 327 766 c 0,3,4
 264 766 264 766 224 805 c 128,-1,5
 184 844 184 844 184 899 c 0,6,7
 184 961 184 961 227.5 1001 c 128,-1,8
 271 1041 271 1041 335 1041 c 0,9,10
 395 1041 395 1041 437 1002.5 c 128,-1,11
 479 964 479 964 479 907 c 0,0,1
73 -259 m 1,12,-1
 -120 -259 l 1,13,-1
 96 239 l 1,14,-1
 327 239 l 1,15,-1
 73 -259 l 1,12,-1
EndSplineSet
Substitution2: "SegoeUI-SemiboldItalic-'ss19' Style Set 19 lookup 8 subtable" semicolon.ss19
EndChar

StartChar: less
Encoding: 60 60 130
Width: 1426
GlyphClass: 2
Flags: W
LayerCount: 2
Fore
SplineSet
233 531 m 1,0,-1
 233 643 l 1,1,-1
 1130 1106 l 1,2,-1
 1130 912 l 1,3,-1
 476 591 l 1,4,-1
 476 587 l 1,5,-1
 1130 296 l 1,6,-1
 1130 104 l 1,7,-1
 233 531 l 1,0,-1
EndSplineSet
EndChar

StartChar: equal
Encoding: 61 61 131
Width: 1426
GlyphClass: 2
Flags: W
LayerCount: 2
Fore
SplineSet
257 721 m 1,0,-1
 257 891 l 1,1,-1
 1213 891 l 1,2,-1
 1213 721 l 1,3,-1
 257 721 l 1,0,-1
257 291 m 1,4,-1
 257 460 l 1,5,-1
 1213 460 l 1,6,-1
 1213 291 l 1,7,-1
 257 291 l 1,4,-1
EndSplineSet
EndChar

StartChar: greater
Encoding: 62 62 132
Width: 1426
GlyphClass: 2
Flags: W
LayerCount: 2
Fore
SplineSet
318 104 m 1,0,-1
 318 297 l 1,1,-1
 974 586 l 1,2,-1
 974 591 l 1,3,-1
 318 911 l 1,4,-1
 318 1106 l 1,5,-1
 1215 643 l 1,6,-1
 1215 533 l 1,7,-1
 318 104 l 1,0,-1
EndSplineSet
EndChar

StartChar: question
Encoding: 63 63 133
Width: 900
GlyphClass: 2
Flags: W
LayerCount: 2
Fore
SplineSet
958 1139 m 0,0,1
 958 1019 958 1019 891.5 919.5 c 128,-1,2
 825 820 825 820 681 725 c 0,3,4
 579 658 579 658 533.5 591 c 128,-1,5
 488 524 488 524 469 418 c 1,6,-1
 263 418 l 1,7,8
 295 576 295 576 346.5 663 c 128,-1,9
 398 750 398 750 501 820 c 0,10,11
 625 906 625 906 673.5 968.5 c 128,-1,12
 722 1031 722 1031 722 1101 c 0,13,14
 722 1177 722 1177 667.5 1223 c 128,-1,15
 613 1269 613 1269 528 1269 c 0,16,17
 372 1269 372 1269 235 1179 c 1,18,-1
 278 1402 l 1,19,20
 422 1466 422 1466 584 1466 c 0,21,22
 755 1466 755 1466 856.5 1377.5 c 128,-1,23
 958 1289 958 1289 958 1139 c 0,0,1
465 121 m 0,24,25
 465 61 465 61 421.5 20 c 128,-1,26
 378 -21 378 -21 313 -21 c 0,27,28
 253 -21 253 -21 211.5 17.5 c 128,-1,29
 170 56 170 56 170 112 c 0,30,31
 170 173 170 173 212 214 c 128,-1,32
 254 255 254 255 321 255 c 0,33,34
 381 255 381 255 423 215.5 c 128,-1,35
 465 176 465 176 465 121 c 0,24,25
EndSplineSet
Substitution2: "SegoeUI-SemiboldItalic-'ss19' Style Set 19 lookup 8 subtable" question.ss19
EndChar

StartChar: at
Encoding: 64 64 134
Width: 1960
GlyphClass: 2
Flags: W
LayerCount: 2
Fore
SplineSet
1842 804 m 0,0,1
 1842 633 1842 633 1778 488.5 c 128,-1,2
 1714 344 1714 344 1599.5 262 c 128,-1,3
 1485 180 1485 180 1341 180 c 0,4,5
 1242 180 1242 180 1183.5 227 c 128,-1,6
 1125 274 1125 274 1125 349 c 0,7,8
 1125 366 1125 366 1130 393 c 1,9,-1
 1125 393 l 1,10,11
 1068 290 1068 290 996.5 235.5 c 128,-1,12
 925 181 925 181 829 181 c 0,13,14
 716 181 716 181 646.5 268.5 c 128,-1,15
 577 356 577 356 577 501 c 0,16,17
 577 654 577 654 644.5 789.5 c 128,-1,18
 712 925 712 925 821.5 1000.5 c 128,-1,19
 931 1076 931 1076 1059 1076 c 0,20,21
 1131 1076 1131 1076 1182.5 1045 c 128,-1,22
 1234 1014 1234 1014 1254 958 c 1,23,-1
 1258 958 l 1,24,-1
 1286 1060 l 1,25,-1
 1464 1060 l 1,26,27
 1301 506 1301 506 1301 416 c 0,28,29
 1301 365 1301 365 1321 345.5 c 128,-1,30
 1341 326 1341 326 1383 326 c 0,31,32
 1458 326 1458 326 1526 390 c 128,-1,33
 1594 454 1594 454 1634 560.5 c 128,-1,34
 1674 667 1674 667 1674 782 c 0,35,36
 1674 940 1674 940 1607 1057 c 128,-1,37
 1540 1174 1540 1174 1410.5 1238.5 c 128,-1,38
 1281 1303 1281 1303 1096 1303 c 0,39,40
 892 1303 892 1303 721 1205.5 c 128,-1,41
 550 1108 550 1108 453.5 934.5 c 128,-1,42
 357 761 357 761 357 547 c 0,43,44
 357 266 357 266 518.5 113 c 128,-1,45
 680 -40 680 -40 979 -40 c 0,46,47
 1111 -40 1111 -40 1248.5 -14.5 c 128,-1,48
 1386 11 1386 11 1461 49 c 1,49,-1
 1431 -111 l 1,50,51
 1367 -142 1367 -142 1237 -164.5 c 128,-1,52
 1107 -187 1107 -187 965 -187 c 0,53,54
 597 -187 597 -187 388 8.5 c 128,-1,55
 179 204 179 204 179 544 c 0,56,57
 179 805 179 805 301.5 1014 c 128,-1,58
 424 1223 424 1223 639 1338 c 128,-1,59
 854 1453 854 1453 1114 1453 c 0,60,61
 1338 1453 1338 1453 1502.5 1372 c 128,-1,62
 1667 1291 1667 1291 1754.5 1142.5 c 128,-1,63
 1842 994 1842 994 1842 804 c 0,0,1
1196 797 m 0,64,65
 1196 863 1196 863 1160.5 899 c 128,-1,66
 1125 935 1125 935 1068 935 c 0,67,68
 987 935 987 935 918.5 877 c 128,-1,69
 850 819 850 819 808.5 718 c 128,-1,70
 767 617 767 617 767 506 c 0,71,72
 767 420 767 420 803 374 c 128,-1,73
 839 328 839 328 895 328 c 0,74,75
 952 328 952 328 1003 366.5 c 128,-1,76
 1054 405 1054 405 1095.5 476 c 128,-1,77
 1137 547 1137 547 1166.5 643.5 c 128,-1,78
 1196 740 1196 740 1196 797 c 0,64,65
EndSplineSet
EndChar

StartChar: A
Encoding: 65 65 135
Width: 1367
GlyphClass: 2
Flags: W
AnchorPoint: "Anchor-15" 180 2100 basechar 0
AnchorPoint: "Anchor-14" 1474 2100 basechar 0
AnchorPoint: "Anchor-11" 975 0 basechar 0
AnchorPoint: "Anchor-10" 510 -50 basechar 0
AnchorPoint: "Anchor-9" 1000 1434 basechar 0
AnchorPoint: "Anchor-8" 1026 -420 basechar 0
AnchorPoint: "Anchor-7" 1356 1900 basechar 0
AnchorPoint: "Anchor-6" 660 717 basechar 0
AnchorPoint: "Anchor-5" 960 1434 basechar 0
AnchorPoint: "Anchor-2" 500 -15 basechar 0
AnchorPoint: "Anchor-1" 1095 1500 basechar 0
AnchorPoint: "Anchor-0" 850 1600 basechar 0
LayerCount: 2
Fore
SplineSet
992 0 m 1,0,-1
 939 360 l 1,1,-1
 378 360 l 1,2,-1
 178 0 l 1,3,-1
 -103 0 l 1,4,-1
 737 1434 l 1,5,-1
 1018 1434 l 1,6,-1
 1245 0 l 1,7,-1
 992 0 l 1,0,-1
839 1149 m 2,8,-1
 839 1184 l 1,9,-1
 841 1219 l 1,10,-1
 836 1219 l 1,11,12
 816 1159 816 1159 789 1109 c 2,13,-1
 481 560 l 1,14,-1
 913 560 l 1,15,-1
 843 1100 l 2,16,17
 839 1118 839 1118 839 1149 c 2,8,-1
EndSplineSet
Substitution2: "SegoeUI-SemiboldItalic-'c2sc' Capitals to Small Capitals lookup 26 subtable" A.c2sc
Position2: "SegoeUI-SemiboldItalic-'cpsp' Capital Spacing lookup 12 subtable" dx=36 dy=0 dh=72 dv=0
EndChar

StartChar: B
Encoding: 66 66 136
Width: 1250
GlyphClass: 2
Flags: W
AnchorPoint: "Anchor-15" 180 2100 basechar 0
AnchorPoint: "Anchor-14" 1354 2100 basechar 0
AnchorPoint: "Anchor-11" 450 0 basechar 0
AnchorPoint: "Anchor-9" 1160 1274 basechar 0
AnchorPoint: "Anchor-8" 976 -420 basechar 0
AnchorPoint: "Anchor-7" 1306 1900 basechar 0
AnchorPoint: "Anchor-6" 587 717 basechar 0
AnchorPoint: "Anchor-5" 1110 1314 basechar 0
AnchorPoint: "Anchor-2" 390 -15 basechar 0
AnchorPoint: "Anchor-1" 1180 1500 basechar 0
AnchorPoint: "Anchor-0" 720 1600 basechar 0
LayerCount: 2
Fore
SplineSet
1211 1117 m 0,0,1
 1211 974 1211 974 1124 876.5 c 128,-1,2
 1037 779 1037 779 876 748 c 1,3,-1
 876 744 l 1,4,5
 998 725 998 725 1067.5 647 c 128,-1,6
 1137 569 1137 569 1137 453 c 0,7,8
 1137 245 1137 245 984 122.5 c 128,-1,9
 831 0 831 0 565 0 c 2,10,-1
 61 0 l 1,11,-1
 365 1434 l 1,12,-1
 817 1434 l 2,13,14
 1002 1434 1002 1434 1106.5 1350.5 c 128,-1,15
 1211 1267 1211 1267 1211 1117 c 0,0,1
952 1069 m 0,16,17
 952 1153 952 1153 898 1196 c 128,-1,18
 844 1239 844 1239 744 1239 c 2,19,-1
 573 1239 l 1,20,-1
 486 837 l 1,21,-1
 656 837 l 2,22,23
 796 837 796 837 874 898.5 c 128,-1,24
 952 960 952 960 952 1069 c 0,16,17
877 446 m 0,25,26
 877 536 877 536 814.5 589 c 128,-1,27
 752 642 752 642 625 642 c 2,28,-1
 445 642 l 1,29,-1
 351 195 l 1,30,-1
 557 195 l 2,31,32
 713 195 713 195 795 260.5 c 128,-1,33
 877 326 877 326 877 446 c 0,25,26
EndSplineSet
Substitution2: "SegoeUI-SemiboldItalic-'c2sc' Capitals to Small Capitals lookup 26 subtable" B.c2sc
Position2: "SegoeUI-SemiboldItalic-'cpsp' Capital Spacing lookup 12 subtable" dx=36 dy=0 dh=72 dv=0
EndChar

StartChar: C
Encoding: 67 67 137
Width: 1304
GlyphClass: 2
Flags: W
AnchorPoint: "Anchor-15" 180 2100 basechar 0
AnchorPoint: "Anchor-14" 1489 2100 basechar 0
AnchorPoint: "Anchor-11" 710 -15 basechar 0
AnchorPoint: "Anchor-10" 584 -15 basechar 0
AnchorPoint: "Anchor-9" 1333 1401 basechar 0
AnchorPoint: "Anchor-8" 1212 -420 basechar 0
AnchorPoint: "Anchor-7" 1542 1900 basechar 0
AnchorPoint: "Anchor-6" 800 741 basechar 0
AnchorPoint: "Anchor-5" 1350 1410 basechar 0
AnchorPoint: "Anchor-2" 650 -25 basechar 0
AnchorPoint: "Anchor-1" 1400 1500 basechar 0
AnchorPoint: "Anchor-0" 900 1600 basechar 0
LayerCount: 2
Fore
SplineSet
1319 1141 m 1,0,1
 1152 1241 1152 1241 972 1241 c 0,2,3
 798 1241 798 1241 662.5 1161.5 c 128,-1,4
 527 1082 527 1082 453 941 c 128,-1,5
 379 800 379 800 379 623 c 0,6,7
 379 417 379 417 492.5 303.5 c 128,-1,8
 606 190 606 190 800 190 c 0,9,10
 899 190 899 190 986 212 c 128,-1,11
 1073 234 1073 234 1167 285 c 1,12,-1
 1114 45 l 1,13,14
 953 -25 953 -25 741 -25 c 0,15,16
 554 -25 554 -25 412.5 52.5 c 128,-1,17
 271 130 271 130 195.5 272.5 c 128,-1,18
 120 415 120 415 120 601 c 0,19,20
 120 851 120 851 227.5 1048.5 c 128,-1,21
 335 1246 335 1246 531 1352 c 128,-1,22
 727 1458 727 1458 985 1458 c 0,23,24
 1187 1458 1187 1458 1371 1380 c 1,25,-1
 1319 1141 l 1,0,1
EndSplineSet
Substitution2: "SegoeUI-SemiboldItalic-'c2sc' Capitals to Small Capitals lookup 26 subtable" C.c2sc
Position2: "SegoeUI-SemiboldItalic-'cpsp' Capital Spacing lookup 12 subtable" dx=36 dy=0 dh=72 dv=0
EndChar

StartChar: D
Encoding: 68 68 138
Width: 1500
GlyphClass: 2
Flags: W
AnchorPoint: "Anchor-15" 180 2100 basechar 0
AnchorPoint: "Anchor-14" 1638 2100 basechar 0
AnchorPoint: "Anchor-11" 450 0 basechar 0
AnchorPoint: "Anchor-9" 1320 1274 basechar 0
AnchorPoint: "Anchor-8" 1251 -420 basechar 0
AnchorPoint: "Anchor-7" 1581 1900 basechar 0
AnchorPoint: "Anchor-6" 780 717 basechar 0
AnchorPoint: "Anchor-5" 1290 1287 basechar 0
AnchorPoint: "Anchor-2" 550 -15 basechar 0
AnchorPoint: "Anchor-1" 1410 1500 basechar 0
AnchorPoint: "Anchor-0" 880 1600 basechar 0
LayerCount: 2
Fore
SplineSet
1450 854 m 0,0,1
 1450 599 1450 599 1342 402 c 128,-1,2
 1234 205 1234 205 1039 102.5 c 128,-1,3
 844 0 844 0 578 0 c 2,4,-1
 61 0 l 1,5,-1
 366 1434 l 1,6,-1
 818 1434 l 2,7,8
 1108 1434 1108 1434 1279 1279 c 128,-1,9
 1450 1124 1450 1124 1450 854 c 0,0,1
1191 835 m 0,10,11
 1191 1027 1191 1027 1080 1126.5 c 128,-1,12
 969 1226 969 1226 758 1226 c 2,13,-1
 570 1226 l 1,14,-1
 353 207 l 1,15,-1
 585 207 l 2,16,17
 767 207 767 207 905 285 c 128,-1,18
 1043 363 1043 363 1117 507.5 c 128,-1,19
 1191 652 1191 652 1191 835 c 0,10,11
EndSplineSet
Substitution2: "SegoeUI-SemiboldItalic-'c2sc' Capitals to Small Capitals lookup 26 subtable" D.c2sc
Position2: "SegoeUI-SemiboldItalic-'cpsp' Capital Spacing lookup 12 subtable" dx=36 dy=0 dh=72 dv=0
EndChar

StartChar: E
Encoding: 69 69 139
Width: 1053
GlyphClass: 2
Flags: W
AnchorPoint: "Anchor-15" 180 2100 basechar 0
AnchorPoint: "Anchor-14" 1202 2100 basechar 0
AnchorPoint: "Anchor-11" 610 0 basechar 0
AnchorPoint: "Anchor-10" 410 0 basechar 0
AnchorPoint: "Anchor-9" 1060 1434 basechar 0
AnchorPoint: "Anchor-8" 954 -420 basechar 0
AnchorPoint: "Anchor-7" 1284 1900 basechar 0
AnchorPoint: "Anchor-6" 550 717 basechar 0
AnchorPoint: "Anchor-5" 1090 1434 basechar 0
AnchorPoint: "Anchor-2" 450 -15 basechar 0
AnchorPoint: "Anchor-1" 1160 1500 basechar 0
AnchorPoint: "Anchor-0" 780 1600 basechar 0
LayerCount: 2
Fore
SplineSet
1097 1226 m 1,0,-1
 570 1226 l 1,1,-1
 484 820 l 1,2,-1
 974 820 l 1,3,-1
 929 612 l 1,4,-1
 440 612 l 1,5,-1
 353 207 l 1,6,-1
 914 207 l 1,7,-1
 871 0 l 1,8,-1
 61 0 l 1,9,-1
 365 1434 l 1,10,-1
 1142 1434 l 1,11,-1
 1097 1226 l 1,0,-1
EndSplineSet
Substitution2: "SegoeUI-SemiboldItalic-'c2sc' Capitals to Small Capitals lookup 26 subtable" E.c2sc
Position2: "SegoeUI-SemiboldItalic-'cpsp' Capital Spacing lookup 12 subtable" dx=36 dy=0 dh=72 dv=0
EndChar

StartChar: F
Encoding: 70 70 140
Width: 1034
GlyphClass: 2
Flags: W
AnchorPoint: "Anchor-15" 180 2100 basechar 0
AnchorPoint: "Anchor-14" 1181 2100 basechar 0
AnchorPoint: "Anchor-11" 50 0 basechar 0
AnchorPoint: "Anchor-9" 1060 1434 basechar 0
AnchorPoint: "Anchor-8" 954 -420 basechar 0
AnchorPoint: "Anchor-7" 1284 1900 basechar 0
AnchorPoint: "Anchor-6" 540 717 basechar 0
AnchorPoint: "Anchor-5" 1080 1434 basechar 0
AnchorPoint: "Anchor-2" 450 -15 basechar 0
AnchorPoint: "Anchor-1" 1160 1500 basechar 0
AnchorPoint: "Anchor-0" 780 1600 basechar 0
LayerCount: 2
Fore
SplineSet
1099 1222 m 1,0,-1
 570 1222 l 1,1,-1
 480 804 l 1,2,-1
 970 804 l 1,3,-1
 924 594 l 1,4,-1
 435 594 l 1,5,-1
 310 0 l 1,6,-1
 61 0 l 1,7,-1
 365 1434 l 1,8,-1
 1144 1434 l 1,9,-1
 1099 1222 l 1,0,-1
EndSplineSet
Substitution2: "SegoeUI-SemiboldItalic-'c2sc' Capitals to Small Capitals lookup 26 subtable" F.c2sc
Position2: "SegoeUI-SemiboldItalic-'cpsp' Capital Spacing lookup 12 subtable" dx=36 dy=0 dh=72 dv=0
EndChar

StartChar: G
Encoding: 71 71 141
Width: 1430
GlyphClass: 2
Flags: W
AnchorPoint: "Anchor-15" 180 2100 basechar 0
AnchorPoint: "Anchor-14" 1589 2100 basechar 0
AnchorPoint: "Anchor-11" 785 0 basechar 0
AnchorPoint: "Anchor-10" 630 -15 basechar 0
AnchorPoint: "Anchor-9" 1416 1385 basechar 0
AnchorPoint: "Anchor-8" 1232 -420 basechar 0
AnchorPoint: "Anchor-7" 1562 1900 basechar 0
AnchorPoint: "Anchor-6" 702 741 basechar 0
AnchorPoint: "Anchor-5" 1360 1344 basechar 0
AnchorPoint: "Anchor-2" 650 -25 basechar 0
AnchorPoint: "Anchor-1" 1430 1500 basechar 0
AnchorPoint: "Anchor-0" 950 1600 basechar 0
LayerCount: 2
Fore
SplineSet
1360 1135 m 1,0,1
 1286 1186 1286 1186 1182.5 1216.5 c 128,-1,2
 1079 1247 1079 1247 968 1247 c 0,3,4
 794 1247 794 1247 660.5 1169.5 c 128,-1,5
 527 1092 527 1092 454.5 951 c 128,-1,6
 382 810 382 810 382 628 c 0,7,8
 382 422 382 422 492.5 303 c 128,-1,9
 603 184 603 184 794 184 c 0,10,11
 902 184 902 184 995 218 c 1,12,-1
 1069 572 l 1,13,-1
 757 572 l 1,14,-1
 801 776 l 1,15,-1
 1360 776 l 1,16,-1
 1212 82 l 1,17,18
 1006 -26 1006 -26 762 -26 c 0,19,20
 570 -26 570 -26 424.5 53.5 c 128,-1,21
 279 133 279 133 201.5 278.5 c 128,-1,22
 124 424 124 424 124 611 c 0,23,24
 124 856 124 856 230 1051 c 128,-1,25
 336 1246 336 1246 530.5 1352 c 128,-1,26
 725 1458 725 1458 986 1458 c 0,27,28
 1201 1458 1201 1458 1408 1370 c 1,29,-1
 1360 1135 l 1,0,1
EndSplineSet
Substitution2: "SegoeUI-SemiboldItalic-'c2sc' Capitals to Small Capitals lookup 26 subtable" G.c2sc
Position2: "SegoeUI-SemiboldItalic-'cpsp' Capital Spacing lookup 12 subtable" dx=36 dy=0 dh=72 dv=0
EndChar

StartChar: H
Encoding: 72 72 142
Width: 1507
GlyphClass: 2
Flags: W
AnchorPoint: "Anchor-15" 180 2100 basechar 0
AnchorPoint: "Anchor-14" 1630 2100 basechar 0
AnchorPoint: "Anchor-11" 950 0 basechar 0
AnchorPoint: "Anchor-9" 1474 1434 basechar 0
AnchorPoint: "Anchor-8" 1306 -420 basechar 0
AnchorPoint: "Anchor-7" 1636 1900 basechar 0
AnchorPoint: "Anchor-6" 727 717 basechar 0
AnchorPoint: "Anchor-5" 1440 1434 basechar 0
AnchorPoint: "Anchor-2" 570 -15 basechar 0
AnchorPoint: "Anchor-1" 1500 1500 basechar 0
AnchorPoint: "Anchor-0" 900 1600 basechar 0
LayerCount: 2
Fore
SplineSet
1220 0 m 1,0,-1
 972 0 l 1,1,-1
 1101 613 l 1,2,-1
 440 613 l 1,3,-1
 311 0 l 1,4,-1
 61 0 l 1,5,-1
 365 1434 l 1,6,-1
 615 1434 l 1,7,-1
 486 833 l 1,8,-1
 1148 833 l 1,9,-1
 1277 1434 l 1,10,-1
 1525 1434 l 1,11,-1
 1220 0 l 1,0,-1
EndSplineSet
Substitution2: "SegoeUI-SemiboldItalic-'c2sc' Capitals to Small Capitals lookup 26 subtable" H.c2sc
Position2: "SegoeUI-SemiboldItalic-'cpsp' Capital Spacing lookup 12 subtable" dx=36 dy=0 dh=72 dv=0
EndChar

StartChar: I
Encoding: 73 73 143
Width: 597
GlyphClass: 2
Flags: W
AnchorPoint: "Anchor-15" 180 2100 basechar 0
AnchorPoint: "Anchor-14" 725 2100 basechar 0
AnchorPoint: "Anchor-11" 50 0 basechar 0
AnchorPoint: "Anchor-10" 135 0 basechar 0
AnchorPoint: "Anchor-9" 565 1434 basechar 0
AnchorPoint: "Anchor-8" 401 -420 basechar 0
AnchorPoint: "Anchor-7" 731 1900 basechar 0
AnchorPoint: "Anchor-6" 310 717 basechar 0
AnchorPoint: "Anchor-5" 533 1434 basechar 0
AnchorPoint: "Anchor-2" 115 -15 basechar 0
AnchorPoint: "Anchor-1" 580 1500 basechar 0
AnchorPoint: "Anchor-0" 490 1600 basechar 0
LayerCount: 2
Fore
SplineSet
310 0 m 1,0,-1
 61 0 l 1,1,-1
 364 1434 l 1,2,-1
 614 1434 l 1,3,-1
 310 0 l 1,0,-1
EndSplineSet
Substitution2: "SegoeUI-SemiboldItalic-'c2sc' Capitals to Small Capitals lookup 26 subtable" I.c2sc
Position2: "SegoeUI-SemiboldItalic-'cpsp' Capital Spacing lookup 12 subtable" dx=36 dy=0 dh=72 dv=0
EndChar

StartChar: J
Encoding: 74 74 144
Width: 808
GlyphClass: 2
Flags: W
AnchorPoint: "Anchor-15" 180 2100 basechar 0
AnchorPoint: "Anchor-14" 889 2100 basechar 0
AnchorPoint: "Anchor-11" 50 0 basechar 0
AnchorPoint: "Anchor-9" 751 1434 basechar 0
AnchorPoint: "Anchor-8" 581 -420 basechar 0
AnchorPoint: "Anchor-7" 911 1900 basechar 0
AnchorPoint: "Anchor-6" 500 729 basechar 0
AnchorPoint: "Anchor-5" 730 1440 basechar 0
AnchorPoint: "Anchor-2" 230 -15 basechar 0
AnchorPoint: "Anchor-1" 780 1500 basechar 0
AnchorPoint: "Anchor-0" 680 1600 basechar 0
LayerCount: 2
Fore
SplineSet
95 -25 m 0,0,1
 52 -25 52 -25 -9 -12.5 c 128,-1,2
 -70 0 -70 0 -96 14 c 1,3,-1
 -53 243 l 1,4,5
 -29 223 -29 223 16 206 c 128,-1,6
 61 189 61 189 103 189 c 0,7,8
 218 189 218 189 289 272.5 c 128,-1,9
 360 356 360 356 400 541 c 2,10,-1
 590 1434 l 1,11,-1
 838 1434 l 1,12,-1
 648 540 l 2,13,14
 585 250 585 250 448.5 112.5 c 128,-1,15
 312 -25 312 -25 95 -25 c 0,0,1
EndSplineSet
Substitution2: "SegoeUI-SemiboldItalic-'c2sc' Capitals to Small Capitals lookup 26 subtable" J.c2sc
Position2: "SegoeUI-SemiboldItalic-'cpsp' Capital Spacing lookup 12 subtable" dx=36 dy=0 dh=72 dv=0
EndChar

StartChar: K
Encoding: 75 75 145
Width: 1280
GlyphClass: 2
Flags: W
AnchorPoint: "Anchor-15" 180 2100 basechar 0
AnchorPoint: "Anchor-14" 1408 2100 basechar 0
AnchorPoint: "Anchor-11" 820 0 basechar 0
AnchorPoint: "Anchor-10" 444 -50 basechar 0
AnchorPoint: "Anchor-9" 1220 1434 basechar 0
AnchorPoint: "Anchor-8" 1196 -420 basechar 0
AnchorPoint: "Anchor-7" 1526 1900 basechar 0
AnchorPoint: "Anchor-6" 350 1003 basechar 0
AnchorPoint: "Anchor-5" 1248 1434 basechar 0
AnchorPoint: "Anchor-2" 500 -15 basechar 0
AnchorPoint: "Anchor-1" 1380 1500 basechar 0
AnchorPoint: "Anchor-0" 830 1600 basechar 0
LayerCount: 2
Fore
SplineSet
1427 1434 m 1,0,-1
 714 729 l 1,1,-1
 1157 0 l 1,2,-1
 856 0 l 1,3,-1
 507 615 l 2,4,5
 482 658 482 658 466 704 c 1,6,-1
 462 704 l 1,7,-1
 310 0 l 1,8,-1
 61 0 l 1,9,-1
 365 1434 l 1,10,-1
 615 1434 l 1,11,-1
 473 764 l 1,12,-1
 477 764 l 1,13,-1
 525 820 l 1,14,-1
 1116 1434 l 1,15,-1
 1427 1434 l 1,0,-1
EndSplineSet
Substitution2: "SegoeUI-SemiboldItalic-'c2sc' Capitals to Small Capitals lookup 26 subtable" K.c2sc
Position2: "SegoeUI-SemiboldItalic-'cpsp' Capital Spacing lookup 12 subtable" dx=36 dy=0 dh=72 dv=0
EndChar

StartChar: L
Encoding: 76 76 146
Width: 998
GlyphClass: 2
Flags: W
AnchorPoint: "Anchor-15" 180 2100 basechar 0
AnchorPoint: "Anchor-14" 1128 2100 basechar 0
AnchorPoint: "Anchor-11" 580 0 basechar 0
AnchorPoint: "Anchor-10" 412 0 basechar 0
AnchorPoint: "Anchor-9" 502 1434 basechar 0
AnchorPoint: "Anchor-8" 700 -420 basechar 0
AnchorPoint: "Anchor-7" 1030 1900 basechar 0
AnchorPoint: "Anchor-6" 310 717 basechar 0
AnchorPoint: "Anchor-5" 542 1434 basechar 0
AnchorPoint: "Anchor-2" 440 -15 basechar 0
AnchorPoint: "Anchor-1" 1080 1500 basechar 0
AnchorPoint: "Anchor-0" 770 1600 basechar 0
LayerCount: 2
Fore
SplineSet
861 0 m 1,0,-1
 61 0 l 1,1,-1
 365 1434 l 1,2,-1
 615 1434 l 1,3,-1
 355 211 l 1,4,-1
 905 211 l 1,5,-1
 861 0 l 1,0,-1
EndSplineSet
Substitution2: "SegoeUI-SemiboldItalic-'c2sc' Capitals to Small Capitals lookup 26 subtable" L.c2sc
Position2: "SegoeUI-SemiboldItalic-'cpsp' Capital Spacing lookup 12 subtable" dx=36 dy=0 dh=72 dv=0
EndChar

StartChar: M
Encoding: 77 77 147
Width: 1728
GlyphClass: 2
Flags: W
AnchorPoint: "Anchor-15" 180 2100 basechar 0
AnchorPoint: "Anchor-14" 1855 2100 basechar 0
AnchorPoint: "Anchor-11" 1180 0 basechar 0
AnchorPoint: "Anchor-9" 1698 1434 basechar 0
AnchorPoint: "Anchor-8" 1530 -420 basechar 0
AnchorPoint: "Anchor-7" 1860 1900 basechar 0
AnchorPoint: "Anchor-6" 880 834 basechar 0
AnchorPoint: "Anchor-5" 1665 1434 basechar 0
AnchorPoint: "Anchor-2" 690 -15 basechar 0
AnchorPoint: "Anchor-1" 1730 1500 basechar 0
AnchorPoint: "Anchor-0" 1020 1600 basechar 0
LayerCount: 2
Fore
SplineSet
1440 0 m 1,0,-1
 1212 0 l 1,1,-1
 1405 910 l 2,2,3
 1433 1036 1433 1036 1481 1206 c 1,4,-1
 1475 1206 l 1,5,6
 1424 1093 1424 1093 1314 947 c 2,7,-1
 908 402 l 1,8,-1
 754 402 l 1,9,-1
 590 929 l 2,10,11
 572 984 572 984 557 1064 c 128,-1,12
 542 1144 542 1144 540 1206 c 1,13,-1
 533 1206 l 1,14,15
 498 985 498 985 481 909 c 2,16,-1
 287 0 l 1,17,-1
 61 0 l 1,18,-1
 365 1434 l 1,19,-1
 657 1434 l 1,20,-1
 844 844 l 2,21,22
 874 749 874 749 879 665 c 1,23,-1
 884 665 l 1,24,25
 939 785 939 785 997 863 c 2,26,-1
 1426 1434 l 1,27,-1
 1745 1434 l 1,28,-1
 1440 0 l 1,0,-1
EndSplineSet
Substitution2: "SegoeUI-SemiboldItalic-'c2sc' Capitals to Small Capitals lookup 26 subtable" M.c2sc
Position2: "SegoeUI-SemiboldItalic-'cpsp' Capital Spacing lookup 12 subtable" dx=36 dy=0 dh=72 dv=0
EndChar

StartChar: N
Encoding: 78 78 148
Width: 1587
GlyphClass: 2
Flags: W
AnchorPoint: "Anchor-15" 180 2100 basechar 0
AnchorPoint: "Anchor-14" 1718 2100 basechar 0
AnchorPoint: "Anchor-11" 1010 0 basechar 0
AnchorPoint: "Anchor-10" 616 -50 basechar 0
AnchorPoint: "Anchor-9" 1552 1434 basechar 0
AnchorPoint: "Anchor-8" 1396 -420 basechar 0
AnchorPoint: "Anchor-7" 1726 1900 basechar 0
AnchorPoint: "Anchor-6" 800 717 basechar 0
AnchorPoint: "Anchor-5" 1529 1434 basechar 0
AnchorPoint: "Anchor-2" 650 -15 basechar 0
AnchorPoint: "Anchor-1" 1580 1500 basechar 0
AnchorPoint: "Anchor-0" 980 1600 basechar 0
LayerCount: 2
Fore
SplineSet
1301 0 m 1,0,-1
 1061 0 l 1,1,-1
 572 1030 l 2,2,3
 566 1043 566 1043 551.5 1080 c 128,-1,4
 537 1117 537 1117 534 1133 c 1,5,-1
 528 1133 l 1,6,-1
 519 1065 l 1,7,-1
 507 992 l 1,8,-1
 296 0 l 1,9,-1
 61 0 l 1,10,-1
 364 1434 l 1,11,-1
 625 1434 l 1,12,-1
 1104 409 l 2,13,14
 1127 358 1127 358 1137 325 c 1,15,-1
 1141 325 l 1,16,17
 1146 394 1146 394 1160 458 c 2,18,-1
 1368 1434 l 1,19,-1
 1605 1434 l 1,20,-1
 1301 0 l 1,0,-1
EndSplineSet
Substitution2: "SegoeUI-SemiboldItalic-'c2sc' Capitals to Small Capitals lookup 26 subtable" N.c2sc
Position2: "SegoeUI-SemiboldItalic-'cpsp' Capital Spacing lookup 12 subtable" dx=36 dy=0 dh=72 dv=0
EndChar

StartChar: O
Encoding: 79 79 149
Width: 1549
GlyphClass: 2
Flags: W
AnchorPoint: "Anchor-15" 180 2100 basechar 0
AnchorPoint: "Anchor-14" 1724 2100 basechar 0
AnchorPoint: "Anchor-11" 680 -15 basechar 0
AnchorPoint: "Anchor-10" 640 -15 basechar 0
AnchorPoint: "Anchor-9" 1380 1320 basechar 0
AnchorPoint: "Anchor-8" 1337 -420 basechar 0
AnchorPoint: "Anchor-7" 1667 1900 basechar 0
AnchorPoint: "Anchor-6" 790 741 basechar 0
AnchorPoint: "Anchor-5" 1450 1172 basechar 0
AnchorPoint: "Anchor-2" 620 -25 basechar 0
AnchorPoint: "Anchor-1" 1480 1500 basechar 0
AnchorPoint: "Anchor-0" 950 1600 basechar 0
LayerCount: 2
Fore
SplineSet
1499 847 m 0,0,1
 1499 615 1499 615 1400.5 412.5 c 128,-1,2
 1302 210 1302 210 1128 92.5 c 128,-1,3
 954 -25 954 -25 715 -25 c 0,4,5
 540 -25 540 -25 405.5 52 c 128,-1,6
 271 129 271 129 197.5 270 c 128,-1,7
 124 411 124 411 124 589 c 0,8,9
 124 777 124 777 183 937 c 128,-1,10
 242 1097 242 1097 354.5 1218.5 c 128,-1,11
 467 1340 467 1340 606.5 1399 c 128,-1,12
 746 1458 746 1458 911 1458 c 0,13,14
 1084 1458 1084 1458 1218.5 1382.5 c 128,-1,15
 1353 1307 1353 1307 1426 1167.5 c 128,-1,16
 1499 1028 1499 1028 1499 847 c 0,0,1
1239 838 m 0,17,18
 1239 1024 1239 1024 1143.5 1132.5 c 128,-1,19
 1048 1241 1048 1241 885 1241 c 0,20,21
 749 1241 749 1241 631.5 1155.5 c 128,-1,22
 514 1070 514 1070 448.5 915 c 128,-1,23
 383 760 383 760 383 590 c 0,24,25
 383 407 383 407 476.5 298.5 c 128,-1,26
 570 190 570 190 735 190 c 0,27,28
 878 190 878 190 992.5 274 c 128,-1,29
 1107 358 1107 358 1173 515 c 128,-1,30
 1239 672 1239 672 1239 838 c 0,17,18
EndSplineSet
Substitution2: "SegoeUI-SemiboldItalic-'c2sc' Capitals to Small Capitals lookup 26 subtable" O.c2sc
Position2: "SegoeUI-SemiboldItalic-'cpsp' Capital Spacing lookup 12 subtable" dx=36 dy=0 dh=72 dv=0
EndChar

StartChar: P
Encoding: 80 80 150
Width: 1234
GlyphClass: 2
Flags: W
AnchorPoint: "Anchor-15" 180 2100 basechar 0
AnchorPoint: "Anchor-14" 1358 2100 basechar 0
AnchorPoint: "Anchor-11" 50 0 basechar 0
AnchorPoint: "Anchor-9" 1167 1274 basechar 0
AnchorPoint: "Anchor-8" 1026 -420 basechar 0
AnchorPoint: "Anchor-7" 1356 1900 basechar 0
AnchorPoint: "Anchor-6" 690 1003 basechar 0
AnchorPoint: "Anchor-5" 1140 1314 basechar 0
AnchorPoint: "Anchor-2" 460 -15 basechar 0
AnchorPoint: "Anchor-1" 1180 1500 basechar 0
AnchorPoint: "Anchor-0" 790 1600 basechar 0
LayerCount: 2
Fore
SplineSet
1246 1041 m 0,0,1
 1246 885 1246 885 1173 766.5 c 128,-1,2
 1100 648 1100 648 961 583 c 128,-1,3
 822 518 822 518 629 518 c 2,4,-1
 419 518 l 1,5,-1
 310 0 l 1,6,-1
 61 0 l 1,7,-1
 365 1434 l 1,8,-1
 797 1434 l 2,9,10
 1007 1434 1007 1434 1126.5 1330 c 128,-1,11
 1246 1226 1246 1226 1246 1041 c 0,0,1
987 1023 m 0,12,13
 987 1119 987 1119 922 1176.5 c 128,-1,14
 857 1234 857 1234 733 1234 c 2,15,-1
 572 1234 l 1,16,-1
 462 716 l 1,17,-1
 637 716 l 2,18,19
 801 716 801 716 894 797 c 128,-1,20
 987 878 987 878 987 1023 c 0,12,13
EndSplineSet
Substitution2: "SegoeUI-SemiboldItalic-'c2sc' Capitals to Small Capitals lookup 26 subtable" P.c2sc
Position2: "SegoeUI-SemiboldItalic-'cpsp' Capital Spacing lookup 12 subtable" dx=36 dy=0 dh=72 dv=0
EndChar

StartChar: Q
Encoding: 81 81 151
Width: 1549
GlyphClass: 2
Flags: W
AnchorPoint: "Anchor-15" 180 2100 basechar 0
AnchorPoint: "Anchor-14" 1724 2100 basechar 0
AnchorPoint: "Anchor-11" 780 -180 basechar 0
AnchorPoint: "Anchor-9" 1380 1320 basechar 0
AnchorPoint: "Anchor-8" 1337 -420 basechar 0
AnchorPoint: "Anchor-7" 1667 1900 basechar 0
AnchorPoint: "Anchor-6" 790 738 basechar 0
AnchorPoint: "Anchor-5" 1450 1172 basechar 0
AnchorPoint: "Anchor-2" 620 -270 basechar 0
AnchorPoint: "Anchor-1" 1480 1500 basechar 0
AnchorPoint: "Anchor-0" 950 1600 basechar 0
LayerCount: 2
Fore
SplineSet
1499 843 m 0,0,1
 1499 648 1499 648 1426 466.5 c 128,-1,2
 1353 285 1353 285 1222.5 164 c 128,-1,3
 1092 43 1092 43 927 4 c 1,4,-1
 1233 -357 l 1,5,-1
 913 -357 l 1,6,-1
 685 -24 l 1,7,8
 515 -17 515 -17 388 62 c 128,-1,9
 261 141 261 141 192.5 278.5 c 128,-1,10
 124 416 124 416 124 586 c 0,11,12
 124 826 124 826 227.5 1031 c 128,-1,13
 331 1236 331 1236 511.5 1347 c 128,-1,14
 692 1458 692 1458 914 1458 c 0,15,16
 1180 1458 1180 1458 1339.5 1289.5 c 128,-1,17
 1499 1121 1499 1121 1499 843 c 0,0,1
1239 835 m 0,18,19
 1239 1025 1239 1025 1144 1133 c 128,-1,20
 1049 1241 1049 1241 890 1241 c 0,21,22
 748 1241 748 1241 631.5 1154 c 128,-1,23
 515 1067 515 1067 449 916 c 128,-1,24
 383 765 383 765 383 589 c 0,25,26
 383 405 383 405 477.5 297.5 c 128,-1,27
 572 190 572 190 735 190 c 0,28,29
 878 190 878 190 991.5 273.5 c 128,-1,30
 1105 357 1105 357 1172 510 c 128,-1,31
 1239 663 1239 663 1239 835 c 0,18,19
EndSplineSet
Substitution2: "SegoeUI-SemiboldItalic-'c2sc' Capitals to Small Capitals lookup 26 subtable" Q.c2sc
Substitution2: "SegoeUI-SemiboldItalic-'ss20' Style Set 20 lookup 7 subtable" Q.ss20
Position2: "SegoeUI-SemiboldItalic-'cpsp' Capital Spacing lookup 12 subtable" dx=36 dy=0 dh=72 dv=0
EndChar

StartChar: R
Encoding: 82 82 152
Width: 1251
GlyphClass: 2
Flags: W
AnchorPoint: "Anchor-15" 180 2100 basechar 0
AnchorPoint: "Anchor-14" 1372 2100 basechar 0
AnchorPoint: "Anchor-11" 790 0 basechar 0
AnchorPoint: "Anchor-10" 462 -50 basechar 0
AnchorPoint: "Anchor-9" 1167 1274 basechar 0
AnchorPoint: "Anchor-8" 1019 -420 basechar 0
AnchorPoint: "Anchor-7" 1349 1900 basechar 0
AnchorPoint: "Anchor-6" 690 1003 basechar 0
AnchorPoint: "Anchor-5" 1140 1314 basechar 0
AnchorPoint: "Anchor-2" 520 -15 basechar 0
AnchorPoint: "Anchor-1" 1220 1500 basechar 0
AnchorPoint: "Anchor-0" 790 1600 basechar 0
LayerCount: 2
Fore
SplineSet
1237 1074 m 0,0,1
 1237 898 1237 898 1120 784 c 128,-1,2
 1003 670 1003 670 812 649 c 1,3,-1
 812 645 l 1,4,5
 925 608 925 608 968 436 c 2,6,-1
 1078 0 l 1,7,-1
 813 0 l 1,8,-1
 721 398 l 2,9,10
 700 490 700 490 652.5 534.5 c 128,-1,11
 605 579 605 579 524 579 c 2,12,-1
 434 579 l 1,13,-1
 310 0 l 1,14,-1
 61 0 l 1,15,-1
 365 1434 l 1,16,-1
 808 1434 l 2,17,18
 1010 1434 1010 1434 1123.5 1339 c 128,-1,19
 1237 1244 1237 1244 1237 1074 c 0,0,1
977 1038 m 0,20,21
 977 1128 977 1128 921.5 1182.5 c 128,-1,22
 866 1237 866 1237 751 1237 c 2,23,-1
 573 1237 l 1,24,-1
 475 777 l 1,25,-1
 640 777 l 2,26,27
 798 777 798 777 887.5 847.5 c 128,-1,28
 977 918 977 918 977 1038 c 0,20,21
EndSplineSet
Substitution2: "SegoeUI-SemiboldItalic-'c2sc' Capitals to Small Capitals lookup 26 subtable" R.c2sc
Position2: "SegoeUI-SemiboldItalic-'cpsp' Capital Spacing lookup 12 subtable" dx=36 dy=0 dh=72 dv=0
EndChar

StartChar: S
Encoding: 83 83 153
Width: 1059
GlyphClass: 2
Flags: W
AnchorPoint: "Anchor-15" 180 2100 basechar 0
AnchorPoint: "Anchor-14" 1198 2100 basechar 0
AnchorPoint: "Anchor-11" 460 0 basechar 0
AnchorPoint: "Anchor-10" 394 -15 basechar 0
AnchorPoint: "Anchor-9" 1040 1428 basechar 0
AnchorPoint: "Anchor-8" 874 -420 basechar 0
AnchorPoint: "Anchor-7" 1204 1900 basechar 0
AnchorPoint: "Anchor-6" 544 741 basechar 0
AnchorPoint: "Anchor-5" 1020 1410 basechar 0
AnchorPoint: "Anchor-2" 400 -25 basechar 0
AnchorPoint: "Anchor-1" 1100 1500 basechar 0
AnchorPoint: "Anchor-0" 700 1600 basechar 0
LayerCount: 2
Fore
SplineSet
1029 1160 m 1,0,1
 966 1203 966 1203 877.5 1229 c 128,-1,2
 789 1255 789 1255 710 1255 c 0,3,4
 633 1255 633 1255 579 1228.5 c 128,-1,5
 525 1202 525 1202 496.5 1158.5 c 128,-1,6
 468 1115 468 1115 468 1063 c 0,7,8
 468 991 468 991 510 934.5 c 128,-1,9
 552 878 552 878 671 799 c 0,10,11
 825 696 825 696 884.5 604.5 c 128,-1,12
 944 513 944 513 944 400 c 0,13,14
 944 275 944 275 880.5 174.5 c 128,-1,15
 817 74 817 74 702 24.5 c 128,-1,16
 587 -25 587 -25 430 -25 c 0,17,18
 328 -25 328 -25 220 1.5 c 128,-1,19
 112 28 112 28 33 71 c 1,20,-1
 75 300 l 1,21,22
 151 244 151 244 248 211 c 128,-1,23
 345 178 345 178 437 178 c 0,24,25
 556 178 556 178 621 229.5 c 128,-1,26
 686 281 686 281 686 375 c 0,27,28
 686 447 686 447 640 501 c 128,-1,29
 594 555 594 555 466 636 c 0,30,31
 330 722 330 722 268.5 818.5 c 128,-1,32
 207 915 207 915 207 1032 c 0,33,34
 207 1153 207 1153 269 1251 c 128,-1,35
 331 1349 331 1349 445 1403.5 c 128,-1,36
 559 1458 559 1458 715 1458 c 0,37,38
 890 1458 890 1458 1073 1386 c 1,39,-1
 1029 1160 l 1,0,1
EndSplineSet
Substitution2: "SegoeUI-SemiboldItalic-'c2sc' Capitals to Small Capitals lookup 26 subtable" S.c2sc
Position2: "SegoeUI-SemiboldItalic-'cpsp' Capital Spacing lookup 12 subtable" dx=36 dy=0 dh=72 dv=0
EndChar

StartChar: T
Encoding: 84 84 154
Width: 1139
GlyphClass: 2
Flags: W
AnchorPoint: "Anchor-15" 180 2100 basechar 0
AnchorPoint: "Anchor-14" 1257 2100 basechar 0
AnchorPoint: "Anchor-11" 310 0 basechar 0
AnchorPoint: "Anchor-10" 405 0 basechar 0
AnchorPoint: "Anchor-9" 1210 1443 basechar 0
AnchorPoint: "Anchor-8" 1073 -420 basechar 0
AnchorPoint: "Anchor-7" 1403 1900 basechar 0
AnchorPoint: "Anchor-6" 580 717 basechar 0
AnchorPoint: "Anchor-5" 1205 1434 basechar 0
AnchorPoint: "Anchor-2" 400 -15 basechar 0
AnchorPoint: "Anchor-1" 1280 1500 basechar 0
AnchorPoint: "Anchor-0" 730 1600 basechar 0
LayerCount: 2
Fore
SplineSet
1246 1226 m 1,0,-1
 840 1226 l 1,1,-1
 581 0 l 1,2,-1
 333 0 l 1,3,-1
 592 1226 l 1,4,-1
 179 1226 l 1,5,-1
 224 1434 l 1,6,-1
 1291 1434 l 1,7,-1
 1246 1226 l 1,0,-1
EndSplineSet
Substitution2: "SegoeUI-SemiboldItalic-'c2sc' Capitals to Small Capitals lookup 26 subtable" T.c2sc
Position2: "SegoeUI-SemiboldItalic-'cpsp' Capital Spacing lookup 12 subtable" dx=36 dy=0 dh=72 dv=0
EndChar

StartChar: U
Encoding: 85 85 155
Width: 1446
GlyphClass: 2
Flags: W
AnchorPoint: "Anchor-15" 180 2100 basechar 0
AnchorPoint: "Anchor-14" 1591 2100 basechar 0
AnchorPoint: "Anchor-11" 610 0 basechar 0
AnchorPoint: "Anchor-10" 553 -15 basechar 0
AnchorPoint: "Anchor-9" 1422 1439 basechar 0
AnchorPoint: "Anchor-8" 1284 -420 basechar 0
AnchorPoint: "Anchor-7" 1614 1900 basechar 0
AnchorPoint: "Anchor-6" 720 729 basechar 0
AnchorPoint: "Anchor-5" 1413 1440 basechar 0
AnchorPoint: "Anchor-2" 550 -25 basechar 0
AnchorPoint: "Anchor-1" 1480 1500 basechar 0
AnchorPoint: "Anchor-0" 880 1600 basechar 0
LayerCount: 2
Fore
SplineSet
650 -25 m 0,0,1
 424 -25 424 -25 291.5 102.5 c 128,-1,2
 159 230 159 230 159 444 c 0,3,4
 159 548 159 548 183 659 c 2,5,-1
 350 1434 l 1,6,-1
 599 1434 l 1,7,-1
 432 663 l 2,8,9
 405 528 405 528 405 467 c 0,10,11
 405 338 405 338 479 264 c 128,-1,12
 553 190 553 190 679 190 c 0,13,14
 829 190 829 190 915.5 280.5 c 128,-1,15
 1002 371 1002 371 1044 567 c 2,16,-1
 1231 1434 l 1,17,-1
 1480 1434 l 1,18,-1
 1295 573 l 2,19,20
 1247 349 1247 349 1167.5 223 c 128,-1,21
 1088 97 1088 97 962 36 c 128,-1,22
 836 -25 836 -25 650 -25 c 0,0,1
EndSplineSet
Substitution2: "SegoeUI-SemiboldItalic-'c2sc' Capitals to Small Capitals lookup 26 subtable" U.c2sc
Position2: "SegoeUI-SemiboldItalic-'cpsp' Capital Spacing lookup 12 subtable" dx=36 dy=0 dh=72 dv=0
EndChar

StartChar: V
Encoding: 86 86 156
Width: 1326
GlyphClass: 2
Flags: W
AnchorPoint: "Anchor-15" 180 2100 basechar 0
AnchorPoint: "Anchor-14" 1466 2100 basechar 0
AnchorPoint: "Anchor-11" 410 0 basechar 0
AnchorPoint: "Anchor-9" 1373 1434 basechar 0
AnchorPoint: "Anchor-8" 1298 -420 basechar 0
AnchorPoint: "Anchor-7" 1628 1900 basechar 0
AnchorPoint: "Anchor-6" 660 717 basechar 0
AnchorPoint: "Anchor-5" 1410 1434 basechar 0
AnchorPoint: "Anchor-2" 490 -15 basechar 0
AnchorPoint: "Anchor-1" 1480 1500 basechar 0
AnchorPoint: "Anchor-0" 820 1600 basechar 0
LayerCount: 2
Fore
SplineSet
667 0 m 1,0,-1
 405 0 l 1,1,-1
 206 1434 l 1,2,-1
 458 1434 l 1,3,-1
 586 376 l 2,4,5
 591 329 591 329 591 294 c 2,6,-1
 588 244 l 1,7,-1
 594 244 l 1,8,9
 614 306 614 306 653 378 c 2,10,-1
 1222 1434 l 1,11,-1
 1497 1434 l 1,12,-1
 667 0 l 1,0,-1
EndSplineSet
Substitution2: "SegoeUI-SemiboldItalic-'c2sc' Capitals to Small Capitals lookup 26 subtable" V.c2sc
Position2: "SegoeUI-SemiboldItalic-'cpsp' Capital Spacing lookup 12 subtable" dx=36 dy=0 dh=72 dv=0
EndChar

StartChar: W
Encoding: 87 87 157
Width: 1983
GlyphClass: 2
Flags: W
AnchorPoint: "Anchor-15" 180 2100 basechar 0
AnchorPoint: "Anchor-14" 2083 2100 basechar 0
AnchorPoint: "Anchor-11" 1155 0 basechar 0
AnchorPoint: "Anchor-9" 2060 1434 basechar 0
AnchorPoint: "Anchor-8" 1927 -420 basechar 0
AnchorPoint: "Anchor-7" 2257 1900 basechar 0
AnchorPoint: "Anchor-6" 990 717 basechar 0
AnchorPoint: "Anchor-5" 2043 1434 basechar 0
AnchorPoint: "Anchor-2" 820 -15 basechar 0
AnchorPoint: "Anchor-1" 2130 1500 basechar 0
AnchorPoint: "Anchor-0" 1150 1600 basechar 0
LayerCount: 2
Fore
SplineSet
1456 0 m 1,0,-1
 1195 0 l 1,1,-1
 1117 1016 l 2,2,3
 1117 1065 1117 1065 1129 1146 c 1,4,-1
 1125 1146 l 1,5,6
 1100 1065 1100 1065 1068 997 c 2,7,-1
 568 0 l 1,8,-1
 292 0 l 1,9,-1
 199 1434 l 1,10,-1
 458 1434 l 1,11,-1
 500 412 l 1,12,-1
 500 397 l 2,13,14
 500 340 500 340 488 262 c 1,15,-1
 493 262 l 1,16,17
 499 283 499 283 522 339.5 c 128,-1,18
 545 396 545 396 554 413 c 2,19,-1
 1063 1434 l 1,20,-1
 1311 1434 l 1,21,-1
 1380 387 l 1,22,-1
 1380 370 l 2,23,24
 1380 309 1380 309 1374 263 c 1,25,-1
 1378 263 l 1,26,27
 1391 313 1391 313 1432 408 c 2,28,-1
 1894 1434 l 1,29,-1
 2156 1434 l 1,30,-1
 1456 0 l 1,0,-1
EndSplineSet
Substitution2: "SegoeUI-SemiboldItalic-'c2sc' Capitals to Small Capitals lookup 26 subtable" W.c2sc
Position2: "SegoeUI-SemiboldItalic-'cpsp' Capital Spacing lookup 12 subtable" dx=36 dy=0 dh=72 dv=0
EndChar

StartChar: X
Encoding: 88 88 158
Width: 1275
GlyphClass: 2
Flags: W
AnchorPoint: "Anchor-15" 180 2100 basechar 0
AnchorPoint: "Anchor-14" 1390 2100 basechar 0
AnchorPoint: "Anchor-11" 820 0 basechar 0
AnchorPoint: "Anchor-9" 1260 1434 basechar 0
AnchorPoint: "Anchor-8" 1214 -420 basechar 0
AnchorPoint: "Anchor-7" 1544 1900 basechar 0
AnchorPoint: "Anchor-6" 640 717 basechar 0
AnchorPoint: "Anchor-5" 1300 1434 basechar 0
AnchorPoint: "Anchor-2" 470 -15 basechar 0
AnchorPoint: "Anchor-1" 1410 1500 basechar 0
AnchorPoint: "Anchor-0" 800 1600 basechar 0
LayerCount: 2
Fore
SplineSet
843 714 m 1,0,-1
 1136 0 l 1,1,-1
 856 0 l 1,2,-1
 699 447 l 2,3,4
 678 507 678 507 660 594 c 1,5,-1
 656 594 l 1,6,-1
 647 576 l 2,7,8
 626 526 626 526 607 503 c 2,9,-1
 208 0 l 1,10,-1
 -99 0 l 1,11,-1
 527 736 l 1,12,-1
 237 1434 l 1,13,-1
 525 1434 l 1,14,-1
 669 999 l 2,15,16
 705 892 705 892 707 853 c 1,17,-1
 712 853 l 1,18,-1
 720 870 l 2,19,20
 743 920 743 920 761 943 c 2,21,-1
 1152 1434 l 1,22,-1
 1441 1434 l 1,23,-1
 843 714 l 1,0,-1
EndSplineSet
Substitution2: "SegoeUI-SemiboldItalic-'c2sc' Capitals to Small Capitals lookup 26 subtable" X.c2sc
Position2: "SegoeUI-SemiboldItalic-'cpsp' Capital Spacing lookup 12 subtable" dx=36 dy=0 dh=72 dv=0
EndChar

StartChar: Y
Encoding: 89 89 159
Width: 1190
GlyphClass: 2
Flags: W
AnchorPoint: "Anchor-15" 180 2100 basechar 0
AnchorPoint: "Anchor-14" 1315 2100 basechar 0
AnchorPoint: "Anchor-11" 340 0 basechar 0
AnchorPoint: "Anchor-9" 1260 1434 basechar 0
AnchorPoint: "Anchor-8" 1163 -420 basechar 0
AnchorPoint: "Anchor-7" 1493 1900 basechar 0
AnchorPoint: "Anchor-6" 550 430 basechar 0
AnchorPoint: "Anchor-5" 1250 1434 basechar 0
AnchorPoint: "Anchor-2" 430 -15 basechar 0
AnchorPoint: "Anchor-1" 1380 1500 basechar 0
AnchorPoint: "Anchor-0" 760 1600 basechar 0
LayerCount: 2
Fore
SplineSet
602 0 m 1,0,-1
 353 0 l 1,1,-1
 465 527 l 1,2,-1
 202 1434 l 1,3,-1
 468 1434 l 1,4,-1
 614 831 l 1,5,-1
 624 777 l 1,6,-1
 629 731 l 1,7,-1
 633 731 l 1,8,9
 664 799 664 799 684 828 c 2,10,-1
 1097 1434 l 1,11,-1
 1375 1434 l 1,12,-1
 713 532 l 1,13,-1
 602 0 l 1,0,-1
EndSplineSet
Substitution2: "SegoeUI-SemiboldItalic-'c2sc' Capitals to Small Capitals lookup 26 subtable" Y.c2sc
Position2: "SegoeUI-SemiboldItalic-'cpsp' Capital Spacing lookup 12 subtable" dx=36 dy=0 dh=72 dv=0
EndChar

StartChar: Z
Encoding: 90 90 160
Width: 1205
GlyphClass: 2
Flags: W
AnchorPoint: "Anchor-15" 180 2100 basechar 0
AnchorPoint: "Anchor-14" 1347 2100 basechar 0
AnchorPoint: "Anchor-11" 760 0 basechar 0
AnchorPoint: "Anchor-9" 1260 1434 basechar 0
AnchorPoint: "Anchor-8" 1169 -420 basechar 0
AnchorPoint: "Anchor-7" 1499 1900 basechar 0
AnchorPoint: "Anchor-6" 610 717 basechar 0
AnchorPoint: "Anchor-5" 1270 1434 basechar 0
AnchorPoint: "Anchor-2" 430 -15 basechar 0
AnchorPoint: "Anchor-1" 1380 1500 basechar 0
AnchorPoint: "Anchor-0" 830 1600 basechar 0
LayerCount: 2
Fore
SplineSet
333 207 m 1,0,-1
 1083 207 l 1,1,-1
 1039 0 l 1,2,-1
 -74 0 l 1,3,-1
 -50 118 l 1,4,-1
 948 1226 l 1,5,-1
 246 1226 l 1,6,-1
 290 1434 l 1,7,-1
 1354 1434 l 1,8,-1
 1329 1322 l 1,9,-1
 333 207 l 1,0,-1
EndSplineSet
Substitution2: "SegoeUI-SemiboldItalic-'c2sc' Capitals to Small Capitals lookup 26 subtable" Z.c2sc
Position2: "SegoeUI-SemiboldItalic-'cpsp' Capital Spacing lookup 12 subtable" dx=36 dy=0 dh=72 dv=0
EndChar

StartChar: bracketleft
Encoding: 91 91 161
Width: 690
GlyphClass: 2
Flags: W
LayerCount: 2
Fore
SplineSet
805 1274 m 1,0,-1
 584 1274 l 1,1,-1
 278 -166 l 1,2,-1
 498 -166 l 1,3,-1
 464 -326 l 1,4,-1
 44 -326 l 1,5,-1
 418 1434 l 1,6,-1
 838 1434 l 1,7,-1
 805 1274 l 1,0,-1
EndSplineSet
Position2: "SegoeUI-SemiboldItalic-'case' Case-Sensitive Forms lookup 15 subtable" dx=30 dy=140 dh=0 dv=0
EndChar

StartChar: backslash
Encoding: 92 92 162
Width: 843
GlyphClass: 2
Flags: W
LayerCount: 2
Fore
SplineSet
511 -239 m 1,0,-1
 164 1434 l 1,1,-1
 374 1434 l 1,2,-1
 717 -239 l 1,3,-1
 511 -239 l 1,0,-1
EndSplineSet
EndChar

StartChar: bracketright
Encoding: 93 93 163
Width: 690
GlyphClass: 2
Flags: W
LayerCount: 2
Fore
SplineSet
273 -326 m 1,0,-1
 -146 -326 l 1,1,-1
 -112 -166 l 1,2,-1
 106 -166 l 1,3,-1
 413 1273 l 1,4,-1
 193 1273 l 1,5,-1
 226 1434 l 1,6,-1
 647 1434 l 1,7,-1
 273 -326 l 1,0,-1
EndSplineSet
Position2: "SegoeUI-SemiboldItalic-'case' Case-Sensitive Forms lookup 15 subtable" dx=30 dy=140 dh=0 dv=0
EndChar

StartChar: asciicircum
Encoding: 94 94 164
Width: 1426
GlyphClass: 2
Flags: W
LayerCount: 2
Fore
SplineSet
1054 617 m 1,0,-1
 744 1219 l 1,1,-1
 738 1219 l 1,2,-1
 451 617 l 1,3,-1
 256 617 l 1,4,-1
 682 1458 l 1,5,-1
 796 1458 l 1,6,-1
 1250 617 l 1,7,-1
 1054 617 l 1,0,-1
EndSplineSet
EndChar

StartChar: underscore
Encoding: 95 95 165
Width: 850
GlyphClass: 2
Flags: W
LayerCount: 2
Fore
SplineSet
-174 -297 m 1,0,-1
 -150 -178 l 1,1,-1
 700 -178 l 1,2,-1
 676 -297 l 1,3,-1
 -174 -297 l 1,0,-1
EndSplineSet
EndChar

StartChar: grave
Encoding: 96 96 166
Width: 807
GlyphClass: 2
Flags: W
LayerCount: 2
Fore
SplineSet
539 1202 m 1,0,-1
 290 1528 l 1,1,-1
 498 1528 l 1,2,-1
 706 1202 l 1,3,-1
 539 1202 l 1,0,-1
EndSplineSet
EndChar

StartChar: a
Encoding: 97 97 167
Width: 1162
GlyphClass: 2
Flags: W
AnchorPoint: "Anchor-15" 180 2100 basechar 0
AnchorPoint: "Anchor-14" 1290 2100 basechar 0
AnchorPoint: "Anchor-11" 670 0 basechar 0
AnchorPoint: "Anchor-10" 370 -15 basechar 0
AnchorPoint: "Anchor-9" 1040 1009 basechar 0
AnchorPoint: "Anchor-8" 897 -420 basechar 0
AnchorPoint: "Anchor-7" 1227 1900 basechar 0
AnchorPoint: "Anchor-6" 521 536 basechar 0
AnchorPoint: "Anchor-5" 1040 990 basechar 0
AnchorPoint: "Anchor-2" 370 -25 basechar 0
AnchorPoint: "Anchor-1" 1080 1200 basechar 0
AnchorPoint: "Anchor-0" 700 1300 basechar 0
LayerCount: 2
Fore
SplineSet
935 0 m 1,0,-1
 690 0 l 1,1,2
 690 25 690 25 696 91.5 c 128,-1,3
 702 158 702 158 708 194 c 1,4,-1
 704 194 l 1,5,6
 641 102 641 102 595.5 60.5 c 128,-1,7
 550 19 550 19 497 -3 c 128,-1,8
 444 -25 444 -25 377 -25 c 0,9,10
 231 -25 231 -25 150 78 c 128,-1,11
 69 181 69 181 69 363 c 0,12,13
 69 549 69 549 156.5 717 c 128,-1,14
 244 885 244 885 390.5 967 c 128,-1,15
 537 1049 537 1049 732 1049 c 0,16,17
 893 1049 893 1049 1115 1001 c 1,18,-1
 974 333 l 2,19,20
 959 262 959 262 947 158.5 c 128,-1,21
 935 55 935 55 935 0 c 1,0,-1
843 853 m 1,22,23
 781 868 781 868 706 868 c 0,24,25
 592 868 592 868 505 808.5 c 128,-1,26
 418 749 418 749 365 628 c 128,-1,27
 312 507 312 507 312 375 c 0,28,29
 312 275 312 275 350.5 220.5 c 128,-1,30
 389 166 389 166 463 166 c 0,31,32
 571 166 571 166 657.5 279 c 128,-1,33
 744 392 744 392 784 578 c 2,34,-1
 843 853 l 1,22,23
EndSplineSet
Substitution2: "SegoeUI-SemiboldItalic-'smcp' Lowercase to Small Capitals lookup 27 subtable" A.c2sc
EndChar

StartChar: b
Encoding: 98 98 168
Width: 1162
GlyphClass: 2
Flags: W
AnchorPoint: "Anchor-15" 180 2100 basechar 0
AnchorPoint: "Anchor-14" 1290 2100 basechar 0
AnchorPoint: "Anchor-13" 692 80 basechar 0
AnchorPoint: "Anchor-12" 692 80 basechar 0
AnchorPoint: "Anchor-11" 500 0 basechar 0
AnchorPoint: "Anchor-9" 1030 950 basechar 0
AnchorPoint: "Anchor-8" 882 -420 basechar 0
AnchorPoint: "Anchor-7" 1212 1900 basechar 0
AnchorPoint: "Anchor-6" 580 462 basechar 0
AnchorPoint: "Anchor-5" 1010 914 basechar 0
AnchorPoint: "Anchor-2" 470 -25 basechar 0
AnchorPoint: "Anchor-1" 1150 1400 basechar 0
AnchorPoint: "Anchor-0" 770 1650 basechar 0
LayerCount: 2
Fore
SplineSet
1092 666 m 0,0,1
 1092 476 1092 476 1007.5 309.5 c 128,-1,2
 923 143 923 143 778.5 59 c 128,-1,3
 634 -25 634 -25 447 -25 c 0,4,5
 342 -25 342 -25 233.5 2.5 c 128,-1,6
 125 30 125 30 50 77 c 1,7,-1
 355 1516 l 1,8,-1
 598 1516 l 1,9,-1
 498 1045 l 1,10,-1
 452 848 l 1,11,-1
 457 848 l 1,12,13
 529 953 529 953 609.5 1001 c 128,-1,14
 690 1049 690 1049 786 1049 c 0,15,16
 931 1049 931 1049 1011.5 948 c 128,-1,17
 1092 847 1092 847 1092 666 c 0,0,1
850 646 m 0,18,19
 850 858 850 858 689 858 c 0,20,21
 587 858 587 858 498.5 746.5 c 128,-1,22
 410 635 410 635 377 476 c 2,23,-1
 317 191 l 1,24,25
 382 156 382 156 480 156 c 0,26,27
 586 156 586 156 669.5 222 c 128,-1,28
 753 288 753 288 801.5 405 c 128,-1,29
 850 522 850 522 850 646 c 0,18,19
EndSplineSet
Substitution2: "SegoeUI-SemiboldItalic-'smcp' Lowercase to Small Capitals lookup 27 subtable" B.c2sc
EndChar

StartChar: c
Encoding: 99 99 169
Width: 919
GlyphClass: 2
Flags: W
AnchorPoint: "Anchor-15" 180 2100 basechar 0
AnchorPoint: "Anchor-14" 1073 2100 basechar 0
AnchorPoint: "Anchor-13" 570 26 basechar 0
AnchorPoint: "Anchor-12" 570 26 basechar 0
AnchorPoint: "Anchor-11" 510 0 basechar 0
AnchorPoint: "Anchor-10" 420 -15 basechar 0
AnchorPoint: "Anchor-9" 940 1009 basechar 0
AnchorPoint: "Anchor-8" 751 -420 basechar 0
AnchorPoint: "Anchor-7" 1081 1900 basechar 0
AnchorPoint: "Anchor-6" 573 536 basechar 0
AnchorPoint: "Anchor-5" 890 991 basechar 0
AnchorPoint: "Anchor-2" 420 -25 basechar 0
AnchorPoint: "Anchor-1" 970 1200 basechar 0
AnchorPoint: "Anchor-0" 650 1300 basechar 0
LayerCount: 2
Fore
SplineSet
882 782 m 1,0,1
 844 814 844 814 787.5 836 c 128,-1,2
 731 858 731 858 663 858 c 0,3,4
 568 858 568 858 489.5 802 c 128,-1,5
 411 746 411 746 361 640.5 c 128,-1,6
 311 535 311 535 311 419 c 0,7,8
 311 295 311 295 366.5 230.5 c 128,-1,9
 422 166 422 166 525 166 c 0,10,11
 587 166 587 166 656.5 191 c 128,-1,12
 726 216 726 216 781 252 c 1,13,-1
 739 49 l 1,14,15
 597 -25 597 -25 457 -25 c 0,16,17
 275 -25 275 -25 172 86.5 c 128,-1,18
 69 198 69 198 69 395 c 0,19,20
 69 573 69 573 146 725.5 c 128,-1,21
 223 878 223 878 360.5 963.5 c 128,-1,22
 498 1049 498 1049 672 1049 c 0,23,24
 745 1049 745 1049 817 1031.5 c 128,-1,25
 889 1014 889 1014 929 987 c 1,26,-1
 882 782 l 1,0,1
EndSplineSet
Substitution2: "SegoeUI-SemiboldItalic-'smcp' Lowercase to Small Capitals lookup 27 subtable" C.c2sc
EndChar

StartChar: d
Encoding: 100 100 170
Width: 1162
GlyphClass: 2
Flags: W
AnchorPoint: "Anchor-15" 180 2100 basechar 0
AnchorPoint: "Anchor-14" 1290 2100 basechar 0
AnchorPoint: "Anchor-13" 780 0 basechar 0
AnchorPoint: "Anchor-12" 775 0 basechar 0
AnchorPoint: "Anchor-11" 670 0 basechar 0
AnchorPoint: "Anchor-9" 1208 1522 basechar 0
AnchorPoint: "Anchor-8" 1003 -420 basechar 0
AnchorPoint: "Anchor-7" 1333 1900 basechar 0
AnchorPoint: "Anchor-6" 530 539 basechar 0
AnchorPoint: "Anchor-5" 1140 1513 basechar 0
AnchorPoint: "Anchor-2" 390 -25 basechar 0
AnchorPoint: "Anchor-1" 1240 1600 basechar 0
AnchorPoint: "Anchor-0" 720 1650 basechar 0
LayerCount: 2
Fore
SplineSet
935 0 m 1,0,-1
 690 0 l 1,1,2
 690 47 690 47 708 191 c 1,3,-1
 704 191 l 1,4,5
 631 79 631 79 554.5 27 c 128,-1,6
 478 -25 478 -25 379 -25 c 0,7,8
 232 -25 232 -25 150.5 76.5 c 128,-1,9
 69 178 69 178 69 362 c 0,10,11
 69 549 69 549 152.5 711.5 c 128,-1,12
 236 874 236 874 381.5 961.5 c 128,-1,13
 527 1049 527 1049 712 1049 c 0,14,15
 800 1049 800 1049 880 1031 c 1,16,-1
 984 1516 l 1,17,-1
 1222 1516 l 1,18,-1
 972 326 l 2,19,20
 960 275 960 275 947.5 169 c 128,-1,21
 935 63 935 63 935 0 c 1,0,-1
843 850 m 1,22,23
 773 868 773 868 707 868 c 0,24,25
 592 868 592 868 505 808 c 128,-1,26
 418 748 418 748 365 627.5 c 128,-1,27
 312 507 312 507 312 377 c 0,28,29
 312 273 312 273 351.5 219.5 c 128,-1,30
 391 166 391 166 466 166 c 0,31,32
 571 166 571 166 657 279 c 128,-1,33
 743 392 743 392 786 586 c 2,34,-1
 843 850 l 1,22,23
EndSplineSet
Substitution2: "SegoeUI-SemiboldItalic-'smcp' Lowercase to Small Capitals lookup 27 subtable" D.c2sc
EndChar

StartChar: e
Encoding: 101 101 171
Width: 1031
GlyphClass: 2
Flags: W
AnchorPoint: "Anchor-15" 180 2100 basechar 0
AnchorPoint: "Anchor-14" 1177 2100 basechar 0
AnchorPoint: "Anchor-11" 520 0 basechar 0
AnchorPoint: "Anchor-10" 405 -15 basechar 0
AnchorPoint: "Anchor-9" 960 973 basechar 0
AnchorPoint: "Anchor-8" 808 -420 basechar 0
AnchorPoint: "Anchor-7" 1138 1900 basechar 0
AnchorPoint: "Anchor-6" 565 600 basechar 0
AnchorPoint: "Anchor-5" 970 910 basechar 0
AnchorPoint: "Anchor-2" 420 -25 basechar 0
AnchorPoint: "Anchor-1" 1000 1200 basechar 0
AnchorPoint: "Anchor-0" 670 1300 basechar 0
LayerCount: 2
Fore
SplineSet
1004 772 m 0,0,1
 1004 587 1004 587 832 499.5 c 128,-1,2
 660 412 660 412 310 408 c 1,3,-1
 308 397 l 1,4,-1
 308 377 l 2,5,6
 308 273 308 273 370 215.5 c 128,-1,7
 432 158 432 158 543 158 c 0,8,9
 619 158 619 158 705.5 185.5 c 128,-1,10
 792 213 792 213 864 256 c 1,11,-1
 824 57 l 1,12,13
 673 -25 673 -25 491 -25 c 0,14,15
 292 -25 292 -25 180.5 86 c 128,-1,16
 69 197 69 197 69 399 c 0,17,18
 69 573 69 573 145 724.5 c 128,-1,19
 221 876 221 876 357 962.5 c 128,-1,20
 493 1049 493 1049 655 1049 c 0,21,22
 816 1049 816 1049 910 973 c 128,-1,23
 1004 897 1004 897 1004 772 c 0,0,1
770 766 m 0,24,25
 770 816 770 816 733.5 845.5 c 128,-1,26
 697 875 697 875 633 875 c 0,27,28
 527 875 527 875 441 788 c 128,-1,29
 355 701 355 701 328 574 c 1,30,31
 770 574 770 574 770 766 c 0,24,25
EndSplineSet
Substitution2: "SegoeUI-SemiboldItalic-'smcp' Lowercase to Small Capitals lookup 27 subtable" E.c2sc
EndChar

StartChar: f
Encoding: 102 102 172
Width: 686
GlyphClass: 2
Flags: W
AnchorPoint: "Anchor-15" 180 2100 basechar 0
AnchorPoint: "Anchor-14" 784 2100 basechar 0
AnchorPoint: "Anchor-13" 80 -350 basechar 0
AnchorPoint: "Anchor-12" 80 -350 basechar 0
AnchorPoint: "Anchor-11" -20 -350 basechar 0
AnchorPoint: "Anchor-9" 850 1538 basechar 0
AnchorPoint: "Anchor-8" 700 -420 basechar 0
AnchorPoint: "Anchor-7" 1030 1900 basechar 0
AnchorPoint: "Anchor-6" 320 615 basechar 0
AnchorPoint: "Anchor-5" 840 1520 basechar 0
AnchorPoint: "Anchor-2" 60 -350 basechar 0
AnchorPoint: "Anchor-1" 930 1600 basechar 0
AnchorPoint: "Anchor-0" 660 1650 basechar 0
LayerCount: 2
Fore
SplineSet
881 1322 m 1,0,1
 825 1349 825 1349 757 1349 c 0,2,3
 680 1349 680 1349 638.5 1303 c 128,-1,4
 597 1257 597 1257 577 1162 c 2,5,-1
 547 1024 l 1,6,-1
 784 1024 l 1,7,-1
 743 838 l 1,8,-1
 503 838 l 1,9,-1
 251 -340 l 1,10,-1
 10 -340 l 1,11,-1
 263 838 l 1,12,-1
 88 838 l 1,13,-1
 129 1024 l 1,14,-1
 303 1024 l 1,15,-1
 340 1192 l 2,16,17
 380 1373 380 1373 485 1456.5 c 128,-1,18
 590 1540 590 1540 759 1540 c 0,19,20
 849 1540 849 1540 919 1516 c 1,21,-1
 881 1322 l 1,0,1
EndSplineSet
Substitution2: "SegoeUI-SemiboldItalic-'smcp' Lowercase to Small Capitals lookup 27 subtable" F.c2sc
EndChar

StartChar: g
Encoding: 103 103 173
Width: 1162
GlyphClass: 2
Flags: W
AnchorPoint: "Anchor-15" 180 2100 basechar 0
AnchorPoint: "Anchor-14" 1290 2100 basechar 0
AnchorPoint: "Anchor-13" 600 -320 basechar 0
AnchorPoint: "Anchor-12" 600 -320 basechar 0
AnchorPoint: "Anchor-11" 470 -400 basechar 0
AnchorPoint: "Anchor-10" 420 -450 basechar 0
AnchorPoint: "Anchor-9" 1060 1028 basechar 0
AnchorPoint: "Anchor-8" 897 -420 basechar 0
AnchorPoint: "Anchor-7" 1227 1900 basechar 0
AnchorPoint: "Anchor-6" 520 508 basechar 0
AnchorPoint: "Anchor-5" 1040 1023 basechar 0
AnchorPoint: "Anchor-2" 420 -470 basechar 0
AnchorPoint: "Anchor-1" 1160 1200 basechar 0
AnchorPoint: "Anchor-0" 750 1300 basechar 0
LayerCount: 2
Fore
SplineSet
283 -481 m 0,0,1
 118 -481 118 -481 -34 -405 c 1,2,-1
 9 -201 l 1,3,4
 152 -294 152 -294 301 -294 c 0,5,6
 456 -294 456 -294 547 -209 c 128,-1,7
 638 -124 638 -124 677 64 c 2,8,-1
 703 189 l 1,9,-1
 699 189 l 1,10,11
 624 72 624 72 547.5 23.5 c 128,-1,12
 471 -25 471 -25 378 -25 c 0,13,14
 234 -25 234 -25 151.5 75.5 c 128,-1,15
 69 176 69 176 69 360 c 0,16,17
 69 550 69 550 152.5 711.5 c 128,-1,18
 236 873 236 873 381 961 c 128,-1,19
 526 1049 526 1049 710 1049 c 0,20,21
 873 1049 873 1049 1115 1003 c 1,22,-1
 924 98 l 2,23,24
 878 -119 878 -119 799 -239 c 128,-1,25
 720 -359 720 -359 593.5 -420 c 128,-1,26
 467 -481 467 -481 283 -481 c 0,0,1
843 853 m 1,27,28
 781 868 781 868 691 868 c 0,29,30
 587 868 587 868 499 802 c 128,-1,31
 411 736 411 736 361.5 623 c 128,-1,32
 312 510 312 510 312 377 c 0,33,34
 312 274 312 274 352 220 c 128,-1,35
 392 166 392 166 461 166 c 0,36,37
 531 166 531 166 594 214 c 128,-1,38
 657 262 657 262 709 363 c 128,-1,39
 761 464 761 464 784 575 c 2,40,-1
 843 853 l 1,27,28
EndSplineSet
Substitution2: "SegoeUI-SemiboldItalic-'smcp' Lowercase to Small Capitals lookup 27 subtable" G.c2sc
EndChar

StartChar: h
Encoding: 104 104 174
Width: 1183
GlyphClass: 2
Flags: W
AnchorPoint: "Anchor-15" 180 2100 basechar 0
AnchorPoint: "Anchor-14" 1321 2100 basechar 0
AnchorPoint: "Anchor-13" 800 0 basechar 0
AnchorPoint: "Anchor-12" 800 0 basechar 0
AnchorPoint: "Anchor-11" 690 0 basechar 0
AnchorPoint: "Anchor-9" 1060 938 basechar 0
AnchorPoint: "Anchor-8" 886 -420 basechar 0
AnchorPoint: "Anchor-7" 1216 1900 basechar 0
AnchorPoint: "Anchor-6" 370 1137 basechar 0
AnchorPoint: "Anchor-5" 1030 821 basechar 0
AnchorPoint: "Anchor-2" 440 -15 basechar 0
AnchorPoint: "Anchor-1" 1150 1400 basechar 0
AnchorPoint: "Anchor-0" 770 1650 basechar 0
LayerCount: 2
Fore
SplineSet
1093 773 m 0,0,1
 1093 719 1093 719 1063 576 c 2,2,-1
 941 0 l 1,3,-1
 699 0 l 1,4,-1
 823 592 l 2,5,6
 843 699 843 699 843 723 c 0,7,8
 843 858 843 858 721 858 c 0,9,10
 656 858 656 858 583.5 806.5 c 128,-1,11
 511 755 511 755 455.5 671 c 128,-1,12
 400 587 400 587 382 500 c 2,13,-1
 275 0 l 1,14,-1
 32 0 l 1,15,-1
 355 1516 l 1,16,-1
 597 1516 l 1,17,-1
 445 805 l 1,18,-1
 449 805 l 1,19,20
 532 921 532 921 633 985 c 128,-1,21
 734 1049 734 1049 835 1049 c 0,22,23
 963 1049 963 1049 1028 976.5 c 128,-1,24
 1093 904 1093 904 1093 773 c 0,0,1
EndSplineSet
Substitution2: "SegoeUI-SemiboldItalic-'smcp' Lowercase to Small Capitals lookup 27 subtable" H.c2sc
EndChar

StartChar: i
Encoding: 105 105 175
Width: 590
GlyphClass: 2
Flags: W
AnchorPoint: "Anchor-15" 180 2100 basechar 0
AnchorPoint: "Anchor-14" 710 2100 basechar 0
AnchorPoint: "Anchor-11" 180 0 basechar 0
AnchorPoint: "Anchor-10" 190 20 basechar 0
AnchorPoint: "Anchor-9" 450 1025 basechar 0
AnchorPoint: "Anchor-8" 383 -420 basechar 0
AnchorPoint: "Anchor-7" 713 1900 basechar 0
AnchorPoint: "Anchor-6" 259 550 basechar 0
AnchorPoint: "Anchor-5" 410 1020 basechar 0
AnchorPoint: "Anchor-2" 160 -15 basechar 0
AnchorPoint: "Anchor-1" 600 1550 basechar 0
AnchorPoint: "Anchor-0" 450 1650 basechar 0
LayerCount: 2
Fore
SplineSet
586 1371 m 0,0,1
 586 1311 586 1311 543 1271.5 c 128,-1,2
 500 1232 500 1232 438 1232 c 0,3,4
 378 1232 378 1232 336.5 1268 c 128,-1,5
 295 1304 295 1304 295 1363 c 0,6,7
 295 1424 295 1424 339 1462 c 128,-1,8
 383 1500 383 1500 445 1500 c 0,9,10
 503 1500 503 1500 544.5 1463.5 c 128,-1,11
 586 1427 586 1427 586 1371 c 0,0,1
314 -17 m 0,12,13
 204 -17 204 -17 146.5 38.5 c 128,-1,14
 89 94 89 94 89 197 c 0,15,16
 89 249 89 249 100 299 c 2,17,-1
 249 1024 l 1,18,-1
 492 1024 l 1,19,-1
 356 379 l 2,20,21
 335 279 335 279 335 250 c 0,22,23
 335 174 335 174 422 174 c 0,24,25
 473 174 473 174 513 190 c 1,26,-1
 475 6 l 1,27,28
 389 -17 389 -17 314 -17 c 0,12,13
EndSplineSet
Substitution2: "SegoeUI-SemiboldItalic-Single Substitution lookup 30 subtable" dotlessi
Substitution2: "SegoeUI-SemiboldItalic-'smcp' Lowercase to Small Capitals in Latin lookup 29 subtable" Idotaccent.c2sc
Substitution2: "SegoeUI-SemiboldItalic-'smcp' Lowercase to Small Capitals lookup 28 subtable" I.c2sc
Substitution2: "SegoeUI-SemiboldItalic-'sups' Superscript lookup 3 subtable" uni2071
EndChar

StartChar: j
Encoding: 106 106 176
Width: 515
GlyphClass: 2
Flags: W
AnchorPoint: "Anchor-15" 180 2100 basechar 0
AnchorPoint: "Anchor-14" 672 2100 basechar 0
AnchorPoint: "Anchor-13" -20 -350 basechar 0
AnchorPoint: "Anchor-12" -20 -350 basechar 0
AnchorPoint: "Anchor-11" -140 -420 basechar 0
AnchorPoint: "Anchor-9" 450 1025 basechar 0
AnchorPoint: "Anchor-8" 383 -420 basechar 0
AnchorPoint: "Anchor-7" 713 1900 basechar 0
AnchorPoint: "Anchor-6" 248 495 basechar 0
AnchorPoint: "Anchor-5" 410 1016 basechar 0
AnchorPoint: "Anchor-2" -70 -470 basechar 0
AnchorPoint: "Anchor-1" 600 1550 basechar 0
AnchorPoint: "Anchor-0" 450 1650 basechar 0
LayerCount: 2
Fore
SplineSet
586 1371 m 0,0,1
 586 1311 586 1311 543 1271.5 c 128,-1,2
 500 1232 500 1232 438 1232 c 0,3,4
 378 1232 378 1232 336.5 1268 c 128,-1,5
 295 1304 295 1304 295 1363 c 0,6,7
 295 1424 295 1424 339 1462 c 128,-1,8
 383 1500 383 1500 445 1500 c 0,9,10
 503 1500 503 1500 544.5 1463.5 c 128,-1,11
 586 1427 586 1427 586 1371 c 0,0,1
-184 -481 m 0,12,13
 -303 -481 -303 -481 -367 -450 c 1,14,-1
 -327 -252 l 1,15,16
 -304 -268 -304 -268 -268.5 -279.5 c 128,-1,17
 -233 -291 -233 -291 -208 -291 c 0,18,19
 -119 -291 -119 -291 -58.5 -216.5 c 128,-1,20
 2 -142 2 -142 36 18 c 2,21,-1
 250 1024 l 1,22,-1
 492 1024 l 1,23,-1
 277 14 l 2,24,25
 221 -243 221 -243 107.5 -362 c 128,-1,26
 -6 -481 -6 -481 -184 -481 c 0,12,13
EndSplineSet
Substitution2: "SegoeUI-SemiboldItalic-Single Substitution lookup 30 subtable" uni0237
Substitution2: "SegoeUI-SemiboldItalic-'smcp' Lowercase to Small Capitals lookup 27 subtable" J.c2sc
EndChar

StartChar: k
Encoding: 107 107 177
Width: 1077
GlyphClass: 2
Flags: W
AnchorPoint: "Anchor-15" 180 2100 basechar 0
AnchorPoint: "Anchor-14" 1184 2100 basechar 0
AnchorPoint: "Anchor-13" 730 0 basechar 0
AnchorPoint: "Anchor-12" 730 0 basechar 0
AnchorPoint: "Anchor-11" 640 0 basechar 0
AnchorPoint: "Anchor-10" 359 -50 basechar 0
AnchorPoint: "Anchor-9" 1020 1035 basechar 0
AnchorPoint: "Anchor-8" 917 -420 basechar 0
AnchorPoint: "Anchor-7" 1247 1900 basechar 0
AnchorPoint: "Anchor-6" 360 1061 basechar 0
AnchorPoint: "Anchor-5" 960 1026 basechar 0
AnchorPoint: "Anchor-2" 440 -15 basechar 0
AnchorPoint: "Anchor-1" 1080 1400 basechar 0
AnchorPoint: "Anchor-0" 770 1650 basechar 0
LayerCount: 2
Fore
SplineSet
631 546 m 1,0,-1
 944 0 l 1,1,-1
 673 0 l 1,2,-1
 392 536 l 1,3,-1
 388 536 l 1,4,-1
 274 0 l 1,5,-1
 32 0 l 1,6,-1
 355 1516 l 1,7,-1
 597 1516 l 1,8,-1
 398 585 l 1,9,-1
 402 585 l 1,10,-1
 861 1024 l 1,11,-1
 1155 1024 l 1,12,-1
 631 546 l 1,0,-1
EndSplineSet
Substitution2: "SegoeUI-SemiboldItalic-'smcp' Lowercase to Small Capitals lookup 27 subtable" K.c2sc
EndChar

StartChar: l
Encoding: 108 108 178
Width: 590
GlyphClass: 2
Flags: W
AnchorPoint: "Anchor-15" 180 2100 basechar 0
AnchorPoint: "Anchor-14" 710 2100 basechar 0
AnchorPoint: "Anchor-13" 320 0 basechar 0
AnchorPoint: "Anchor-12" 325 0 basechar 0
AnchorPoint: "Anchor-11" 180 0 basechar 0
AnchorPoint: "Anchor-10" 190 20 basechar 0
AnchorPoint: "Anchor-9" 539 1522 basechar 0
AnchorPoint: "Anchor-8" 389 -420 basechar 0
AnchorPoint: "Anchor-7" 719 1900 basechar 0
AnchorPoint: "Anchor-6" 300 761 basechar 0
AnchorPoint: "Anchor-5" 525 1513 basechar 0
AnchorPoint: "Anchor-2" 160 -15 basechar 0
AnchorPoint: "Anchor-1" 600 1600 basechar 0
AnchorPoint: "Anchor-0" 490 1650 basechar 0
LayerCount: 2
Fore
SplineSet
314 -17 m 0,0,1
 203 -17 203 -17 145 38 c 128,-1,2
 87 93 87 93 87 194 c 0,3,4
 87 261 87 261 125 435.5 c 128,-1,5
 163 610 163 610 355 1516 c 1,6,-1
 598 1516 l 1,7,-1
 356 379 l 2,8,9
 335 279 335 279 335 250 c 0,10,11
 335 174 335 174 422 174 c 0,12,13
 473 174 473 174 513 190 c 1,14,-1
 475 6 l 1,15,16
 398 -17 398 -17 314 -17 c 0,0,1
EndSplineSet
Substitution2: "SegoeUI-SemiboldItalic-'smcp' Lowercase to Small Capitals lookup 27 subtable" L.c2sc
EndChar

StartChar: m
Encoding: 109 109 179
Width: 1811
GlyphClass: 2
Flags: W
AnchorPoint: "Anchor-15" 180 2100 basechar 0
AnchorPoint: "Anchor-14" 1937 2100 basechar 0
AnchorPoint: "Anchor-13" 1415 0 basechar 0
AnchorPoint: "Anchor-12" 1410 0 basechar 0
AnchorPoint: "Anchor-11" 1300 0 basechar 0
AnchorPoint: "Anchor-9" 1700 888 basechar 0
AnchorPoint: "Anchor-8" 1503 -420 basechar 0
AnchorPoint: "Anchor-7" 1833 1900 basechar 0
AnchorPoint: "Anchor-6" 882 524 basechar 0
AnchorPoint: "Anchor-5" 1640 928 basechar 0
AnchorPoint: "Anchor-2" 740 -15 basechar 0
AnchorPoint: "Anchor-1" 1730 1200 basechar 0
AnchorPoint: "Anchor-0" 1070 1300 basechar 0
LayerCount: 2
Fore
SplineSet
1722 773 m 0,0,1
 1722 723 1722 723 1691 576 c 2,2,-1
 1568 0 l 1,3,-1
 1328 0 l 1,4,-1
 1453 592 l 2,5,6
 1473 699 1473 699 1473 723 c 0,7,8
 1473 858 1473 858 1354 858 c 0,9,10
 1262 858 1262 858 1159 745.5 c 128,-1,11
 1056 633 1056 633 1029 504 c 2,12,-1
 923 0 l 1,13,-1
 681 0 l 1,14,-1
 807 592 l 2,15,16
 827 699 827 699 827 723 c 0,17,18
 827 858 827 858 708 858 c 0,19,20
 647 858 647 858 577 805 c 128,-1,21
 507 752 507 752 453 667.5 c 128,-1,22
 399 583 399 583 383 503 c 2,23,-1
 275 0 l 1,24,-1
 32 0 l 1,25,-1
 187 716 l 2,26,27
 223 888 223 888 240 1024 c 1,28,-1
 476 1024 l 1,29,30
 468 939 468 939 445 804 c 1,31,-1
 449 804 l 1,32,33
 528 920 528 920 626 984.5 c 128,-1,34
 724 1049 724 1049 821 1049 c 0,35,36
 1056 1049 1056 1049 1073 799 c 1,37,38
 1157 921 1157 921 1258.5 985 c 128,-1,39
 1360 1049 1360 1049 1466 1049 c 0,40,41
 1594 1049 1594 1049 1658 977.5 c 128,-1,42
 1722 906 1722 906 1722 773 c 0,0,1
EndSplineSet
Substitution2: "SegoeUI-SemiboldItalic-'smcp' Lowercase to Small Capitals lookup 27 subtable" M.c2sc
EndChar

StartChar: n
Encoding: 110 110 180
Width: 1188
GlyphClass: 2
Flags: W
AnchorPoint: "Anchor-15" 180 2100 basechar 0
AnchorPoint: "Anchor-14" 1331 2100 basechar 0
AnchorPoint: "Anchor-13" 805 0 basechar 0
AnchorPoint: "Anchor-12" 805 0 basechar 0
AnchorPoint: "Anchor-11" 700 0 basechar 0
AnchorPoint: "Anchor-10" 429 -50 basechar 0
AnchorPoint: "Anchor-9" 1100 888 basechar 0
AnchorPoint: "Anchor-8" 896 -420 basechar 0
AnchorPoint: "Anchor-7" 1226 1900 basechar 0
AnchorPoint: "Anchor-6" 588 524 basechar 0
AnchorPoint: "Anchor-5" 1040 928 basechar 0
AnchorPoint: "Anchor-2" 440 -15 basechar 0
AnchorPoint: "Anchor-1" 1140 1200 basechar 0
AnchorPoint: "Anchor-0" 770 1300 basechar 0
LayerCount: 2
Fore
SplineSet
1098 774 m 0,0,1
 1098 723 1098 723 1067 576 c 2,2,-1
 945 0 l 1,3,-1
 703 0 l 1,4,-1
 827 592 l 2,5,6
 847 699 847 699 847 723 c 0,7,8
 847 783 847 783 815.5 820.5 c 128,-1,9
 784 858 784 858 726 858 c 0,10,11
 662 858 662 858 589.5 807.5 c 128,-1,12
 517 757 517 757 461 672 c 128,-1,13
 405 587 405 587 387 503 c 2,14,-1
 280 0 l 1,15,-1
 36 0 l 1,16,-1
 191 716 l 2,17,18
 227 888 227 888 244 1024 c 1,19,-1
 480 1024 l 1,20,21
 472 939 472 939 449 804 c 1,22,-1
 453 804 l 1,23,24
 533 921 533 921 635.5 985 c 128,-1,25
 738 1049 738 1049 839 1049 c 0,26,27
 963 1049 963 1049 1030.5 978 c 128,-1,28
 1098 907 1098 907 1098 774 c 0,0,1
EndSplineSet
Substitution2: "SegoeUI-SemiboldItalic-'smcp' Lowercase to Small Capitals lookup 27 subtable" N.c2sc
Substitution2: "SegoeUI-SemiboldItalic-'sups' Superscript lookup 3 subtable" uni207F
EndChar

StartChar: o
Encoding: 111 111 181
Width: 1137
GlyphClass: 2
Flags: W
AnchorPoint: "Anchor-15" 180 2100 basechar 0
AnchorPoint: "Anchor-14" 1276 2100 basechar 0
AnchorPoint: "Anchor-11" 520 0 basechar 0
AnchorPoint: "Anchor-10" 450 -15 basechar 0
AnchorPoint: "Anchor-9" 1020 900 basechar 0
AnchorPoint: "Anchor-8" 868 -420 basechar 0
AnchorPoint: "Anchor-7" 1198 1900 basechar 0
AnchorPoint: "Anchor-6" 560 536 basechar 0
AnchorPoint: "Anchor-5" 990 910 basechar 0
AnchorPoint: "Anchor-2" 450 -25 basechar 0
AnchorPoint: "Anchor-1" 1100 1200 basechar 0
AnchorPoint: "Anchor-0" 720 1300 basechar 0
LayerCount: 2
Fore
SplineSet
1067 631 m 0,0,1
 1067 445 1067 445 992.5 291.5 c 128,-1,2
 918 138 918 138 786.5 56.5 c 128,-1,3
 655 -25 655 -25 483 -25 c 0,4,5
 290 -25 290 -25 179.5 86 c 128,-1,6
 69 197 69 197 69 393 c 0,7,8
 69 579 69 579 143.5 731 c 128,-1,9
 218 883 218 883 349 966 c 128,-1,10
 480 1049 480 1049 653 1049 c 0,11,12
 843 1049 843 1049 955 937.5 c 128,-1,13
 1067 826 1067 826 1067 631 c 0,0,1
823 625 m 0,14,15
 823 732 823 732 773.5 795 c 128,-1,16
 724 858 724 858 636 858 c 0,17,18
 545 858 545 858 471 795.5 c 128,-1,19
 397 733 397 733 354.5 626 c 128,-1,20
 312 519 312 519 312 397 c 0,21,22
 312 289 312 289 362.5 227.5 c 128,-1,23
 413 166 413 166 500 166 c 0,24,25
 593 166 593 166 667.5 228.5 c 128,-1,26
 742 291 742 291 782.5 398 c 128,-1,27
 823 505 823 505 823 625 c 0,14,15
EndSplineSet
Substitution2: "SegoeUI-SemiboldItalic-'smcp' Lowercase to Small Capitals lookup 27 subtable" O.c2sc
EndChar

StartChar: p
Encoding: 112 112 182
Width: 1162
GlyphClass: 2
Flags: W
AnchorPoint: "Anchor-15" 180 2100 basechar 0
AnchorPoint: "Anchor-14" 1290 2100 basechar 0
AnchorPoint: "Anchor-13" 670 63 basechar 0
AnchorPoint: "Anchor-12" 670 63 basechar 0
AnchorPoint: "Anchor-11" -90 -480 basechar 0
AnchorPoint: "Anchor-9" 1040 903 basechar 0
AnchorPoint: "Anchor-8" 882 -420 basechar 0
AnchorPoint: "Anchor-7" 1212 1900 basechar 0
AnchorPoint: "Anchor-6" 580 495 basechar 0
AnchorPoint: "Anchor-5" 1000 943 basechar 0
AnchorPoint: "Anchor-2" 400 -470 basechar 0
AnchorPoint: "Anchor-1" 1100 1200 basechar 0
AnchorPoint: "Anchor-0" 720 1300 basechar 0
LayerCount: 2
Fore
SplineSet
1092 668 m 0,0,1
 1092 481 1092 481 1010 317 c 128,-1,2
 928 153 928 153 785.5 64 c 128,-1,3
 643 -25 643 -25 466 -25 c 0,4,5
 364 -25 364 -25 272 4 c 1,6,-1
 171 -473 l 1,7,-1
 -72 -473 l 1,8,-1
 176 697 l 2,9,10
 188 749 188 749 201.5 854 c 128,-1,11
 215 959 215 959 218 1024 c 1,12,-1
 457 1024 l 1,13,14
 457 998 457 998 449 931.5 c 128,-1,15
 441 865 441 865 435 829 c 1,16,-1
 439 829 l 1,17,18
 576 1049 576 1049 787 1049 c 0,19,20
 932 1049 932 1049 1012 947 c 128,-1,21
 1092 845 1092 845 1092 668 c 0,0,1
850 646 m 0,22,23
 850 752 850 752 809 805 c 128,-1,24
 768 858 768 858 692 858 c 0,25,26
 622 858 622 858 557 807 c 128,-1,27
 492 756 492 756 439.5 655 c 128,-1,28
 387 554 387 554 365 449 c 2,29,-1
 307 183 l 1,30,31
 328 175 328 175 380 165.5 c 128,-1,32
 432 156 432 156 472 156 c 0,33,34
 579 156 579 156 665.5 223 c 128,-1,35
 752 290 752 290 801 404.5 c 128,-1,36
 850 519 850 519 850 646 c 0,22,23
EndSplineSet
Substitution2: "SegoeUI-SemiboldItalic-'smcp' Lowercase to Small Capitals lookup 27 subtable" P.c2sc
EndChar

StartChar: q
Encoding: 113 113 183
Width: 1162
GlyphClass: 2
Flags: W
AnchorPoint: "Anchor-15" 180 2100 basechar 0
AnchorPoint: "Anchor-14" 1290 2100 basechar 0
AnchorPoint: "Anchor-13" 660 -470 basechar 0
AnchorPoint: "Anchor-12" 650 -470 basechar 0
AnchorPoint: "Anchor-11" 550 -480 basechar 0
AnchorPoint: "Anchor-9" 1070 1027 basechar 0
AnchorPoint: "Anchor-8" 897 -420 basechar 0
AnchorPoint: "Anchor-7" 1227 1900 basechar 0
AnchorPoint: "Anchor-6" 530 531 basechar 0
AnchorPoint: "Anchor-5" 1040 1027 basechar 0
AnchorPoint: "Anchor-2" 400 -470 basechar 0
AnchorPoint: "Anchor-1" 1130 1200 basechar 0
AnchorPoint: "Anchor-0" 770 1300 basechar 0
LayerCount: 2
Fore
SplineSet
803 -473 m 1,0,-1
 562 -473 l 1,1,-1
 657 -22 l 2,2,3
 678 73 678 73 705 177 c 1,4,-1
 701 177 l 1,5,6
 565 -25 565 -25 379 -25 c 0,7,8
 233 -25 233 -25 151 76.5 c 128,-1,9
 69 178 69 178 69 363 c 0,10,11
 69 553 69 553 156.5 719 c 128,-1,12
 244 885 244 885 390.5 967 c 128,-1,13
 537 1049 537 1049 725 1049 c 0,14,15
 915 1049 915 1049 1114 994 c 1,16,-1
 803 -473 l 1,0,-1
842 849 m 1,17,18
 773 868 773 868 703 868 c 0,19,20
 592 868 592 868 505 807.5 c 128,-1,21
 418 747 418 747 365 627 c 128,-1,22
 312 507 312 507 312 379 c 0,23,24
 312 273 312 273 351.5 219.5 c 128,-1,25
 391 166 391 166 465 166 c 0,26,27
 571 166 571 166 657 275.5 c 128,-1,28
 743 385 743 385 783 568 c 2,29,-1
 842 849 l 1,17,18
EndSplineSet
Substitution2: "SegoeUI-SemiboldItalic-'smcp' Lowercase to Small Capitals lookup 27 subtable" Q.c2sc
EndChar

StartChar: r
Encoding: 114 114 184
Width: 773
GlyphClass: 2
Flags: W
AnchorPoint: "Anchor-15" 180 2100 basechar 0
AnchorPoint: "Anchor-14" 907 2100 basechar 0
AnchorPoint: "Anchor-13" 130 0 basechar 0
AnchorPoint: "Anchor-12" 120 0 basechar 0
AnchorPoint: "Anchor-11" 20 0 basechar 0
AnchorPoint: "Anchor-10" 110 0 basechar 0
AnchorPoint: "Anchor-9" 840 1026 basechar 0
AnchorPoint: "Anchor-8" 645 -420 basechar 0
AnchorPoint: "Anchor-7" 975 1900 basechar 0
AnchorPoint: "Anchor-6" 240 485 basechar 0
AnchorPoint: "Anchor-5" 780 1030 basechar 0
AnchorPoint: "Anchor-2" 100 -15 basechar 0
AnchorPoint: "Anchor-1" 870 1200 basechar 0
AnchorPoint: "Anchor-0" 620 1300 basechar 0
LayerCount: 2
Fore
SplineSet
798 791 m 1,0,1
 737 823 737 823 680 823 c 0,2,3
 576 823 576 823 490.5 718 c 128,-1,4
 405 613 405 613 368 438 c 2,5,-1
 275 0 l 1,6,-1
 33 0 l 1,7,-1
 175 666 l 2,8,9
 226 915 226 915 235 1024 c 1,10,-1
 473 1024 l 1,11,12
 463 927 463 927 445 808 c 1,13,-1
 449 808 l 1,14,15
 512 922 512 922 581.5 985.5 c 128,-1,16
 651 1049 651 1049 744 1049 c 0,17,18
 782 1049 782 1049 845 1034 c 1,19,-1
 798 791 l 1,0,1
EndSplineSet
Substitution2: "SegoeUI-SemiboldItalic-'smcp' Lowercase to Small Capitals lookup 27 subtable" R.c2sc
EndChar

StartChar: s
Encoding: 115 115 185
Width: 854
GlyphClass: 2
Flags: W
AnchorPoint: "Anchor-15" 180 2100 basechar 0
AnchorPoint: "Anchor-14" 989 2100 basechar 0
AnchorPoint: "Anchor-13" 500 80 basechar 0
AnchorPoint: "Anchor-12" 500 80 basechar 0
AnchorPoint: "Anchor-11" 310 0 basechar 0
AnchorPoint: "Anchor-10" 274 -15 basechar 0
AnchorPoint: "Anchor-9" 800 1011 basechar 0
AnchorPoint: "Anchor-8" 610 -420 basechar 0
AnchorPoint: "Anchor-7" 940 1900 basechar 0
AnchorPoint: "Anchor-6" 434 536 basechar 0
AnchorPoint: "Anchor-5" 750 1020 basechar 0
AnchorPoint: "Anchor-2" 280 -25 basechar 0
AnchorPoint: "Anchor-1" 860 1200 basechar 0
AnchorPoint: "Anchor-0" 550 1300 basechar 0
LayerCount: 2
Fore
SplineSet
771 806 m 1,0,1
 727 832 727 832 666.5 851 c 128,-1,2
 606 870 606 870 546 870 c 0,3,4
 462 870 462 870 420.5 834.5 c 128,-1,5
 379 799 379 799 379 743 c 0,6,7
 379 693 379 693 413 660 c 128,-1,8
 447 627 447 627 511 592 c 0,9,10
 641 519 641 519 688.5 453 c 128,-1,11
 736 387 736 387 736 298 c 0,12,13
 736 201 736 201 685.5 129 c 128,-1,14
 635 57 635 57 538 16 c 128,-1,15
 441 -25 441 -25 301 -25 c 0,16,17
 225 -25 225 -25 140 -8 c 128,-1,18
 55 9 55 9 10 33 c 1,19,-1
 50 231 l 1,20,21
 105 198 105 198 180.5 175 c 128,-1,22
 256 152 256 152 326 152 c 0,23,24
 414 152 414 152 457 185 c 128,-1,25
 500 218 500 218 500 276 c 0,26,27
 500 321 500 321 470.5 354 c 128,-1,28
 441 387 441 387 356 433 c 0,29,30
 243 494 243 494 191.5 562 c 128,-1,31
 140 630 140 630 140 722 c 0,32,33
 140 816 140 816 188.5 890.5 c 128,-1,34
 237 965 237 965 328.5 1007 c 128,-1,35
 420 1049 420 1049 546 1049 c 0,36,37
 621 1049 621 1049 692.5 1035.5 c 128,-1,38
 764 1022 764 1022 813 1002 c 1,39,-1
 771 806 l 1,0,1
EndSplineSet
Substitution2: "SegoeUI-SemiboldItalic-'smcp' Lowercase to Small Capitals lookup 27 subtable" S.c2sc
EndChar

StartChar: t
Encoding: 116 116 186
Width: 715
GlyphClass: 2
Flags: W
AnchorPoint: "Anchor-15" 180 2100 basechar 0
AnchorPoint: "Anchor-14" 842 2100 basechar 0
AnchorPoint: "Anchor-13" 420 0 basechar 0
AnchorPoint: "Anchor-12" 410 0 basechar 0
AnchorPoint: "Anchor-11" 290 -15 basechar 0
AnchorPoint: "Anchor-10" 297 0 basechar 0
AnchorPoint: "Anchor-9" 700 1027 basechar 0
AnchorPoint: "Anchor-8" 571 -420 basechar 0
AnchorPoint: "Anchor-7" 901 1900 basechar 0
AnchorPoint: "Anchor-6" 300 539 basechar 0
AnchorPoint: "Anchor-5" 700 1022 basechar 0
AnchorPoint: "Anchor-2" 234 -25 basechar 0
AnchorPoint: "Anchor-1" 660 1400 basechar 0
AnchorPoint: "Anchor-0" 480 1500 basechar 0
LayerCount: 2
Fore
SplineSet
733 838 m 1,0,-1
 484 838 l 1,1,-1
 386 375 l 2,2,3
 368 288 368 288 368 258 c 0,4,5
 368 212 368 212 389 191.5 c 128,-1,6
 410 171 410 171 458 171 c 0,7,8
 504 171 504 171 598 207 c 1,9,-1
 558 18 l 1,10,11
 458 -21 458 -21 360 -21 c 0,12,13
 123 -21 123 -21 123 210 c 0,14,15
 123 268 123 268 144 362 c 2,16,-1
 244 838 l 1,17,-1
 80 838 l 1,18,-1
 124 1024 l 1,19,-1
 283 1024 l 1,20,-1
 336 1269 l 1,21,-1
 590 1336 l 1,22,-1
 525 1024 l 1,23,-1
 776 1024 l 1,24,-1
 733 838 l 1,0,-1
EndSplineSet
Substitution2: "SegoeUI-SemiboldItalic-'smcp' Lowercase to Small Capitals lookup 27 subtable" T.c2sc
EndChar

StartChar: u
Encoding: 117 117 187
Width: 1184
GlyphClass: 2
Flags: W
AnchorPoint: "Anchor-15" 180 2100 basechar 0
AnchorPoint: "Anchor-14" 1323 2100 basechar 0
AnchorPoint: "Anchor-13" 790 0 basechar 0
AnchorPoint: "Anchor-12" 790 0 basechar 0
AnchorPoint: "Anchor-11" 680 0 basechar 0
AnchorPoint: "Anchor-10" 379 -15 basechar 0
AnchorPoint: "Anchor-9" 1120 1020 basechar 0
AnchorPoint: "Anchor-8" 937 -420 basechar 0
AnchorPoint: "Anchor-7" 1267 1900 basechar 0
AnchorPoint: "Anchor-6" 560 524 basechar 0
AnchorPoint: "Anchor-5" 1070 1020 basechar 0
AnchorPoint: "Anchor-2" 400 -25 basechar 0
AnchorPoint: "Anchor-1" 1150 1200 basechar 0
AnchorPoint: "Anchor-0" 700 1300 basechar 0
LayerCount: 2
Fore
SplineSet
941 0 m 1,0,-1
 701 0 l 1,1,-1
 732 217 l 1,2,-1
 728 217 l 1,3,4
 647 103 647 103 547 39 c 128,-1,5
 447 -25 447 -25 343 -25 c 0,6,7
 216 -25 216 -25 149 47.5 c 128,-1,8
 82 120 82 120 82 251 c 0,9,10
 82 300 82 300 113 447 c 2,11,-1
 235 1024 l 1,12,-1
 477 1024 l 1,13,-1
 352 435 l 2,14,15
 331 323 331 323 331 301 c 0,16,17
 331 241 331 241 361 206 c 128,-1,18
 391 171 391 171 451 171 c 0,19,20
 520 171 520 171 592.5 222 c 128,-1,21
 665 273 665 273 721 359.5 c 128,-1,22
 777 446 777 446 795 532 c 2,23,-1
 900 1024 l 1,24,-1
 1142 1024 l 1,25,-1
 995 336 l 2,26,27
 956 150 956 150 941 0 c 1,0,-1
EndSplineSet
Substitution2: "SegoeUI-SemiboldItalic-'smcp' Lowercase to Small Capitals lookup 27 subtable" U.c2sc
EndChar

StartChar: v
Encoding: 118 118 188
Width: 1030
GlyphClass: 2
Flags: W
AnchorPoint: "Anchor-15" 180 2100 basechar 0
AnchorPoint: "Anchor-14" 1149 2100 basechar 0
AnchorPoint: "Anchor-13" 365 0 basechar 0
AnchorPoint: "Anchor-12" 365 0 basechar 0
AnchorPoint: "Anchor-11" 270 0 basechar 0
AnchorPoint: "Anchor-9" 1060 1024 basechar 0
AnchorPoint: "Anchor-8" 909 -420 basechar 0
AnchorPoint: "Anchor-7" 1239 1900 basechar 0
AnchorPoint: "Anchor-6" 535 620 basechar 0
AnchorPoint: "Anchor-5" 1010 1024 basechar 0
AnchorPoint: "Anchor-2" 350 -15 basechar 0
AnchorPoint: "Anchor-1" 1130 1200 basechar 0
AnchorPoint: "Anchor-0" 620 1300 basechar 0
LayerCount: 2
Fore
SplineSet
520 0 m 1,0,-1
 274 0 l 1,1,-1
 126 1024 l 1,2,-1
 366 1024 l 1,3,-1
 432 418 l 2,4,5
 443 330 443 330 443 250 c 2,6,-1
 442 221 l 1,7,-1
 446 221 l 1,8,9
 489 323 489 323 538 417 c 2,10,-1
 859 1024 l 1,11,-1
 1126 1024 l 1,12,-1
 520 0 l 1,0,-1
EndSplineSet
Substitution2: "SegoeUI-SemiboldItalic-'smcp' Lowercase to Small Capitals lookup 27 subtable" V.c2sc
EndChar

StartChar: w
Encoding: 119 119 189
Width: 1551
GlyphClass: 2
Flags: W
AnchorPoint: "Anchor-15" 180 2100 basechar 0
AnchorPoint: "Anchor-14" 1655 2100 basechar 0
AnchorPoint: "Anchor-13" 945 0 basechar 0
AnchorPoint: "Anchor-12" 940 0 basechar 0
AnchorPoint: "Anchor-11" 840 0 basechar 0
AnchorPoint: "Anchor-9" 1560 1024 basechar 0
AnchorPoint: "Anchor-8" 1398 -420 basechar 0
AnchorPoint: "Anchor-7" 1728 1900 basechar 0
AnchorPoint: "Anchor-6" 740 512 basechar 0
AnchorPoint: "Anchor-5" 1510 1024 basechar 0
AnchorPoint: "Anchor-2" 605 -15 basechar 0
AnchorPoint: "Anchor-1" 1620 1200 basechar 0
AnchorPoint: "Anchor-0" 935 1300 basechar 0
LayerCount: 2
Fore
SplineSet
1112 0 m 1,0,-1
 867 0 l 1,1,-1
 827 644 l 1,2,-1
 825 711 l 2,3,4
 825 743 825 743 831 782 c 1,5,-1
 827 782 l 1,6,7
 814 728 814 728 782 665 c 2,8,-1
 448 0 l 1,9,-1
 200 0 l 1,10,-1
 121 1024 l 1,11,-1
 351 1024 l 1,12,-1
 376 308 l 1,13,-1
 376 296 l 2,14,15
 376 249 376 249 369 202 c 1,16,-1
 375 202 l 1,17,18
 400 274 400 274 406 288.5 c 128,-1,19
 412 303 412 303 772 1024 c 1,20,-1
 997 1024 l 1,21,-1
 1034 264 l 2,22,23
 1034 244 1034 244 1028 200 c 1,24,-1
 1035 200 l 1,25,26
 1043 235 1043 235 1084 324 c 2,27,-1
 1392 1024 l 1,28,-1
 1629 1024 l 1,29,-1
 1112 0 l 1,0,-1
EndSplineSet
Substitution2: "SegoeUI-SemiboldItalic-'smcp' Lowercase to Small Capitals lookup 27 subtable" W.c2sc
EndChar

StartChar: x
Encoding: 120 120 190
Width: 1027
GlyphClass: 2
Flags: W
AnchorPoint: "Anchor-15" 180 2100 basechar 0
AnchorPoint: "Anchor-14" 1112 2100 basechar 0
AnchorPoint: "Anchor-11" 570 0 basechar 0
AnchorPoint: "Anchor-9" 980 1024 basechar 0
AnchorPoint: "Anchor-8" 868 -420 basechar 0
AnchorPoint: "Anchor-7" 1198 1900 basechar 0
AnchorPoint: "Anchor-6" 470 512 basechar 0
AnchorPoint: "Anchor-5" 940 1024 basechar 0
AnchorPoint: "Anchor-2" 320 -15 basechar 0
AnchorPoint: "Anchor-1" 1080 1200 basechar 0
AnchorPoint: "Anchor-0" 610 1300 basechar 0
LayerCount: 2
Fore
SplineSet
669 507 m 1,0,-1
 901 0 l 1,1,-1
 635 0 l 1,2,-1
 525 293 l 1,3,-1
 493 390 l 1,4,-1
 488 390 l 1,5,6
 467 358 467 358 448.5 331.5 c 128,-1,7
 430 305 430 305 188 0 c 1,8,-1
 -95 0 l 1,9,-1
 363 514 l 1,10,-1
 139 1024 l 1,11,-1
 405 1024 l 1,12,-1
 509 726 l 2,13,14
 527 675 527 675 538 624 c 1,15,-1
 542 624 l 1,16,17
 556 645 556 645 575 672 c 128,-1,18
 594 699 594 699 849 1024 c 1,19,-1
 1122 1024 l 1,20,-1
 669 507 l 1,0,-1
EndSplineSet
Substitution2: "SegoeUI-SemiboldItalic-'smcp' Lowercase to Small Capitals lookup 27 subtable" X.c2sc
EndChar

StartChar: y
Encoding: 121 121 191
Width: 1046
GlyphClass: 2
Flags: W
AnchorPoint: "Anchor-15" 180 2100 basechar 0
AnchorPoint: "Anchor-14" 1171 2100 basechar 0
AnchorPoint: "Anchor-11" -10 -440 basechar 0
AnchorPoint: "Anchor-9" 1080 1036 basechar 0
AnchorPoint: "Anchor-8" 944 -420 basechar 0
AnchorPoint: "Anchor-7" 1274 1900 basechar 0
AnchorPoint: "Anchor-6" 495 602 basechar 0
AnchorPoint: "Anchor-5" 1040 1020 basechar 0
AnchorPoint: "Anchor-2" 355 -470 basechar 0
AnchorPoint: "Anchor-1" 1160 1200 basechar 0
AnchorPoint: "Anchor-0" 625 1300 basechar 0
LayerCount: 2
Fore
SplineSet
-27 -481 m 0,0,1
 -97 -481 -97 -481 -160 -460 c 1,2,-1
 -118 -266 l 1,3,4
 -79 -290 -79 -290 -18 -290 c 0,5,6
 108 -290 108 -290 196 -155 c 2,7,-1
 299 5 l 1,8,-1
 106 1024 l 1,9,-1
 357 1024 l 1,10,-1
 453 319 l 1,11,-1
 457 254 l 1,12,-1
 455 212 l 1,13,-1
 460 212 l 1,14,15
 485 276 485 276 508 318 c 2,16,-1
 891 1024 l 1,17,-1
 1148 1024 l 1,18,-1
 459 -130 l 2,19,20
 345 -321 345 -321 232.5 -401 c 128,-1,21
 120 -481 120 -481 -27 -481 c 0,0,1
EndSplineSet
Substitution2: "SegoeUI-SemiboldItalic-'smcp' Lowercase to Small Capitals lookup 27 subtable" Y.c2sc
EndChar

StartChar: z
Encoding: 122 122 192
Width: 960
GlyphClass: 2
Flags: W
AnchorPoint: "Anchor-15" 180 2100 basechar 0
AnchorPoint: "Anchor-14" 1106 2100 basechar 0
AnchorPoint: "Anchor-13" 680 0 basechar 0
AnchorPoint: "Anchor-12" 680 0 basechar 0
AnchorPoint: "Anchor-11" 520 0 basechar 0
AnchorPoint: "Anchor-9" 980 1024 basechar 0
AnchorPoint: "Anchor-8" 841 -420 basechar 0
AnchorPoint: "Anchor-7" 1171 1900 basechar 0
AnchorPoint: "Anchor-6" 463 512 basechar 0
AnchorPoint: "Anchor-5" 940 1024 basechar 0
AnchorPoint: "Anchor-2" 300 -15 basechar 0
AnchorPoint: "Anchor-1" 1050 1200 basechar 0
AnchorPoint: "Anchor-0" 660 1300 basechar 0
LayerCount: 2
Fore
SplineSet
316 186 m 1,0,-1
 845 186 l 1,1,-1
 805 0 l 1,2,-1
 -81 0 l 1,3,-1
 -62 93 l 1,4,-1
 645 838 l 1,5,-1
 151 838 l 1,6,-1
 191 1024 l 1,7,-1
 1026 1024 l 1,8,-1
 1003 919 l 1,9,-1
 316 186 l 1,0,-1
EndSplineSet
Substitution2: "SegoeUI-SemiboldItalic-'smcp' Lowercase to Small Capitals lookup 27 subtable" Z.c2sc
EndChar

StartChar: braceleft
Encoding: 123 123 193
Width: 690
GlyphClass: 2
Flags: W
LayerCount: 2
Fore
SplineSet
304 539 m 1,0,-1
 304 535 l 1,1,2
 397 486 397 486 397 350 c 0,3,4
 397 299 397 299 386 246 c 2,5,-1
 334 9 l 2,6,7
 324 -34 324 -34 324 -71 c 0,8,9
 324 -130 324 -130 355.5 -157.5 c 128,-1,10
 387 -185 387 -185 453 -187 c 1,11,-1
 421 -341 l 1,12,13
 276 -341 276 -341 199.5 -278 c 128,-1,14
 123 -215 123 -215 123 -93 c 0,15,16
 123 -46 123 -46 135 8 c 2,17,-1
 191 269 l 2,18,19
 200 309 200 309 200 343 c 0,20,21
 200 469 200 469 77 475 c 1,22,-1
 110 625 l 1,23,24
 191 628 191 628 238 672 c 128,-1,25
 285 716 285 716 305 814 c 2,26,-1
 362 1084 l 2,27,28
 389 1209 389 1209 442 1285 c 128,-1,29
 495 1361 495 1361 575.5 1396.5 c 128,-1,30
 656 1432 656 1432 797 1434 c 1,31,-1
 765 1277 l 1,32,33
 679 1277 679 1277 632 1231.5 c 128,-1,34
 585 1186 585 1186 565 1087 c 2,35,-1
 507 822 l 2,36,37
 454 585 454 585 304 539 c 1,0,-1
EndSplineSet
Position2: "SegoeUI-SemiboldItalic-'case' Case-Sensitive Forms lookup 15 subtable" dx=30 dy=140 dh=0 dv=0
EndChar

StartChar: bar
Encoding: 124 124 194
Width: 580
GlyphClass: 2
Flags: W
LayerCount: 2
Fore
SplineSet
201 -481 m 1,0,-1
 201 1567 l 1,1,-1
 400 1567 l 1,2,-1
 400 -481 l 1,3,-1
 201 -481 l 1,0,-1
EndSplineSet
EndChar

StartChar: braceright
Encoding: 125 125 195
Width: 690
GlyphClass: 2
Flags: W
LayerCount: 2
Fore
SplineSet
-109 -339 m 1,0,-1
 -76 -183 l 1,1,2
 5 -183 5 -183 54 -139.5 c 128,-1,3
 103 -96 103 -96 125 8 c 2,4,-1
 180 272 l 2,5,6
 203 384 203 384 254.5 458 c 128,-1,7
 306 532 306 532 385 556 c 1,8,-1
 385 560 l 1,9,10
 291 611 291 611 291 745 c 0,11,12
 291 799 291 799 303 850 c 2,13,-1
 353 1085 l 2,14,15
 363 1129 363 1129 363 1164 c 0,16,17
 363 1223 363 1223 332 1251 c 128,-1,18
 301 1279 301 1279 235 1281 c 1,19,-1
 267 1435 l 1,20,21
 565 1431 565 1431 565 1189 c 0,22,23
 565 1140 565 1140 553 1086 c 2,24,-1
 497 826 l 2,25,26
 488 784 488 784 488 752 c 0,27,28
 488 623 488 623 611 619 c 1,29,-1
 578 469 l 1,30,31
 497 467 497 467 450.5 422 c 128,-1,32
 404 377 404 377 383 280 c 2,33,-1
 325 11 l 2,34,35
 298 -115 298 -115 243.5 -191.5 c 128,-1,36
 189 -268 189 -268 108.5 -303.5 c 128,-1,37
 28 -339 28 -339 -109 -339 c 1,0,-1
EndSplineSet
Position2: "SegoeUI-SemiboldItalic-'case' Case-Sensitive Forms lookup 15 subtable" dx=30 dy=140 dh=0 dv=0
EndChar

StartChar: asciitilde
Encoding: 126 126 196
Width: 1426
GlyphClass: 2
Flags: W
LayerCount: 2
Fore
SplineSet
1239 761 m 1,0,1
 1233 601 1233 601 1153.5 512.5 c 128,-1,2
 1074 424 1074 424 943 424 c 0,3,4
 889 424 889 424 838.5 440.5 c 128,-1,5
 788 457 788 457 682 522 c 0,6,7
 646 545 646 545 605.5 566 c 128,-1,8
 565 587 565 587 523 587 c 0,9,10
 459 587 459 587 424 542 c 128,-1,11
 389 497 389 497 387 419 c 1,12,-1
 216 419 l 1,13,14
 223 577 223 577 301.5 667 c 128,-1,15
 380 757 380 757 515 757 c 0,16,17
 574 757 574 757 630.5 737.5 c 128,-1,18
 687 718 687 718 808 639 c 0,19,20
 850 611 850 611 879.5 600.5 c 128,-1,21
 909 590 909 590 940 590 c 0,22,23
 996 590 996 590 1031.5 637.5 c 128,-1,24
 1067 685 1067 685 1069 761 c 1,25,-1
 1239 761 l 1,0,1
EndSplineSet
EndChar

StartChar: Aring
Encoding: 197 197 198
Width: 1367
GlyphClass: 2
Flags: W
AnchorPoint: "Anchor-15" 180 2100 basechar 0
AnchorPoint: "Anchor-14" 1474 2100 basechar 0
AnchorPoint: "Anchor-11" 975 0 basechar 0
AnchorPoint: "Anchor-8" 1026 -420 basechar 0
AnchorPoint: "Anchor-7" 1356 2100 basechar 0
AnchorPoint: "Anchor-2" 500 -15 basechar 0
AnchorPoint: "Anchor-1" 1255 1660 basechar 0
AnchorPoint: "Anchor-0" 850 1920 basechar 0
LayerCount: 2
Fore
SplineSet
992 0 m 1,0,-1
 939 360 l 1,1,-1
 379 360 l 1,2,-1
 178 0 l 1,3,-1
 -103 0 l 1,4,-1
 717 1397 l 1,5,6
 650 1449 650 1449 650 1542 c 0,7,8
 650 1599 650 1599 679 1649 c 128,-1,9
 708 1699 708 1699 761 1728 c 128,-1,10
 814 1757 814 1757 882 1757 c 0,11,12
 985 1757 985 1757 1047 1697.5 c 128,-1,13
 1109 1638 1109 1638 1109 1547 c 0,14,15
 1109 1496 1109 1496 1086 1455 c 128,-1,16
 1063 1414 1063 1414 1025 1390 c 1,17,-1
 1245 0 l 1,18,-1
 992 0 l 1,0,-1
989 1547 m 256,19,20
 989 1592 989 1592 958 1621 c 128,-1,21
 927 1650 927 1650 877 1650 c 0,22,23
 831 1650 831 1650 800.5 1620.5 c 128,-1,24
 770 1591 770 1591 770 1547 c 0,25,26
 770 1498 770 1498 799 1469 c 128,-1,27
 828 1440 828 1440 877 1440 c 256,28,29
 926 1440 926 1440 957.5 1471 c 128,-1,30
 989 1502 989 1502 989 1547 c 256,19,20
913 560 m 1,31,-1
 840 1106 l 1,32,-1
 838 1135 l 1,33,-1
 838 1178 l 1,34,-1
 840 1214 l 1,35,-1
 834 1214 l 1,36,37
 824 1179 824 1179 803.5 1136.5 c 128,-1,38
 783 1094 783 1094 481 560 c 1,39,-1
 913 560 l 1,31,-1
EndSplineSet
Substitution2: "SegoeUI-SemiboldItalic-'c2sc' Capitals to Small Capitals lookup 26 subtable" Aring.c2sc
Position2: "SegoeUI-SemiboldItalic-'cpsp' Capital Spacing lookup 12 subtable" dx=36 dy=0 dh=72 dv=0
EndChar

StartChar: dagger
Encoding: 8224 8224 229
Width: 800
GlyphClass: 2
Flags: W
LayerCount: 2
Fore
SplineSet
836 880 m 1,0,-1
 575 910 l 1,1,-1
 385 215 l 1,2,-1
 282 215 l 1,3,-1
 387 910 l 1,4,-1
 113 880 l 1,5,-1
 153 1068 l 1,6,-1
 445 1043 l 1,7,-1
 493 1433 l 1,8,-1
 690 1433 l 1,9,-1
 573 1043 l 1,10,-1
 876 1068 l 1,11,-1
 836 880 l 1,0,-1
EndSplineSet
EndChar

StartChar: degree
Encoding: 176 176 230
Width: 775
GlyphClass: 2
Flags: W
LayerCount: 2
Fore
SplineSet
806 1177 m 0,0,1
 806 1062 806 1062 724 979 c 128,-1,2
 642 896 642 896 524 896 c 0,3,4
 408 896 408 896 326 978 c 128,-1,5
 244 1060 244 1060 244 1177 c 0,6,7
 244 1292 244 1292 325.5 1373 c 128,-1,8
 407 1454 407 1454 524 1454 c 0,9,10
 642 1454 642 1454 724 1372.5 c 128,-1,11
 806 1291 806 1291 806 1177 c 0,0,1
668 1177 m 0,12,13
 668 1235 668 1235 626.5 1277.5 c 128,-1,14
 585 1320 585 1320 524 1320 c 0,15,16
 464 1320 464 1320 422.5 1278 c 128,-1,17
 381 1236 381 1236 381 1177 c 0,18,19
 381 1116 381 1116 424 1073 c 128,-1,20
 467 1030 467 1030 524 1030 c 0,21,22
 580 1030 580 1030 624 1073 c 128,-1,23
 668 1116 668 1116 668 1177 c 0,12,13
EndSplineSet
EndChar

StartChar: cent
Encoding: 162 162 231
Width: 1142
GlyphClass: 2
Flags: W
LayerCount: 2
Fore
SplineSet
1032 952 m 1,0,1
 971 1011 971 1011 861 1029 c 1,2,-1
 716 351 l 1,3,4
 828 364 828 364 931 435 c 1,5,-1
 888 228 l 1,6,7
 800 173 800 173 677 159 c 1,8,-1
 634 -43 l 1,9,-1
 489 -43 l 1,10,-1
 531 157 l 1,11,12
 367 176 367 176 274.5 287.5 c 128,-1,13
 182 399 182 399 182 572 c 0,14,15
 182 841 182 841 341 1024.5 c 128,-1,16
 500 1208 500 1208 759 1224 c 1,17,-1
 800 1417 l 1,18,-1
 944 1417 l 1,19,-1
 902 1218 l 1,20,21
 1027 1201 1027 1201 1078 1165 c 1,22,-1
 1032 952 l 1,0,1
716 1024 m 1,23,24
 578 993 578 993 499.5 875 c 128,-1,25
 421 757 421 757 421 599 c 0,26,27
 421 500 421 500 464 441.5 c 128,-1,28
 507 383 507 383 575 362 c 1,29,-1
 716 1024 l 1,23,24
EndSplineSet
EndChar

StartChar: sterling
Encoding: 163 163 232
Width: 1142
GlyphClass: 2
Flags: W
LayerCount: 2
Fore
SplineSet
1117 1202 m 1,0,1
 1033 1263 1033 1263 921 1263 c 0,2,3
 714 1263 714 1263 657 988 c 2,4,-1
 618 802 l 1,5,-1
 898 802 l 1,6,-1
 859 623 l 1,7,-1
 580 623 l 1,8,-1
 548 480 l 2,9,10
 502 278 502 278 331 191 c 1,11,-1
 988 191 l 1,12,-1
 948 0 l 1,13,-1
 11 0 l 1,14,-1
 51 182 l 1,15,16
 166 212 166 212 230 284.5 c 128,-1,17
 294 357 294 357 318 470 c 2,18,-1
 351 623 l 1,19,-1
 166 623 l 1,20,-1
 203 802 l 1,21,-1
 389 802 l 1,22,-1
 436 1024 l 2,23,24
 481 1233 481 1233 613 1345.5 c 128,-1,25
 745 1458 745 1458 937 1458 c 0,26,27
 1008 1458 1008 1458 1067 1444.5 c 128,-1,28
 1126 1431 1126 1431 1161 1413 c 1,29,-1
 1117 1202 l 1,0,1
EndSplineSet
EndChar

StartChar: section
Encoding: 167 167 233
Width: 956
GlyphClass: 2
Flags: W
LayerCount: 2
Fore
SplineSet
921 1262 m 1,0,1
 877 1289 877 1289 815.5 1307.5 c 128,-1,2
 754 1326 754 1326 699 1326 c 0,3,4
 613 1326 613 1326 564.5 1291.5 c 128,-1,5
 516 1257 516 1257 516 1195 c 0,6,7
 516 1159 516 1159 530.5 1133 c 128,-1,8
 545 1107 545 1107 570 1084 c 128,-1,9
 595 1061 595 1061 686 1007 c 0,10,11
 794 942 794 942 840 877.5 c 128,-1,12
 886 813 886 813 886 725 c 0,13,14
 886 632 886 632 825 549.5 c 128,-1,15
 764 467 764 467 664 425 c 1,16,17
 723 345 723 345 723 259 c 0,18,19
 723 163 723 163 674.5 89.5 c 128,-1,20
 626 16 626 16 534.5 -24.5 c 128,-1,21
 443 -65 443 -65 317 -65 c 0,22,23
 238 -65 238 -65 159 -47 c 128,-1,24
 80 -29 80 -29 37 -5 c 1,25,-1
 77 181 l 1,26,27
 130 146 130 146 200 123.5 c 128,-1,28
 270 101 270 101 332 101 c 0,29,30
 427 101 427 101 474 138 c 128,-1,31
 521 175 521 175 521 233 c 0,32,33
 521 267 521 267 504.5 295 c 128,-1,34
 488 323 488 323 458 349.5 c 128,-1,35
 428 376 428 376 343 427 c 0,36,37
 165 536 165 536 165 697 c 0,38,39
 165 790 165 790 219 864.5 c 128,-1,40
 273 939 273 939 383 987 c 1,41,42
 313 1077 313 1077 313 1164 c 0,43,44
 313 1316 313 1316 421.5 1403.5 c 128,-1,45
 530 1491 530 1491 708 1491 c 0,46,47
 762 1491 762 1491 833 1478.5 c 128,-1,48
 904 1466 904 1466 958 1443 c 1,49,-1
 921 1262 l 1,0,1
687 691 m 0,50,51
 687 740 687 740 656 778.5 c 128,-1,52
 625 817 625 817 562 853 c 2,53,-1
 487 901 l 1,54,55
 432 878 432 878 396.5 836.5 c 128,-1,56
 361 795 361 795 361 739 c 0,57,58
 361 686 361 686 386.5 651 c 128,-1,59
 412 616 412 616 487 567 c 0,60,61
 506 554 506 554 525.5 543.5 c 128,-1,62
 545 533 545 533 564 516 c 1,63,64
 621 543 621 543 654 590 c 128,-1,65
 687 637 687 637 687 691 c 0,50,51
EndSplineSet
EndChar

StartChar: bullet
Encoding: 8226 8226 234
Width: 846
GlyphClass: 2
Flags: W
LayerCount: 2
Fore
SplineSet
707 596 m 0,0,1
 707 485 707 485 627.5 407.5 c 128,-1,2
 548 330 548 330 440 330 c 0,3,4
 331 330 331 330 253 407.5 c 128,-1,5
 175 485 175 485 175 596 c 256,6,7
 175 707 175 707 254.5 784.5 c 128,-1,8
 334 862 334 862 441 862 c 0,9,10
 551 862 551 862 629 784 c 128,-1,11
 707 706 707 706 707 596 c 0,0,1
EndSplineSet
EndChar

StartChar: paragraph
Encoding: 182 182 235
Width: 990
GlyphClass: 2
Flags: W
LayerCount: 2
Fore
SplineSet
827 1301 m 1,0,-1
 827 0 l 1,1,-1
 686 0 l 1,2,-1
 686 1301 l 1,3,-1
 549 1301 l 1,4,-1
 549 0 l 1,5,-1
 407 0 l 1,6,-1
 407 869 l 1,7,8
 297 871 297 871 222 951.5 c 128,-1,9
 147 1032 147 1032 147 1154 c 0,10,11
 147 1279 147 1279 228 1356.5 c 128,-1,12
 309 1434 309 1434 424 1434 c 2,13,-1
 949 1434 l 1,14,-1
 949 1301 l 1,15,-1
 827 1301 l 1,0,-1
EndSplineSet
EndChar

StartChar: germandbls
Encoding: 223 223 236
Width: 1170
GlyphClass: 2
Flags: W
AnchorPoint: "Anchor-15" 180 2100 basechar 0
AnchorPoint: "Anchor-14" 1286 2100 basechar 0
AnchorPoint: "Anchor-11" 559 0 basechar 0
AnchorPoint: "Anchor-8" 927 -420 basechar 0
AnchorPoint: "Anchor-7" 1257 1900 basechar 0
AnchorPoint: "Anchor-2" 407 -25 basechar 0
AnchorPoint: "Anchor-1" 1254 1538 basechar 0
AnchorPoint: "Anchor-0" 737 1698 basechar 0
LayerCount: 2
Fore
SplineSet
1148 1205 m 0,0,1
 1148 1104 1148 1104 1103 1022.5 c 128,-1,2
 1058 941 1058 941 981 884.5 c 128,-1,3
 904 828 904 828 808 803 c 1,4,-1
 808 799 l 1,5,6
 945 771 945 771 1022.5 675 c 128,-1,7
 1100 579 1100 579 1100 440 c 0,8,9
 1100 307 1100 307 1038.5 200 c 128,-1,10
 977 93 977 93 863.5 34 c 128,-1,11
 750 -25 750 -25 595 -25 c 0,12,13
 535 -25 535 -25 476 -15 c 128,-1,14
 417 -5 417 -5 388 8 c 1,15,-1
 433 212 l 1,16,17
 463 191 463 191 508 178.5 c 128,-1,18
 553 166 553 166 593 166 c 0,19,20
 712 166 712 166 782.5 244 c 128,-1,21
 853 322 853 322 853 444 c 0,22,23
 853 567 853 567 776.5 633.5 c 128,-1,24
 700 700 700 700 563 703 c 1,25,-1
 600 882 l 1,26,27
 742 901 742 901 822 980 c 128,-1,28
 902 1059 902 1059 902 1180 c 0,29,30
 902 1255 902 1255 857.5 1302 c 128,-1,31
 813 1349 813 1349 742 1349 c 0,32,33
 644 1349 644 1349 584.5 1278.5 c 128,-1,34
 525 1208 525 1208 496 1068 c 2,35,-1
 268 0 l 1,36,-1
 25 0 l 1,37,-1
 260 1101 l 2,38,39
 353 1540 353 1540 762 1540 c 0,40,41
 941 1540 941 1540 1044.5 1448 c 128,-1,42
 1148 1356 1148 1356 1148 1205 c 0,0,1
EndSplineSet
Substitution2: "SegoeUI-SemiboldItalic-'smcp' Lowercase to Small Capitals lookup 27 subtable" uni1E9E.c2sc
EndChar

StartChar: registered
Encoding: 174 174 238
Width: 1808
GlyphClass: 2
Flags: W
LayerCount: 2
Fore
SplineSet
904 255 m 0,0,1
 653 255 653 255 475.5 430 c 128,-1,2
 298 605 298 605 298 853 c 0,3,4
 298 1100 298 1100 475.5 1277 c 128,-1,5
 653 1454 653 1454 904 1454 c 0,6,7
 1154 1454 1154 1454 1332 1277 c 128,-1,8
 1510 1100 1510 1100 1510 853 c 0,9,10
 1510 605 1510 605 1332 430 c 128,-1,11
 1154 255 1154 255 904 255 c 0,0,1
905 1354 m 0,12,13
 699 1354 699 1354 552.5 1206 c 128,-1,14
 406 1058 406 1058 406 852 c 256,15,16
 406 646 406 646 552.5 500.5 c 128,-1,17
 699 355 699 355 905 355 c 0,18,19
 1112 355 1112 355 1257 500.5 c 128,-1,20
 1402 646 1402 646 1402 852 c 256,21,22
 1402 1058 1402 1058 1257 1206 c 128,-1,23
 1112 1354 1112 1354 905 1354 c 0,12,13
1214 483 m 1,24,-1
 1037 483 l 1,25,-1
 964 657 l 2,26,27
 908 787 908 787 843 787 c 2,28,-1
 799 787 l 1,29,-1
 799 483 l 1,30,-1
 655 483 l 1,31,-1
 655 1235 l 1,32,-1
 881 1235 l 2,33,34
 1022 1235 1022 1235 1098 1180 c 128,-1,35
 1174 1125 1174 1125 1174 1030 c 0,36,37
 1174 953 1174 953 1127.5 898.5 c 128,-1,38
 1081 844 1081 844 990 825 c 1,39,-1
 990 822 l 1,40,41
 1053 809 1053 809 1115 683 c 2,42,-1
 1214 483 l 1,24,-1
799 1115 m 1,43,-1
 799 901 l 1,44,-1
 881 901 l 2,45,46
 1020 901 1020 901 1020 1009 c 0,47,48
 1020 1064 1020 1064 982.5 1089.5 c 128,-1,49
 945 1115 945 1115 865 1115 c 2,50,-1
 799 1115 l 1,43,-1
EndSplineSet
EndChar

StartChar: copyright
Encoding: 169 169 239
Width: 1827
GlyphClass: 2
Flags: W
LayerCount: 2
Fore
SplineSet
1709 719 m 0,0,1
 1709 513 1709 513 1608.5 341 c 128,-1,2
 1508 169 1508 169 1333.5 72 c 128,-1,3
 1159 -25 1159 -25 949 -25 c 256,4,5
 739 -25 739 -25 566 67.5 c 128,-1,6
 393 160 393 160 293 330 c 128,-1,7
 193 500 193 500 193 713 c 0,8,9
 193 920 193 920 292.5 1090.5 c 128,-1,10
 392 1261 392 1261 567 1359.5 c 128,-1,11
 742 1458 742 1458 955 1458 c 0,12,13
 1164 1458 1164 1458 1338 1363.5 c 128,-1,14
 1512 1269 1512 1269 1610.5 1098.5 c 128,-1,15
 1709 928 1709 928 1709 719 c 0,0,1
1597 715 m 0,16,17
 1597 893 1597 893 1513.5 1041.5 c 128,-1,18
 1430 1190 1430 1190 1280.5 1274.5 c 128,-1,19
 1131 1359 1131 1359 952 1359 c 0,20,21
 769 1359 769 1359 619.5 1274.5 c 128,-1,22
 470 1190 470 1190 387 1041 c 128,-1,23
 304 892 304 892 304 715 c 0,24,25
 304 534 304 534 390 384.5 c 128,-1,26
 476 235 476 235 625.5 151.5 c 128,-1,27
 775 68 775 68 952 68 c 0,28,29
 1130 68 1130 68 1280.5 156 c 128,-1,30
 1431 244 1431 244 1514 391.5 c 128,-1,31
 1597 539 1597 539 1597 715 c 0,16,17
1255 280 m 1,32,33
 1128 212 1128 212 984 212 c 0,34,35
 848 212 848 212 735.5 275 c 128,-1,36
 623 338 623 338 559.5 448.5 c 128,-1,37
 496 559 496 559 496 694 c 0,38,39
 496 849 496 849 561.5 969 c 128,-1,40
 627 1089 627 1089 746 1154 c 128,-1,41
 865 1219 865 1219 1014 1219 c 0,42,43
 1144 1219 1144 1219 1252 1165 c 1,44,-1
 1252 972 l 1,45,46
 1210 1006 1210 1006 1143.5 1026 c 128,-1,47
 1077 1046 1077 1046 1003 1046 c 0,48,49
 915 1046 915 1046 842.5 1004.5 c 128,-1,50
 770 963 770 963 729.5 886.5 c 128,-1,51
 689 810 689 810 689 709 c 0,52,53
 689 562 689 562 779.5 471 c 128,-1,54
 870 380 870 380 1010 380 c 0,55,56
 1080 380 1080 380 1149 403.5 c 128,-1,57
 1218 427 1218 427 1255 456 c 1,58,-1
 1255 280 l 1,32,33
EndSplineSet
EndChar

StartChar: trademark
Encoding: 8482 8482 240
Width: 1581
GlyphClass: 2
Flags: W
LayerCount: 2
Fore
SplineSet
1350 772 m 1,0,-1
 1350 1233 l 1,1,-1
 1345 1233 l 1,2,-1
 1156 772 l 1,3,-1
 1059 772 l 1,4,-1
 879 1233 l 1,5,-1
 875 1233 l 1,6,-1
 875 772 l 1,7,-1
 750 772 l 1,8,-1
 750 1434 l 1,9,-1
 921 1434 l 1,10,-1
 1113 959 l 1,11,-1
 1117 959 l 1,12,-1
 1316 1434 l 1,13,-1
 1479 1434 l 1,14,-1
 1479 772 l 1,15,-1
 1350 772 l 1,0,-1
482 1323 m 1,16,-1
 482 772 l 1,17,-1
 348 772 l 1,18,-1
 348 1322 l 1,19,-1
 159 1322 l 1,20,-1
 159 1434 l 1,21,-1
 674 1434 l 1,22,-1
 674 1323 l 1,23,-1
 482 1323 l 1,16,-1
EndSplineSet
EndChar

StartChar: acute
Encoding: 180 180 241
Width: 807
GlyphClass: 2
Flags: W
LayerCount: 2
Fore
SplineSet
532 1202 m 1,0,-1
 353 1202 l 1,1,-1
 655 1528 l 1,2,-1
 880 1528 l 1,3,-1
 532 1202 l 1,0,-1
EndSplineSet
EndChar

StartChar: dieresis
Encoding: 168 168 242
Width: 807
GlyphClass: 2
Flags: W
LayerCount: 2
Fore
SplineSet
894 1321 m 256,0,1
 894 1271 894 1271 859 1236.5 c 128,-1,2
 824 1202 824 1202 768 1202 c 256,3,4
 712 1202 712 1202 677 1237 c 128,-1,5
 642 1272 642 1272 642 1321 c 0,6,7
 642 1372 642 1372 678 1404.5 c 128,-1,8
 714 1437 714 1437 767 1437 c 0,9,10
 821 1437 821 1437 857.5 1404 c 128,-1,11
 894 1371 894 1371 894 1321 c 256,0,1
473 1321 m 0,12,13
 473 1270 473 1270 435.5 1236 c 128,-1,14
 398 1202 398 1202 346 1202 c 0,15,16
 295 1202 295 1202 257 1235.5 c 128,-1,17
 219 1269 219 1269 219 1321 c 0,18,19
 219 1370 219 1370 255 1403.5 c 128,-1,20
 291 1437 291 1437 346 1437 c 0,21,22
 400 1437 400 1437 436.5 1404 c 128,-1,23
 473 1371 473 1371 473 1321 c 0,12,13
EndSplineSet
EndChar

StartChar: notequal
Encoding: 8800 8800 243
Width: 1426
GlyphClass: 2
Flags: W
LayerCount: 2
Fore
SplineSet
670 291 m 1,0,-1
 520 0 l 1,1,-1
 327 0 l 1,2,-1
 479 291 l 1,3,-1
 258 291 l 1,4,-1
 258 460 l 1,5,-1
 567 460 l 1,6,-1
 702 721 l 1,7,-1
 258 721 l 1,8,-1
 258 891 l 1,9,-1
 790 891 l 1,10,-1
 943 1188 l 1,11,-1
 1134 1188 l 1,12,-1
 982 891 l 1,13,-1
 1214 891 l 1,14,-1
 1214 721 l 1,15,-1
 895 721 l 1,16,-1
 759 460 l 1,17,-1
 1214 460 l 1,18,-1
 1214 291 l 1,19,-1
 670 291 l 1,0,-1
EndSplineSet
EndChar

StartChar: AE
Encoding: 198 198 244
Width: 1842
GlyphClass: 2
Flags: W
AnchorPoint: "Anchor-15" 180 2100 basechar 0
AnchorPoint: "Anchor-14" 1931 2100 basechar 0
AnchorPoint: "Anchor-11" 1300 0 basechar 0
AnchorPoint: "Anchor-8" 1683 -420 basechar 0
AnchorPoint: "Anchor-7" 2013 1900 basechar 0
AnchorPoint: "Anchor-2" 850 -15 basechar 0
AnchorPoint: "Anchor-1" 1942 1500 basechar 0
AnchorPoint: "Anchor-0" 1220 1600 basechar 0
LayerCount: 2
Fore
SplineSet
1875 1225 m 1,0,-1
 1345 1225 l 1,1,-1
 1259 820 l 1,2,-1
 1750 820 l 1,3,-1
 1706 612 l 1,4,-1
 1215 612 l 1,5,-1
 1128 207 l 1,6,-1
 1689 207 l 1,7,-1
 1647 0 l 1,8,-1
 837 0 l 1,9,-1
 914 360 l 1,10,-1
 422 360 l 1,11,-1
 161 0 l 1,12,-1
 -132 0 l 1,13,-1
 943 1434 l 1,14,-1
 1919 1434 l 1,15,-1
 1875 1225 l 1,0,-1
1043 1227 m 1,16,-1
 573 571 l 1,17,-1
 958 571 l 1,18,-1
 1096 1227 l 1,19,-1
 1043 1227 l 1,16,-1
EndSplineSet
Substitution2: "SegoeUI-SemiboldItalic-'c2sc' Capitals to Small Capitals lookup 26 subtable" AE.c2sc
Position2: "SegoeUI-SemiboldItalic-'cpsp' Capital Spacing lookup 12 subtable" dx=36 dy=0 dh=72 dv=0
EndChar

StartChar: Oslash
Encoding: 216 216 245
Width: 1549
GlyphClass: 2
Flags: W
AnchorPoint: "Anchor-15" 180 2100 basechar 0
AnchorPoint: "Anchor-14" 1724 2100 basechar 0
AnchorPoint: "Anchor-11" 680 -15 basechar 0
AnchorPoint: "Anchor-8" 1400 -420 basechar 0
AnchorPoint: "Anchor-7" 1730 1900 basechar 0
AnchorPoint: "Anchor-2" 620 -25 basechar 0
AnchorPoint: "Anchor-1" 1600 1660 basechar 0
AnchorPoint: "Anchor-0" 950 1600 basechar 0
LayerCount: 2
Fore
SplineSet
1394 1220 m 1,0,1
 1499 1057 1499 1057 1499 843 c 0,2,3
 1499 607 1499 607 1394 401 c 128,-1,4
 1289 195 1289 195 1116 85 c 128,-1,5
 943 -25 943 -25 710 -25 c 0,6,7
 598 -25 598 -25 495.5 11.5 c 128,-1,8
 393 48 393 48 314 119 c 1,9,-1
 146 -53 l 1,10,-1
 45 46 l 1,11,-1
 221 225 l 1,12,13
 124 384 124 384 124 589 c 0,14,15
 124 957 124 957 346.5 1206 c 128,-1,16
 569 1455 569 1455 912 1455 c 0,17,18
 1141 1455 1141 1455 1298 1322 c 1,19,-1
 1452 1479 l 1,20,-1
 1551 1381 l 1,21,-1
 1394 1220 l 1,0,1
1140 1159 m 1,22,23
 1040 1254 1040 1254 893 1254 c 0,24,25
 747 1254 747 1254 629 1172 c 128,-1,26
 511 1090 511 1090 440.5 928.5 c 128,-1,27
 370 767 370 767 370 587 c 0,28,29
 370 494 370 494 401 409 c 1,30,-1
 1140 1159 l 1,22,23
1251 842 m 0,31,32
 1251 948 1251 948 1213 1035 c 1,33,-1
 472 279 l 1,34,35
 565 174 565 174 731 174 c 0,36,37
 878 174 878 174 994.5 257.5 c 128,-1,38
 1111 341 1111 341 1181 502 c 128,-1,39
 1251 663 1251 663 1251 842 c 0,31,32
EndSplineSet
Substitution2: "SegoeUI-SemiboldItalic-'c2sc' Capitals to Small Capitals lookup 26 subtable" Oslash.c2sc
Position2: "SegoeUI-SemiboldItalic-'cpsp' Capital Spacing lookup 12 subtable" dx=36 dy=0 dh=72 dv=0
EndChar

StartChar: infinity
Encoding: 8734 8734 246
Width: 1668
GlyphClass: 2
Flags: W
LayerCount: 2
Fore
SplineSet
1621 592 m 0,0,1
 1621 486 1621 486 1570.5 394 c 128,-1,2
 1520 302 1520 302 1433.5 249 c 128,-1,3
 1347 196 1347 196 1242 196 c 0,4,5
 1012 196 1012 196 860 459 c 1,6,7
 784 335 784 335 684 268 c 128,-1,8
 584 201 584 201 480 201 c 0,9,10
 312 201 312 201 206.5 309.5 c 128,-1,11
 101 418 101 418 101 595 c 0,12,13
 101 700 101 700 151.5 792.5 c 128,-1,14
 202 885 202 885 289.5 937.5 c 128,-1,15
 377 990 377 990 480 990 c 0,16,17
 601 990 601 990 694 925.5 c 128,-1,18
 787 861 787 861 862 728 c 1,19,20
 935 848 935 848 1032.5 916.5 c 128,-1,21
 1130 985 1130 985 1242 985 c 0,22,23
 1350 985 1350 985 1437 936.5 c 128,-1,24
 1524 888 1524 888 1572.5 797 c 128,-1,25
 1621 706 1621 706 1621 592 c 0,0,1
1440 593 m 0,26,27
 1440 690 1440 690 1380 754.5 c 128,-1,28
 1320 819 1320 819 1226 819 c 0,29,30
 1148 819 1148 819 1080 764 c 128,-1,31
 1012 709 1012 709 946 591 c 1,32,33
 1006 475 1006 475 1073.5 420 c 128,-1,34
 1141 365 1141 365 1226 365 c 0,35,36
 1322 365 1322 365 1381 428 c 128,-1,37
 1440 491 1440 491 1440 593 c 0,26,27
776 597 m 1,38,39
 715 713 715 713 647.5 768.5 c 128,-1,40
 580 824 580 824 494 824 c 0,41,42
 401 824 401 824 341 760.5 c 128,-1,43
 281 697 281 697 281 594 c 0,44,45
 281 496 281 496 342 433.5 c 128,-1,46
 403 371 403 371 495 371 c 0,47,48
 573 371 573 371 641.5 425 c 128,-1,49
 710 479 710 479 776 597 c 1,38,39
EndSplineSet
EndChar

StartChar: plusminus
Encoding: 177 177 247
Width: 1426
GlyphClass: 2
Flags: W
LayerCount: 2
Fore
SplineSet
816 672 m 1,0,-1
 816 277 l 1,1,-1
 649 277 l 1,2,-1
 649 672 l 1,3,-1
 255 672 l 1,4,-1
 255 840 l 1,5,-1
 649 840 l 1,6,-1
 649 1238 l 1,7,-1
 816 1238 l 1,8,-1
 816 840 l 1,9,-1
 1211 840 l 1,10,-1
 1211 672 l 1,11,-1
 816 672 l 1,0,-1
254 0 m 1,12,-1
 254 168 l 1,13,-1
 1209 168 l 1,14,-1
 1209 0 l 1,15,-1
 254 0 l 1,12,-1
EndSplineSet
EndChar

StartChar: lessequal
Encoding: 8804 8804 248
Width: 1426
GlyphClass: 2
Flags: W
LayerCount: 2
Fore
SplineSet
296 653 m 1,0,-1
 296 769 l 1,1,-1
 1194 1218 l 1,2,-1
 1194 1025 l 1,3,-1
 538 715 l 1,4,-1
 538 711 l 1,5,-1
 1194 431 l 1,6,-1
 1194 236 l 1,7,-1
 296 653 l 1,0,-1
265 0 m 1,8,-1
 265 168 l 1,9,-1
 1222 168 l 1,10,-1
 1222 0 l 1,11,-1
 265 0 l 1,8,-1
EndSplineSet
EndChar

StartChar: greaterequal
Encoding: 8805 8805 249
Width: 1426
GlyphClass: 2
Flags: W
LayerCount: 2
Fore
SplineSet
296 236 m 1,0,-1
 296 431 l 1,1,-1
 951 708 l 1,2,-1
 951 713 l 1,3,-1
 296 1025 l 1,4,-1
 296 1218 l 1,5,-1
 1194 769 l 1,6,-1
 1194 653 l 1,7,-1
 296 236 l 1,0,-1
265 0 m 1,8,-1
 265 168 l 1,9,-1
 1222 168 l 1,10,-1
 1222 0 l 1,11,-1
 265 0 l 1,8,-1
EndSplineSet
EndChar

StartChar: yen
Encoding: 165 165 250
Width: 1142
GlyphClass: 2
Flags: W
LayerCount: 2
Fore
SplineSet
800 785 m 1,0,-1
 1068 785 l 1,1,-1
 1034 621 l 1,2,-1
 714 621 l 1,3,-1
 675 441 l 1,4,-1
 995 441 l 1,5,-1
 961 277 l 1,6,-1
 642 277 l 1,7,-1
 581 0 l 1,8,-1
 346 0 l 1,9,-1
 405 277 l 1,10,-1
 78 277 l 1,11,-1
 112 441 l 1,12,-1
 439 441 l 1,13,-1
 478 621 l 1,14,-1
 149 621 l 1,15,-1
 185 785 l 1,16,-1
 458 785 l 1,17,-1
 248 1434 l 1,18,-1
 492 1434 l 1,19,-1
 618 926 l 1,20,-1
 641 823 l 1,21,-1
 646 823 l 1,22,23
 661 850 661 850 677.5 878 c 128,-1,24
 694 906 694 906 1044 1434 c 1,25,-1
 1294 1434 l 1,26,-1
 800 785 l 1,0,-1
EndSplineSet
EndChar

StartChar: partialdiff
Encoding: 8706 8706 252
Width: 1139
GlyphClass: 2
Flags: W
LayerCount: 2
Fore
SplineSet
1100 922 m 0,0,1
 1100 756 1100 756 1061.5 568.5 c 128,-1,2
 1023 381 1023 381 945 249 c 128,-1,3
 867 117 867 117 748 46 c 128,-1,4
 629 -25 629 -25 481 -25 c 0,5,6
 297 -25 297 -25 191.5 84.5 c 128,-1,7
 86 194 86 194 86 384 c 0,8,9
 86 560 86 560 157 712 c 128,-1,10
 228 864 228 864 343 945 c 128,-1,11
 458 1026 458 1026 602 1026 c 0,12,13
 696 1026 696 1026 758 989.5 c 128,-1,14
 820 953 820 953 864 875 c 1,15,-1
 868 875 l 1,16,-1
 870 930 l 1,17,18
 870 1123 870 1123 806.5 1214 c 128,-1,19
 743 1305 743 1305 613 1305 c 0,20,21
 557 1305 557 1305 484.5 1283 c 128,-1,22
 412 1261 412 1261 357 1229 c 1,23,-1
 407 1431 l 1,24,25
 540 1495 540 1495 675 1495 c 0,26,27
 888 1495 888 1495 994 1357.5 c 128,-1,28
 1100 1220 1100 1220 1100 922 c 0,0,1
841 668 m 1,29,30
 817 755 817 755 766 802.5 c 128,-1,31
 715 850 715 850 647 850 c 0,32,33
 559 850 559 850 486 786.5 c 128,-1,34
 413 723 413 723 370 614.5 c 128,-1,35
 327 506 327 506 327 392 c 0,36,37
 327 286 327 286 374.5 226 c 128,-1,38
 422 166 422 166 506 166 c 0,39,40
 631 166 631 166 723.5 304.5 c 128,-1,41
 816 443 816 443 841 668 c 1,29,30
EndSplineSet
EndChar

StartChar: summation
Encoding: 8721 8721 253
Width: 1288
GlyphClass: 2
Flags: W
LayerCount: 2
Fore
SplineSet
83 -470 m 1,0,-1
 83 -344 l 1,1,-1
 723 492 l 1,2,-1
 114 1296 l 1,3,-1
 114 1434 l 1,4,-1
 1234 1434 l 1,5,-1
 1234 1224 l 1,6,-1
 463 1224 l 1,7,-1
 1009 498 l 1,8,-1
 431 -267 l 1,9,-1
 1270 -267 l 1,10,-1
 1270 -470 l 1,11,-1
 83 -470 l 1,0,-1
EndSplineSet
EndChar

StartChar: product
Encoding: 8719 8719 254
Width: 1582
GlyphClass: 2
Flags: W
LayerCount: 2
Fore
SplineSet
1204 -470 m 1,0,-1
 1204 1214 l 1,1,-1
 453 1214 l 1,2,-1
 453 -470 l 1,3,-1
 208 -470 l 1,4,-1
 208 1434 l 1,5,-1
 1451 1434 l 1,6,-1
 1451 -470 l 1,7,-1
 1204 -470 l 1,0,-1
EndSplineSet
EndChar

StartChar: integral
Encoding: 8747 8747 255
Width: 1142
GlyphClass: 2
Flags: W
LayerCount: 2
Fore
SplineSet
996 1323 m 1,0,1
 943 1348 943 1348 883 1348 c 0,2,3
 802 1348 802 1348 761.5 1297 c 128,-1,4
 721 1246 721 1246 721 1157 c 2,5,-1
 721 -119 l 2,6,7
 721 -285 721 -285 619 -386 c 128,-1,8
 517 -487 517 -487 348 -487 c 0,9,10
 264 -487 264 -487 209 -468 c 1,11,-1
 209 -271 l 1,12,13
 256 -297 256 -297 320 -297 c 0,14,15
 401 -297 401 -297 441.5 -245.5 c 128,-1,16
 482 -194 482 -194 482 -106 c 2,17,-1
 482 1170 l 2,18,19
 482 1338 482 1338 586 1438.5 c 128,-1,20
 690 1539 690 1539 857 1539 c 0,21,22
 941 1539 941 1539 996 1520 c 1,23,-1
 996 1323 l 1,0,1
EndSplineSet
EndChar

StartChar: ordfeminine
Encoding: 170 170 256
Width: 927
GlyphClass: 2
Flags: W
LayerCount: 2
Fore
SplineSet
833 715 m 1,0,-1
 646 715 l 1,1,-1
 651 781 l 1,2,-1
 658 847 l 1,3,-1
 654 847 l 1,4,5
 549 696 549 696 402 696 c 0,6,7
 304 696 304 696 246 765 c 128,-1,8
 188 834 188 834 188 972 c 0,9,10
 188 1100 188 1100 250 1218.5 c 128,-1,11
 312 1337 312 1337 417 1396 c 128,-1,12
 522 1455 522 1455 660 1455 c 0,13,14
 785 1455 785 1455 961 1421 c 1,15,-1
 863 947 l 2,16,17
 855 907 855 907 844 830 c 128,-1,18
 833 753 833 753 833 715 c 1,0,-1
752 1307 m 1,19,20
 704 1320 704 1320 651 1320 c 0,21,22
 574 1320 574 1320 513.5 1278.5 c 128,-1,23
 453 1237 453 1237 415 1155 c 128,-1,24
 377 1073 377 1073 377 985 c 0,25,26
 377 837 377 837 483 837 c 0,27,28
 556 837 556 837 620.5 918 c 128,-1,29
 685 999 685 999 714 1123 c 2,30,-1
 752 1307 l 1,19,20
EndSplineSet
EndChar

StartChar: ordmasculine
Encoding: 186 186 257
Width: 924
GlyphClass: 2
Flags: W
LayerCount: 2
Fore
SplineSet
957 1143 m 0,0,1
 957 1018 957 1018 904.5 915.5 c 128,-1,2
 852 813 852 813 754.5 754.5 c 128,-1,3
 657 696 657 696 530 696 c 0,4,5
 375 696 375 696 283 785.5 c 128,-1,6
 191 875 191 875 191 1023 c 0,7,8
 191 1143 191 1143 245 1242.5 c 128,-1,9
 299 1342 299 1342 396.5 1398 c 128,-1,10
 494 1454 494 1454 616 1454 c 0,11,12
 776 1454 776 1454 866.5 1371 c 128,-1,13
 957 1288 957 1288 957 1143 c 0,0,1
770 1131 m 0,14,15
 770 1215 770 1215 727 1263 c 128,-1,16
 684 1311 684 1311 605 1311 c 0,17,18
 502 1311 502 1311 440 1227.5 c 128,-1,19
 378 1144 378 1144 378 1021 c 0,20,21
 378 937 378 937 421.5 887.5 c 128,-1,22
 465 838 465 838 540 838 c 0,23,24
 644 838 644 838 707 921 c 128,-1,25
 770 1004 770 1004 770 1131 c 0,14,15
EndSplineSet
EndChar

StartChar: Omega
Encoding: 8486 8486 258
Width: 1580
GlyphClass: 2
Flags: W
LayerCount: 2
Fore
SplineSet
1556 895 m 0,0,1
 1556 672 1556 672 1430 490 c 128,-1,2
 1304 308 1304 308 1078 203 c 1,3,-1
 1414 203 l 1,4,-1
 1371 0 l 1,5,-1
 813 0 l 1,6,-1
 861 234 l 1,7,8
 1072 340 1072 340 1178 503.5 c 128,-1,9
 1284 667 1284 667 1284 869 c 0,10,11
 1284 1038 1284 1038 1182 1140.5 c 128,-1,12
 1080 1243 1080 1243 912 1243 c 0,13,14
 766 1243 766 1243 648 1171.5 c 128,-1,15
 530 1100 530 1100 464 968.5 c 128,-1,16
 398 837 398 837 398 668 c 0,17,18
 398 539 398 539 442.5 435 c 128,-1,19
 487 331 487 331 591 234 c 1,20,-1
 542 0 l 1,21,-1
 -16 0 l 1,22,-1
 26 203 l 1,23,-1
 380 203 l 1,24,25
 262 292 262 292 196.5 422 c 128,-1,26
 131 552 131 552 131 699 c 0,27,28
 131 924 131 924 234 1097 c 128,-1,29
 337 1270 337 1270 519 1364 c 128,-1,30
 701 1458 701 1458 924 1458 c 0,31,32
 1110 1458 1110 1458 1254.5 1387 c 128,-1,33
 1399 1316 1399 1316 1477.5 1187 c 128,-1,34
 1556 1058 1556 1058 1556 895 c 0,0,1
EndSplineSet
EndChar

StartChar: ae
Encoding: 230 230 259
Width: 1726
GlyphClass: 2
Flags: W
AnchorPoint: "Anchor-15" 180 2100 basechar 0
AnchorPoint: "Anchor-14" 1872 2100 basechar 0
AnchorPoint: "Anchor-11" 1300 39 basechar 0
AnchorPoint: "Anchor-8" 1505 -420 basechar 0
AnchorPoint: "Anchor-7" 1835 1900 basechar 0
AnchorPoint: "Anchor-5" 1670 910 basechar 0
AnchorPoint: "Anchor-2" 720 -25 basechar 0
AnchorPoint: "Anchor-1" 1800 1200 basechar 0
AnchorPoint: "Anchor-0" 1040 1300 basechar 0
LayerCount: 2
Fore
SplineSet
1701 772 m 0,0,1
 1701 588 1701 588 1528.5 499.5 c 128,-1,2
 1356 411 1356 411 1004 408 c 1,3,-1
 1003 380 l 2,4,5
 1003 276 1003 276 1064.5 217 c 128,-1,6
 1126 158 1126 158 1239 158 c 0,7,8
 1315 158 1315 158 1401.5 185.5 c 128,-1,9
 1488 213 1488 213 1560 256 c 1,10,-1
 1521 57 l 1,11,12
 1367 -25 1367 -25 1188 -25 c 0,13,14
 1031 -25 1031 -25 930 51 c 128,-1,15
 829 127 829 127 800 265 c 1,16,-1
 796 265 l 1,17,18
 611 -25 611 -25 375 -25 c 0,19,20
 232 -25 232 -25 150.5 74.5 c 128,-1,21
 69 174 69 174 69 351 c 0,22,23
 69 484 69 484 121.5 619.5 c 128,-1,24
 174 755 174 755 264 850.5 c 128,-1,25
 354 946 354 946 478.5 997.5 c 128,-1,26
 603 1049 603 1049 757 1049 c 0,27,28
 924 1049 924 1049 1083 980 c 1,29,30
 1203 1049 1203 1049 1357 1049 c 0,31,32
 1512 1049 1512 1049 1606.5 973 c 128,-1,33
 1701 897 1701 897 1701 772 c 0,0,1
1465 765 m 0,34,35
 1465 816 1465 816 1427 845.5 c 128,-1,36
 1389 875 1389 875 1327 875 c 0,37,38
 1220 875 1220 875 1136 791.5 c 128,-1,39
 1052 708 1052 708 1024 575 c 1,40,41
 1465 575 1465 575 1465 765 c 0,34,35
906 837 m 1,42,43
 836 868 836 868 751 868 c 0,44,45
 627 868 627 868 529.5 803.5 c 128,-1,46
 432 739 432 739 371.5 614 c 128,-1,47
 311 489 311 489 311 363 c 0,48,49
 311 274 311 274 342 220 c 128,-1,50
 373 166 373 166 436 166 c 0,51,52
 528 166 528 166 619 272.5 c 128,-1,53
 710 379 710 379 789 588 c 0,54,55
 854 761 854 761 906 837 c 1,42,43
EndSplineSet
Substitution2: "SegoeUI-SemiboldItalic-'smcp' Lowercase to Small Capitals lookup 27 subtable" AE.c2sc
EndChar

StartChar: oslash
Encoding: 248 248 260
Width: 1137
GlyphClass: 2
Flags: W
AnchorPoint: "Anchor-15" 180 2100 basechar 0
AnchorPoint: "Anchor-14" 1276 2100 basechar 0
AnchorPoint: "Anchor-11" 510 0 basechar 0
AnchorPoint: "Anchor-8" 1026 -420 basechar 0
AnchorPoint: "Anchor-7" 1356 1900 basechar 0
AnchorPoint: "Anchor-5" 1020 760 basechar 0
AnchorPoint: "Anchor-2" 450 -25 basechar 0
AnchorPoint: "Anchor-1" 1200 1360 basechar 0
AnchorPoint: "Anchor-0" 700 1300 basechar 0
LayerCount: 2
Fore
SplineSet
1020 843 m 1,0,1
 1067 755 1067 755 1067 631 c 0,2,3
 1067 447 1067 447 992.5 293 c 128,-1,4
 918 139 918 139 786 57 c 128,-1,5
 654 -25 654 -25 483 -25 c 0,6,7
 303 -25 303 -25 197 75 c 1,8,-1
 51 -61 l 1,9,-1
 -38 40 l 1,10,-1
 115 182 l 1,11,12
 69 278 69 278 69 393 c 0,13,14
 69 579 69 579 144.5 732.5 c 128,-1,15
 220 886 220 886 352 967.5 c 128,-1,16
 484 1049 484 1049 654 1049 c 0,17,18
 823 1049 823 1049 935 950 c 1,19,-1
 1104 1108 l 1,20,-1
 1194 1006 l 1,21,-1
 1020 843 l 1,0,1
778 802 m 1,22,23
 729 867 729 867 639 867 c 0,24,25
 541 867 541 867 462.5 807 c 128,-1,26
 384 747 384 747 339.5 639 c 128,-1,27
 295 531 295 531 295 405 c 0,28,29
 295 379 295 379 299 355 c 1,30,-1
 778 802 l 1,22,23
840 621 m 0,31,32
 840 658 840 658 836 675 c 1,33,-1
 355 224 l 1,34,35
 378 194 378 194 415.5 175.5 c 128,-1,36
 453 157 453 157 498 157 c 0,37,38
 598 157 598 157 676 217 c 128,-1,39
 754 277 754 277 797 384.5 c 128,-1,40
 840 492 840 492 840 621 c 0,31,32
EndSplineSet
Substitution2: "SegoeUI-SemiboldItalic-'smcp' Lowercase to Small Capitals lookup 27 subtable" Oslash.c2sc
EndChar

StartChar: questiondown
Encoding: 191 191 261
Width: 900
GlyphClass: 2
Flags: W
LayerCount: 2
Fore
SplineSet
734 918 m 0,0,1
 734 856 734 856 689 816.5 c 128,-1,2
 644 777 644 777 584 777 c 0,3,4
 522 777 522 777 480.5 815 c 128,-1,5
 439 853 439 853 439 911 c 0,6,7
 439 971 439 971 482.5 1012 c 128,-1,8
 526 1053 526 1053 591 1053 c 0,9,10
 654 1053 654 1053 694 1014.5 c 128,-1,11
 734 976 734 976 734 918 c 0,0,1
320 -434 m 0,12,13
 149 -434 149 -434 47 -344 c 128,-1,14
 -55 -254 -55 -254 -55 -107 c 0,15,16
 -55 12 -55 12 10 111 c 128,-1,17
 75 210 75 210 223 307 c 0,18,19
 320 371 320 371 365.5 434.5 c 128,-1,20
 411 498 411 498 435 613 c 1,21,-1
 640 613 l 1,22,23
 606 444 606 444 554 361.5 c 128,-1,24
 502 279 502 279 403 212 c 0,25,26
 284 134 284 134 233.5 68 c 128,-1,27
 183 2 183 2 183 -70 c 0,28,29
 183 -149 183 -149 235 -193.5 c 128,-1,30
 287 -238 287 -238 370 -238 c 0,31,32
 523 -238 523 -238 663 -146 c 1,33,-1
 630 -369 l 1,34,35
 567 -397 567 -397 485 -415.5 c 128,-1,36
 403 -434 403 -434 320 -434 c 0,12,13
EndSplineSet
Position2: "SegoeUI-SemiboldItalic-'case' Case-Sensitive Forms lookup 15 subtable" dx=86 dy=406 dh=0 dv=0
EndChar

StartChar: exclamdown
Encoding: 161 161 263
Width: 681
GlyphClass: 2
Flags: W
LayerCount: 2
Fore
SplineSet
563 918 m 0,0,1
 563 856 563 856 518 816.5 c 128,-1,2
 473 777 473 777 414 777 c 0,3,4
 352 777 352 777 310.5 815 c 128,-1,5
 269 853 269 853 269 911 c 0,6,7
 269 971 269 971 312.5 1012 c 128,-1,8
 356 1053 356 1053 421 1053 c 0,9,10
 483 1053 483 1053 523 1014 c 128,-1,11
 563 975 563 975 563 918 c 0,0,1
272 -401 m 1,12,-1
 21 -401 l 1,13,-1
 264 608 l 1,14,-1
 460 608 l 1,15,-1
 272 -401 l 1,12,-1
EndSplineSet
Position2: "SegoeUI-SemiboldItalic-'case' Case-Sensitive Forms lookup 15 subtable" dx=86 dy=406 dh=0 dv=0
EndChar

StartChar: logicalnot
Encoding: 172 172 264
Width: 1426
GlyphClass: 2
Flags: W
LayerCount: 2
Fore
SplineSet
1035 260 m 1,0,-1
 1035 670 l 1,1,-1
 245 670 l 1,2,-1
 245 837 l 1,3,-1
 1202 837 l 1,4,-1
 1202 260 l 1,5,-1
 1035 260 l 1,0,-1
EndSplineSet
EndChar

StartChar: radical
Encoding: 8730 8730 265
Width: 1331
GlyphClass: 2
Flags: W
LayerCount: 2
Fore
SplineSet
787 -2 m 1,0,-1
 633 -2 l 1,1,-1
 313 744 l 1,2,-1
 137 744 l 1,3,-1
 137 883 l 1,4,-1
 444 883 l 1,5,-1
 702 267 l 1,6,-1
 1028 1516 l 1,7,-1
 1186 1516 l 1,8,-1
 787 -2 l 1,0,-1
EndSplineSet
EndChar

StartChar: florin
Encoding: 402 402 266
Width: 1142
GlyphClass: 2
Flags: W
AnchorPoint: "Anchor-15" 180 2100 basechar 0
AnchorPoint: "Anchor-14" 1284 2100 basechar 0
AnchorPoint: "Anchor-11" 180 -242 basechar 0
AnchorPoint: "Anchor-8" 892 -420 basechar 0
AnchorPoint: "Anchor-7" 1222 1900 basechar 0
AnchorPoint: "Anchor-2" 181 -300 basechar 0
AnchorPoint: "Anchor-1" 1130 1434 basechar 0
AnchorPoint: "Anchor-0" 830 1650 basechar 0
LayerCount: 2
Fore
SplineSet
1059 1224 m 1,0,1
 999 1258 999 1258 942 1258 c 0,2,3
 882 1258 882 1258 839.5 1220.5 c 128,-1,4
 797 1183 797 1183 780 1110 c 2,5,-1
 741 937 l 1,6,-1
 917 937 l 1,7,-1
 876 760 l 1,8,-1
 703 760 l 1,9,-1
 567 144 l 2,10,11
 518 -76 518 -76 430 -176 c 128,-1,12
 342 -276 342 -276 195 -276 c 0,13,14
 160 -276 160 -276 120 -269.5 c 128,-1,15
 80 -263 80 -263 56 -252 c 1,16,-1
 81 -74 l 1,17,18
 120 -100 120 -100 167 -100 c 0,19,20
 235 -100 235 -100 274.5 -41 c 128,-1,21
 314 18 314 18 344 150 c 2,22,-1
 478 759 l 1,23,-1
 352 759 l 1,24,-1
 393 937 l 1,25,-1
 515 937 l 1,26,-1
 556 1120 l 2,27,28
 590 1272 590 1272 683.5 1356 c 128,-1,29
 777 1440 777 1440 922 1440 c 0,30,31
 1012 1440 1012 1440 1095 1409 c 1,32,-1
 1059 1224 l 1,0,1
EndSplineSet
EndChar

StartChar: approxequal
Encoding: 8776 8776 267
Width: 1426
GlyphClass: 2
Flags: W
LayerCount: 2
Fore
SplineSet
1247 979 m 1,0,1
 1241 822 1241 822 1162.5 732 c 128,-1,2
 1084 642 1084 642 950 642 c 0,3,4
 892 642 892 642 838 661 c 128,-1,5
 784 680 784 680 690 740 c 0,6,7
 653 763 653 763 613 784 c 128,-1,8
 573 805 573 805 531 805 c 0,9,10
 467 805 467 805 432.5 761.5 c 128,-1,11
 398 718 398 718 394 639 c 1,12,-1
 224 639 l 1,13,14
 231 800 231 800 310 887.5 c 128,-1,15
 389 975 389 975 523 975 c 0,16,17
 562 975 562 975 596.5 967.5 c 128,-1,18
 631 960 631 960 662 946.5 c 128,-1,19
 693 933 693 933 760 892 c 0,20,21
 839 841 839 841 876 825.5 c 128,-1,22
 913 810 913 810 948 810 c 0,23,24
 1005 810 1005 810 1040 857 c 128,-1,25
 1075 904 1075 904 1077 979 c 1,26,-1
 1247 979 l 1,0,1
1247 549 m 1,27,28
 1241 392 1241 392 1162.5 302 c 128,-1,29
 1084 212 1084 212 950 212 c 0,30,31
 893 212 893 212 840.5 230 c 128,-1,32
 788 248 788 248 690 311 c 0,33,34
 653 334 653 334 613 355 c 128,-1,35
 573 376 573 376 531 376 c 0,36,37
 469 376 469 376 434 333.5 c 128,-1,38
 399 291 399 291 394 208 c 1,39,-1
 224 208 l 1,40,41
 231 367 231 367 309.5 456.5 c 128,-1,42
 388 546 388 546 523 546 c 0,43,44
 577 546 577 546 631.5 529 c 128,-1,45
 686 512 686 512 760 464 c 2,46,-1
 817 428 l 2,47,48
 890 380 890 380 948 380 c 0,49,50
 1005 380 1005 380 1040 427 c 128,-1,51
 1075 474 1075 474 1077 549 c 1,52,-1
 1247 549 l 1,27,28
EndSplineSet
EndChar

StartChar: uni0394
Encoding: 916 916 268
Width: 1435
GlyphClass: 2
Flags: W
LayerCount: 2
Fore
SplineSet
1270 106 m 1,0,-1
 1248 0 l 1,1,-1
 -31 0 l 1,2,-1
 -7 106 l 1,3,-1
 772 1434 l 1,4,-1
 1065 1434 l 1,5,-1
 1270 106 l 1,0,-1
879 1182 m 2,6,-1
 880 1217 l 1,7,-1
 874 1217 l 1,8,9
 864 1197 864 1197 851 1165 c 128,-1,10
 838 1133 838 1133 817 1097 c 2,11,-1
 309 207 l 1,12,-1
 1009 207 l 1,13,-1
 889 1055 l 2,14,15
 879 1122 879 1122 879 1182 c 2,6,-1
EndSplineSet
Substitution2: "SegoeUI-SemiboldItalic-'c2sc' Capitals to Small Capitals lookup 24 subtable" uni0394.c2sc
Position2: "SegoeUI-SemiboldItalic-'cpsp' Capital Spacing lookup 14 subtable" dx=36 dy=0 dh=72 dv=0
EndChar

StartChar: guillemotleft
Encoding: 171 171 269
Width: 1126
GlyphClass: 2
Flags: W
LayerCount: 2
Fore
SplineSet
764 199 m 1,0,-1
 522 537 l 1,1,-1
 891 879 l 1,2,-1
 1121 879 l 1,3,-1
 738 523 l 1,4,-1
 973 199 l 1,5,-1
 764 199 l 1,0,-1
314 199 m 1,6,-1
 71 537 l 1,7,-1
 441 879 l 1,8,-1
 671 879 l 1,9,-1
 288 523 l 1,10,-1
 523 199 l 1,11,-1
 314 199 l 1,6,-1
EndSplineSet
Position2: "SegoeUI-SemiboldItalic-'case' Case-Sensitive Forms lookup 15 subtable" dx=23 dy=110 dh=0 dv=0
EndChar

StartChar: guillemotright
Encoding: 187 187 270
Width: 1126
GlyphClass: 2
Flags: W
LayerCount: 2
Fore
SplineSet
685 202 m 1,0,-1
 455 202 l 1,1,-1
 839 557 l 1,2,-1
 603 882 l 1,3,-1
 811 882 l 1,4,-1
 1055 544 l 1,5,-1
 685 202 l 1,0,-1
235 202 m 1,6,-1
 5 202 l 1,7,-1
 389 557 l 1,8,-1
 153 882 l 1,9,-1
 362 882 l 1,10,-1
 604 544 l 1,11,-1
 235 202 l 1,6,-1
EndSplineSet
Position2: "SegoeUI-SemiboldItalic-'case' Case-Sensitive Forms lookup 15 subtable" dx=23 dy=110 dh=0 dv=0
EndChar

StartChar: ellipsis
Encoding: 8230 8230 271
Width: 1689
GlyphClass: 2
Flags: W
LayerCount: 2
Fore
SplineSet
1471 121 m 0,0,1
 1471 60 1471 60 1427 19.5 c 128,-1,2
 1383 -21 1383 -21 1321 -21 c 0,3,4
 1261 -21 1261 -21 1219 17.5 c 128,-1,5
 1177 56 1177 56 1177 112 c 0,6,7
 1177 173 1177 173 1220.5 214.5 c 128,-1,8
 1264 256 1264 256 1328 256 c 0,9,10
 1389 256 1389 256 1430 216.5 c 128,-1,11
 1471 177 1471 177 1471 121 c 0,0,1
909 121 m 0,12,13
 909 60 909 60 865 19.5 c 128,-1,14
 821 -21 821 -21 759 -21 c 0,15,16
 698 -21 698 -21 656 17.5 c 128,-1,17
 614 56 614 56 614 112 c 0,18,19
 614 174 614 174 658.5 215 c 128,-1,20
 703 256 703 256 766 256 c 0,21,22
 827 256 827 256 868 216.5 c 128,-1,23
 909 177 909 177 909 121 c 0,12,13
347 121 m 0,24,25
 347 60 347 60 303 19.5 c 128,-1,26
 259 -21 259 -21 196 -21 c 0,27,28
 137 -21 137 -21 95 17.5 c 128,-1,29
 53 56 53 56 53 112 c 0,30,31
 53 173 53 173 96.5 214.5 c 128,-1,32
 140 256 140 256 204 256 c 0,33,34
 265 256 265 256 306 216.5 c 128,-1,35
 347 177 347 177 347 121 c 0,24,25
EndSplineSet
EndChar

StartChar: OE
Encoding: 338 338 275
Width: 1884
GlyphClass: 2
Flags: W
AnchorPoint: "Anchor-15" 180 2100 basechar 0
AnchorPoint: "Anchor-14" 2072 2100 basechar 0
AnchorPoint: "Anchor-11" 1460 0 basechar 0
AnchorPoint: "Anchor-8" 1824 -420 basechar 0
AnchorPoint: "Anchor-7" 2154 1900 basechar 0
AnchorPoint: "Anchor-2" 990 -25 basechar 0
AnchorPoint: "Anchor-1" 2086 1500 basechar 0
AnchorPoint: "Anchor-0" 1320 1600 basechar 0
LayerCount: 2
Fore
SplineSet
1927 1226 m 1,0,-1
 1400 1226 l 1,1,-1
 1313 820 l 1,2,-1
 1804 820 l 1,3,-1
 1760 612 l 1,4,-1
 1269 612 l 1,5,-1
 1183 207 l 1,6,-1
 1744 207 l 1,7,-1
 1701 0 l 1,8,-1
 1001 0 l 1,9,-1
 934 -4 l 1,10,11
 842 -14 842 -14 794 -19.5 c 128,-1,12
 746 -25 746 -25 701 -25 c 0,13,14
 534 -25 534 -25 400.5 53 c 128,-1,15
 267 131 267 131 194.5 272 c 128,-1,16
 122 413 122 413 122 593 c 0,17,18
 122 842 122 842 219.5 1035.5 c 128,-1,19
 317 1229 317 1229 495.5 1343.5 c 128,-1,20
 674 1458 674 1458 907 1458 c 0,21,22
 980 1458 980 1458 1102 1446 c 0,23,24
 1214 1434 1214 1434 1257 1434 c 2,25,-1
 1972 1434 l 1,26,-1
 1927 1226 l 1,0,-1
1147 1208 m 1,27,28
 1059 1241 1059 1241 892 1241 c 0,29,30
 749 1241 749 1241 634.5 1159.5 c 128,-1,31
 520 1078 520 1078 451 920.5 c 128,-1,32
 382 763 382 763 382 588 c 0,33,34
 382 406 382 406 476 298 c 128,-1,35
 570 190 570 190 737 190 c 0,36,37
 829 190 829 190 939 220 c 1,38,-1
 1147 1208 l 1,27,28
EndSplineSet
Substitution2: "SegoeUI-SemiboldItalic-'c2sc' Capitals to Small Capitals lookup 26 subtable" OE.c2sc
Position2: "SegoeUI-SemiboldItalic-'cpsp' Capital Spacing lookup 12 subtable" dx=36 dy=0 dh=72 dv=0
EndChar

StartChar: oe
Encoding: 339 339 276
Width: 1760
GlyphClass: 2
Flags: W
AnchorPoint: "Anchor-15" 180 2100 basechar 0
AnchorPoint: "Anchor-14" 1923 2100 basechar 0
AnchorPoint: "Anchor-11" 1270 0 basechar 0
AnchorPoint: "Anchor-8" 1556 -420 basechar 0
AnchorPoint: "Anchor-7" 1886 1900 basechar 0
AnchorPoint: "Anchor-5" 1710 910 basechar 0
AnchorPoint: "Anchor-2" 800 -25 basechar 0
AnchorPoint: "Anchor-1" 1800 1200 basechar 0
AnchorPoint: "Anchor-0" 1070 1300 basechar 0
LayerCount: 2
Fore
SplineSet
1734 772 m 0,0,1
 1734 587 1734 587 1562 499.5 c 128,-1,2
 1390 412 1390 412 1039 408 c 1,3,-1
 1037 391 l 1,4,-1
 1037 374 l 2,5,6
 1037 274 1037 274 1098.5 216 c 128,-1,7
 1160 158 1160 158 1271 158 c 0,8,9
 1348 158 1348 158 1436 185.5 c 128,-1,10
 1524 213 1524 213 1594 256 c 1,11,-1
 1554 57 l 1,12,13
 1410 -25 1410 -25 1236 -25 c 0,14,15
 1105 -25 1105 -25 1014 28 c 128,-1,16
 923 81 923 81 880 185 c 1,17,-1
 876 185 l 1,18,19
 807 87 807 87 705 31 c 128,-1,20
 603 -25 603 -25 479 -25 c 0,21,22
 291 -25 291 -25 180 88.5 c 128,-1,23
 69 202 69 202 69 393 c 0,24,25
 69 577 69 577 140.5 728 c 128,-1,26
 212 879 212 879 341.5 964 c 128,-1,27
 471 1049 471 1049 632 1049 c 0,28,29
 750 1049 750 1049 838 994 c 128,-1,30
 926 939 926 939 971 835 c 1,31,-1
 975 835 l 1,32,33
 1139 1049 1139 1049 1383 1049 c 0,34,35
 1491 1049 1491 1049 1570 1014 c 128,-1,36
 1649 979 1649 979 1691.5 915 c 128,-1,37
 1734 851 1734 851 1734 772 c 0,0,1
1500 763 m 0,38,39
 1500 817 1500 817 1462.5 846 c 128,-1,40
 1425 875 1425 875 1363 875 c 0,41,42
 1257 875 1257 875 1171.5 789.5 c 128,-1,43
 1086 704 1086 704 1059 574 c 1,44,45
 1500 574 1500 574 1500 763 c 0,38,39
819 625 m 0,46,47
 819 734 819 734 772 796 c 128,-1,48
 725 858 725 858 636 858 c 0,49,50
 545 858 545 858 471 795.5 c 128,-1,51
 397 733 397 733 354.5 626 c 128,-1,52
 312 519 312 519 312 397 c 0,53,54
 312 289 312 289 362.5 227.5 c 128,-1,55
 413 166 413 166 500 166 c 0,56,57
 592 166 592 166 665.5 228 c 128,-1,58
 739 290 739 290 779 397 c 128,-1,59
 819 504 819 504 819 625 c 0,46,47
EndSplineSet
Substitution2: "SegoeUI-SemiboldItalic-'smcp' Lowercase to Small Capitals lookup 27 subtable" OE.c2sc
EndChar

StartChar: endash
Encoding: 8211 8211 277
Width: 1024
GlyphClass: 2
Flags: W
LayerCount: 2
Fore
SplineSet
-8 471 m 1,0,-1
 28 646 l 1,1,-1
 1052 646 l 1,2,-1
 1016 471 l 1,3,-1
 -8 471 l 1,0,-1
EndSplineSet
Position2: "SegoeUI-SemiboldItalic-'case' Case-Sensitive Forms lookup 15 subtable" dx=23 dy=110 dh=0 dv=0
EndChar

StartChar: emdash
Encoding: 8212 8212 278
Width: 2048
GlyphClass: 2
Flags: W
LayerCount: 2
Fore
SplineSet
-8 471 m 1,0,-1
 28 646 l 1,1,-1
 2076 646 l 1,2,-1
 2040 471 l 1,3,-1
 -8 471 l 1,0,-1
EndSplineSet
Position2: "SegoeUI-SemiboldItalic-'case' Case-Sensitive Forms lookup 15 subtable" dx=23 dy=110 dh=0 dv=0
EndChar

StartChar: quotedblleft
Encoding: 8220 8220 279
Width: 888
GlyphClass: 2
Flags: W
LayerCount: 2
Fore
SplineSet
780 997 m 1,0,-1
 579 997 l 1,1,-1
 789 1443 l 1,2,-1
 946 1443 l 1,3,-1
 780 997 l 1,0,-1
406 997 m 1,4,-1
 205 997 l 1,5,-1
 413 1443 l 1,6,-1
 571 1443 l 1,7,-1
 406 997 l 1,4,-1
EndSplineSet
Substitution2: "SegoeUI-SemiboldItalic-'ss19' Style Set 19 lookup 8 subtable" quotedblleft.ss19
EndChar

StartChar: quotedblright
Encoding: 8221 8221 280
Width: 888
GlyphClass: 2
Flags: W
LayerCount: 2
Fore
SplineSet
753 997 m 1,0,-1
 598 997 l 1,1,-1
 765 1443 l 1,2,-1
 964 1443 l 1,3,-1
 753 997 l 1,0,-1
379 997 m 1,4,-1
 224 997 l 1,5,-1
 391 1443 l 1,6,-1
 590 1443 l 1,7,-1
 379 997 l 1,4,-1
EndSplineSet
Substitution2: "SegoeUI-SemiboldItalic-'ss19' Style Set 19 lookup 8 subtable" quotedblright.ss19
EndChar

StartChar: quoteleft
Encoding: 8216 8216 281
Width: 514
GlyphClass: 2
Flags: W
LayerCount: 2
Fore
SplineSet
406 997 m 1,0,-1
 205 997 l 1,1,-1
 413 1443 l 1,2,-1
 572 1443 l 1,3,-1
 406 997 l 1,0,-1
EndSplineSet
Substitution2: "SegoeUI-SemiboldItalic-'ss19' Style Set 19 lookup 8 subtable" quoteleft.ss19
EndChar

StartChar: quoteright
Encoding: 8217 8217 282
Width: 514
GlyphClass: 2
Flags: W
LayerCount: 2
Fore
SplineSet
379 997 m 1,0,-1
 224 997 l 1,1,-1
 391 1443 l 1,2,-1
 590 1443 l 1,3,-1
 379 997 l 1,0,-1
EndSplineSet
Substitution2: "SegoeUI-SemiboldItalic-'ss19' Style Set 19 lookup 8 subtable" quoteright.ss19
EndChar

StartChar: divide
Encoding: 247 247 283
Width: 1426
GlyphClass: 2
Flags: W
LayerCount: 2
Fore
SplineSet
857 979 m 0,0,1
 857 925 857 925 820 891 c 128,-1,2
 783 857 783 857 734 857 c 0,3,4
 683 857 683 857 646.5 892.5 c 128,-1,5
 610 928 610 928 610 979 c 0,6,7
 610 1032 610 1032 645 1068 c 128,-1,8
 680 1104 680 1104 734 1104 c 0,9,10
 791 1104 791 1104 824 1070.5 c 128,-1,11
 857 1037 857 1037 857 979 c 0,0,1
255 507 m 1,12,-1
 255 676 l 1,13,-1
 1212 676 l 1,14,-1
 1212 507 l 1,15,-1
 255 507 l 1,12,-1
857 199 m 0,16,17
 857 148 857 148 821.5 114 c 128,-1,18
 786 80 786 80 734 80 c 0,19,20
 683 80 683 80 646.5 115 c 128,-1,21
 610 150 610 150 610 199 c 0,22,23
 610 253 610 253 646 290 c 128,-1,24
 682 327 682 327 734 327 c 0,25,26
 796 327 796 327 826.5 292.5 c 128,-1,27
 857 258 857 258 857 199 c 0,16,17
EndSplineSet
EndChar

StartChar: lozenge
Encoding: 9674 9674 284
Width: 1198
GlyphClass: 2
Flags: W
LayerCount: 2
Fore
SplineSet
676 0 m 1,0,-1
 580 0 l 1,1,-1
 120 715 l 1,2,-1
 580 1434 l 1,3,-1
 676 1434 l 1,4,-1
 1138 717 l 1,5,-1
 676 0 l 1,0,-1
630 1240 m 1,6,-1
 302 717 l 1,7,-1
 630 192 l 1,8,-1
 957 717 l 1,9,-1
 630 1240 l 1,6,-1
EndSplineSet
EndChar

StartChar: fraction
Encoding: 8260 8260 287
AltUni2: 002215.ffffffff.0 002215.ffffffff.0
Width: 464
GlyphClass: 2
Flags: W
LayerCount: 2
Fore
SplineSet
-204 0 m 1,0,-1
 -400 0 l 1,1,-1
 780 1434 l 1,2,-1
 975 1434 l 1,3,-1
 -204 0 l 1,0,-1
EndSplineSet
EndChar

StartChar: Euro
Encoding: 8364 8364 288
Width: 1142
GlyphClass: 2
Flags: W
LayerCount: 2
Fore
SplineSet
1206 1176 m 1,0,1
 1086 1267 1086 1267 956 1267 c 0,2,3
 794 1267 794 1267 677.5 1181.5 c 128,-1,4
 561 1096 561 1096 499 935 c 1,5,-1
 1025 935 l 1,6,-1
 994 796 l 1,7,-1
 452 796 l 1,8,9
 434 713 434 713 430 610 c 1,10,-1
 954 610 l 1,11,-1
 925 470 l 1,12,-1
 435 470 l 1,13,14
 455 315 455 315 537 241 c 128,-1,15
 619 167 619 167 748 167 c 0,16,17
 882 167 882 167 1021 245 c 1,18,-1
 987 33 l 1,19,20
 851 -26 851 -26 708 -26 c 0,21,22
 490 -26 490 -26 355 106.5 c 128,-1,23
 220 239 220 239 202 470 c 1,24,-1
 45 470 l 1,25,-1
 75 610 l 1,26,-1
 198 610 l 1,27,28
 206 731 206 731 221 796 c 1,29,-1
 116 796 l 1,30,-1
 144 935 l 1,31,-1
 258 935 l 1,32,33
 343 1184 343 1184 529.5 1321 c 128,-1,34
 716 1458 716 1458 970 1458 c 0,35,36
 1051 1458 1051 1458 1128.5 1440 c 128,-1,37
 1206 1422 1206 1422 1248 1398 c 1,38,-1
 1206 1176 l 1,0,1
EndSplineSet
EndChar

StartChar: guilsinglleft
Encoding: 8249 8249 289
Width: 676
GlyphClass: 2
Flags: W
LayerCount: 2
Fore
SplineSet
314 199 m 1,0,-1
 72 537 l 1,1,-1
 441 879 l 1,2,-1
 672 879 l 1,3,-1
 289 523 l 1,4,-1
 524 199 l 1,5,-1
 314 199 l 1,0,-1
EndSplineSet
Position2: "SegoeUI-SemiboldItalic-'case' Case-Sensitive Forms lookup 15 subtable" dx=23 dy=110 dh=0 dv=0
EndChar

StartChar: guilsinglright
Encoding: 8250 8250 290
Width: 676
GlyphClass: 2
Flags: W
LayerCount: 2
Fore
SplineSet
235 202 m 1,0,-1
 5 202 l 1,1,-1
 388 557 l 1,2,-1
 152 882 l 1,3,-1
 362 882 l 1,4,-1
 604 544 l 1,5,-1
 235 202 l 1,0,-1
EndSplineSet
Position2: "SegoeUI-SemiboldItalic-'case' Case-Sensitive Forms lookup 15 subtable" dx=23 dy=110 dh=0 dv=0
EndChar

StartChar: daggerdbl
Encoding: 8225 8225 293
Width: 800
GlyphClass: 2
Flags: W
LayerCount: 2
Fore
SplineSet
756 500 m 1,0,-1
 461 525 l 1,1,-1
 433 215 l 1,2,-1
 236 215 l 1,3,-1
 338 525 l 1,4,-1
 34 500 l 1,5,-1
 73 688 l 1,6,-1
 332 658 l 1,7,-1
 413 824 l 1,8,-1
 402 990 l 1,9,-1
 131 960 l 1,10,-1
 171 1148 l 1,11,-1
 466 1123 l 1,12,-1
 494 1433 l 1,13,-1
 691 1433 l 1,14,-1
 589 1123 l 1,15,-1
 894 1148 l 1,16,-1
 854 960 l 1,17,-1
 595 990 l 1,18,-1
 515 824 l 1,19,-1
 525 658 l 1,20,-1
 796 688 l 1,21,-1
 756 500 l 1,0,-1
EndSplineSet
EndChar

StartChar: periodcentered
Encoding: 183 183 294
Width: 500
GlyphClass: 2
Flags: W
LayerCount: 2
Fore
SplineSet
423 641 m 0,0,1
 423 582 423 582 380.5 540.5 c 128,-1,2
 338 499 338 499 272 499 c 0,3,4
 209 499 209 499 169 538 c 128,-1,5
 129 577 129 577 129 633 c 0,6,7
 129 694 129 694 172.5 734 c 128,-1,8
 216 774 216 774 279 774 c 0,9,10
 341 774 341 774 382 735.5 c 128,-1,11
 423 697 423 697 423 641 c 0,0,1
EndSplineSet
EndChar

StartChar: quotesinglbase
Encoding: 8218 8218 295
Width: 514
GlyphClass: 2
Flags: W
LayerCount: 2
Fore
SplineSet
118 -225 m 1,0,-1
 -37 -225 l 1,1,-1
 130 219 l 1,2,-1
 328 219 l 1,3,-1
 118 -225 l 1,0,-1
EndSplineSet
Substitution2: "SegoeUI-SemiboldItalic-'ss19' Style Set 19 lookup 8 subtable" quotesinglbase.ss19
EndChar

StartChar: quotedblbase
Encoding: 8222 8222 296
Width: 888
GlyphClass: 2
Flags: W
LayerCount: 2
Fore
SplineSet
492 -228 m 1,0,-1
 336 -228 l 1,1,-1
 504 217 l 1,2,-1
 703 217 l 1,3,-1
 492 -228 l 1,0,-1
118 -228 m 1,4,-1
 -37 -228 l 1,5,-1
 130 217 l 1,6,-1
 328 217 l 1,7,-1
 118 -228 l 1,4,-1
EndSplineSet
Substitution2: "SegoeUI-SemiboldItalic-'ss19' Style Set 19 lookup 8 subtable" quotedblbase.ss19
EndChar

StartChar: perthousand
Encoding: 8240 8240 297
Width: 2536
GlyphClass: 2
Flags: W
LayerCount: 2
Fore
SplineSet
2441 424 m 0,0,1
 2441 308 2441 308 2391.5 204.5 c 128,-1,2
 2342 101 2342 101 2252.5 40.5 c 128,-1,3
 2163 -20 2163 -20 2049 -20 c 0,4,5
 1950 -20 1950 -20 1882 19 c 128,-1,6
 1814 58 1814 58 1778 126 c 128,-1,7
 1742 194 1742 194 1742 282 c 0,8,9
 1742 399 1742 399 1797.5 506.5 c 128,-1,10
 1853 614 1853 614 1943 669 c 128,-1,11
 2033 724 2033 724 2143 724 c 0,12,13
 2283 724 2283 724 2362 644 c 128,-1,14
 2441 564 2441 564 2441 424 c 0,0,1
1638 424 m 0,15,16
 1638 309 1638 309 1587.5 205 c 128,-1,17
 1537 101 1537 101 1447.5 40.5 c 128,-1,18
 1358 -20 1358 -20 1245 -20 c 0,19,20
 1146 -20 1146 -20 1078 19 c 128,-1,21
 1010 58 1010 58 974 127.5 c 128,-1,22
 938 197 938 197 938 282 c 0,23,24
 938 399 938 399 993.5 506.5 c 128,-1,25
 1049 614 1049 614 1139 669 c 128,-1,26
 1229 724 1229 724 1339 724 c 0,27,28
 1480 724 1480 724 1559 643 c 128,-1,29
 1638 562 1638 562 1638 424 c 0,15,16
383 0 m 1,30,-1
 186 0 l 1,31,-1
 1420 1434 l 1,32,-1
 1617 1434 l 1,33,-1
 383 0 l 1,30,-1
870 1155 m 0,34,35
 870 1033 870 1033 815.5 927 c 128,-1,36
 761 821 761 821 672 765.5 c 128,-1,37
 583 710 583 710 476 710 c 0,38,39
 377 710 377 710 309.5 748.5 c 128,-1,40
 242 787 242 787 206 856 c 128,-1,41
 170 925 170 925 170 1014 c 0,42,43
 170 1129 170 1129 224 1235 c 128,-1,44
 278 1341 278 1341 368 1397.5 c 128,-1,45
 458 1454 458 1454 571 1454 c 0,46,47
 710 1454 710 1454 790 1374 c 128,-1,48
 870 1294 870 1294 870 1155 c 0,34,35
2268 420 m 0,49,50
 2268 497 2268 497 2233.5 539 c 128,-1,51
 2199 581 2199 581 2137 581 c 256,52,53
 2075 581 2075 581 2025 538.5 c 128,-1,54
 1975 496 1975 496 1946.5 424 c 128,-1,55
 1918 352 1918 352 1918 281 c 0,56,57
 1918 209 1918 209 1954 165.5 c 128,-1,58
 1990 122 1990 122 2055 122 c 0,59,60
 2145 122 2145 122 2206.5 210 c 128,-1,61
 2268 298 2268 298 2268 420 c 0,49,50
1463 420 m 0,62,63
 1463 494 1463 494 1429 537.5 c 128,-1,64
 1395 581 1395 581 1333 581 c 256,65,66
 1271 581 1271 581 1221 539 c 128,-1,67
 1171 497 1171 497 1142 425 c 128,-1,68
 1113 353 1113 353 1113 281 c 256,69,70
 1113 209 1113 209 1149 165.5 c 128,-1,71
 1185 122 1185 122 1250 122 c 0,72,73
 1340 122 1340 122 1401.5 210 c 128,-1,74
 1463 298 1463 298 1463 420 c 0,62,63
695 1150 m 256,75,76
 695 1228 695 1228 659.5 1270 c 128,-1,77
 624 1312 624 1312 565 1312 c 0,78,79
 503 1312 503 1312 453.5 1270.5 c 128,-1,80
 404 1229 404 1229 374.5 1158 c 128,-1,81
 345 1087 345 1087 345 1013 c 256,82,83
 345 939 345 939 382 895.5 c 128,-1,84
 419 852 419 852 482 852 c 0,85,86
 541 852 541 852 590.5 893.5 c 128,-1,87
 640 935 640 935 667.5 1003.5 c 128,-1,88
 695 1072 695 1072 695 1150 c 256,75,76
EndSplineSet
EndChar

StartChar: dotlessi
Encoding: 305 305 313
Width: 590
GlyphClass: 2
Flags: W
AnchorPoint: "Anchor-15" 180 2100 basechar 0
AnchorPoint: "Anchor-14" 710 2100 basechar 0
AnchorPoint: "Anchor-11" 180 0 basechar 0
AnchorPoint: "Anchor-8" 292 -420 basechar 0
AnchorPoint: "Anchor-7" 622 1900 basechar 0
AnchorPoint: "Anchor-5" 410 1030 basechar 0
AnchorPoint: "Anchor-2" 160 -15 basechar 0
AnchorPoint: "Anchor-1" 550 1104 basechar 0
AnchorPoint: "Anchor-0" 370 1184 basechar 0
LayerCount: 2
Fore
SplineSet
314 -17 m 0,0,1
 203 -17 203 -17 145 38 c 128,-1,2
 87 93 87 93 87 194 c 0,3,4
 87 261 87 261 113 378 c 2,5,-1
 249 1024 l 1,6,-1
 492 1024 l 1,7,-1
 356 379 l 2,8,9
 335 279 335 279 335 250 c 0,10,11
 335 174 335 174 422 174 c 0,12,13
 473 174 473 174 513 190 c 1,14,-1
 475 6 l 1,15,16
 398 -17 398 -17 314 -17 c 0,0,1
EndSplineSet
Substitution2: "SegoeUI-SemiboldItalic-'smcp' Lowercase to Small Capitals lookup 27 subtable" I.c2sc
EndChar

StartChar: circumflex
Encoding: 710 710 314
Width: 807
GlyphClass: 2
Flags: W
LayerCount: 2
Fore
SplineSet
698 1202 m 1,0,-1
 583 1413 l 1,1,-1
 378 1202 l 1,2,-1
 212 1202 l 1,3,-1
 505 1531 l 1,4,-1
 696 1531 l 1,5,-1
 853 1202 l 1,6,-1
 698 1202 l 1,0,-1
EndSplineSet
EndChar

StartChar: tilde
Encoding: 732 732 315
Width: 807
GlyphClass: 2
Flags: W
LayerCount: 2
Fore
SplineSet
921 1472 m 1,0,1
 909 1358 909 1358 842.5 1289.5 c 128,-1,2
 776 1221 776 1221 683 1221 c 0,3,4
 633 1221 633 1221 599.5 1234.5 c 128,-1,5
 566 1248 566 1248 539 1264.5 c 128,-1,6
 512 1281 512 1281 488 1294.5 c 128,-1,7
 464 1308 464 1308 434 1308 c 0,8,9
 383 1308 383 1308 355.5 1276 c 128,-1,10
 328 1244 328 1244 322 1202 c 1,11,-1
 197 1202 l 1,12,13
 207 1313 207 1313 275 1383.5 c 128,-1,14
 343 1454 343 1454 443 1454 c 0,15,16
 489 1454 489 1454 521 1440 c 128,-1,17
 553 1426 553 1426 579 1409 c 128,-1,18
 605 1392 605 1392 630 1378 c 128,-1,19
 655 1364 655 1364 689 1364 c 0,20,21
 732 1364 732 1364 760.5 1394 c 128,-1,22
 789 1424 789 1424 796 1472 c 1,23,-1
 921 1472 l 1,0,1
EndSplineSet
EndChar

StartChar: uni02C9
Encoding: 713 713 316
Width: 807
GlyphClass: 2
Flags: W
LayerCount: 2
Fore
SplineSet
808 1202 m 1,0,-1
 261 1202 l 1,1,-1
 288 1342 l 1,2,-1
 835 1342 l 1,3,-1
 808 1202 l 1,0,-1
EndSplineSet
EndChar

StartChar: breve
Encoding: 728 728 317
Width: 807
GlyphClass: 2
Flags: W
LayerCount: 2
Fore
SplineSet
887 1483 m 1,0,1
 847 1349 847 1349 756.5 1275.5 c 128,-1,2
 666 1202 666 1202 543 1202 c 0,3,4
 434 1202 434 1202 363.5 1263.5 c 128,-1,5
 293 1325 293 1325 293 1429 c 0,6,7
 293 1459 293 1459 301 1483 c 1,8,-1
 434 1483 l 1,9,-1
 431 1452 l 1,10,11
 431 1396 431 1396 466.5 1366 c 128,-1,12
 502 1336 502 1336 556 1336 c 0,13,14
 698 1336 698 1336 747 1483 c 1,15,-1
 887 1483 l 1,0,1
EndSplineSet
EndChar

StartChar: dotaccent
Encoding: 729 729 318
Width: 807
GlyphClass: 2
Flags: W
LayerCount: 2
Fore
SplineSet
685 1322 m 256,0,1
 685 1271 685 1271 650 1236.5 c 128,-1,2
 615 1202 615 1202 560 1202 c 0,3,4
 507 1202 507 1202 471 1236.5 c 128,-1,5
 435 1271 435 1271 435 1322 c 256,6,7
 435 1373 435 1373 471 1404.5 c 128,-1,8
 507 1436 507 1436 560 1436 c 0,9,10
 614 1436 614 1436 649.5 1404.5 c 128,-1,11
 685 1373 685 1373 685 1322 c 256,0,1
EndSplineSet
EndChar

StartChar: ring
Encoding: 730 730 319
Width: 807
GlyphClass: 2
Flags: W
LayerCount: 2
Fore
SplineSet
795 1376 m 0,0,1
 795 1284 795 1284 729.5 1225 c 128,-1,2
 664 1166 664 1166 570 1166 c 256,3,4
 476 1166 476 1166 413.5 1222 c 128,-1,5
 351 1278 351 1278 351 1369 c 0,6,7
 351 1463 351 1463 415 1521 c 128,-1,8
 479 1579 479 1579 575 1579 c 0,9,10
 673 1579 673 1579 734 1523 c 128,-1,11
 795 1467 795 1467 795 1376 c 0,0,1
679 1374 m 0,12,13
 679 1419 679 1419 648.5 1447.5 c 128,-1,14
 618 1476 618 1476 570 1476 c 0,15,16
 525 1476 525 1476 495.5 1446 c 128,-1,17
 466 1416 466 1416 466 1374 c 0,18,19
 466 1326 466 1326 494 1297.5 c 128,-1,20
 522 1269 522 1269 570 1269 c 0,21,22
 617 1269 617 1269 648 1298.5 c 128,-1,23
 679 1328 679 1328 679 1374 c 0,12,13
EndSplineSet
EndChar

